<svg width="226" height="180" viewBox="0 0 226 180" fill="none" xmlns="http://www.w3.org/2000/svg">
  <path d="M210.661 96.9809H210.655C202.264 96.9809 195.467 104.501 195.467 113.785V190.603C195.467 199.881 202.264 207.401 210.655 207.401C219.042 207.395 225.839 199.875 225.839 190.591V113.773C225.839 104.489 219.036 96.9689 210.65 96.9689L210.661 96.9809Z" fill="#05FF69" />
  <path d="M15.3788 96.9833H15.3734C6.98171 96.9833 0.184814 104.503 0.184814 113.787V190.605C0.184814 199.883 6.98171 207.403 15.3734 207.403C23.7597 207.397 30.5566 199.877 30.5566 190.593V113.775C30.5566 104.491 23.7543 96.9712 15.368 96.9712L15.3788 96.9833Z" fill="#05FF69" />
  <path d="M41.4165 96.9809V212.208C41.4165 222.812 49.1844 231.407 58.7749 231.407H69.6239V272.216C69.6239 281.494 76.4208 289.014 84.8125 289.014C93.1988 289.008 99.9957 281.488 99.9957 272.204V231.395H126.033V272.204C126.033 281.482 132.83 289.002 141.222 289.002C149.608 288.996 156.405 281.476 156.405 272.192V231.383H167.254L167.249 231.382C176.834 231.382 184.607 222.782 184.607 212.177V96.9503L41.4165 96.9809Z" fill="#05FF69" />
  <path d="M182.573 72.9753C178.114 55.3971 167.493 40.3816 153.161 30.5033C152.358 29.9512 151.545 29.411 150.72 28.8949C149.896 28.3728 149.066 27.8627 148.236 27.3646L150.991 21.9153L159.611 4.71524V4.70924C160.219 3.48495 159.823 1.94859 158.721 1.27043C158.716 1.26443 158.716 1.26443 158.711 1.26443C158.374 1.05438 158.005 0.946353 157.626 0.940351L157.62 0.939751C156.785 0.933749 156.02 1.43187 155.619 2.24206L144.129 25.1674C143.262 24.7413 142.383 24.3392 141.493 23.9672C140.604 23.5951 139.714 23.205 138.808 22.8509L138.803 22.8449C122.122 16.3514 103.945 16.3514 87.2699 22.8449C86.364 23.199 85.4689 23.5711 84.5847 23.9612C83.6951 24.3572 82.8164 24.7593 81.9484 25.1614L70.4594 2.26606L70.4539 2.26006C69.8138 1.04778 68.4089 0.645682 67.3186 1.35385C66.2608 2.03201 65.8811 3.51436 66.4452 4.70864L75.0214 21.8727L77.777 27.3219C76.9308 27.8081 76.1008 28.3122 75.2817 28.8283C74.4572 29.3444 73.649 29.8845 72.8516 30.4607C58.5309 40.339 47.8989 55.3545 43.4508 72.9147H43.4453C42.214 77.5958 41.5359 82.4389 41.4274 87.318H184.558L184.553 87.312C184.439 82.4389 183.761 77.6018 182.53 72.9207L182.573 72.9753ZM80.4729 63.3731L80.4676 63.3724C76.8711 63.3664 73.9582 60.1437 73.9582 56.1707C73.9582 52.1918 76.8711 48.969 80.4676 48.969C84.0586 48.969 86.977 52.1918 86.977 56.1707V56.1647C86.977 60.1376 84.0586 63.3664 80.4676 63.3664L80.4729 63.3731ZM145.567 63.3731L145.562 63.3724C141.965 63.3664 139.052 60.1437 139.052 56.1707C139.052 52.1918 141.965 48.969 145.562 48.969C149.153 48.969 152.071 52.1918 152.071 56.1707V56.1647C152.071 60.1376 149.153 63.3664 145.562 63.3664L145.567 63.3731Z" fill="#05FF69" />
</svg>