<svg width="40" height="18" viewBox="0 0 40 18" fill="none" xmlns="http://www.w3.org/2000/svg">
  <path opacity="0.5" fill-rule="evenodd" clip-rule="evenodd" d="M7.39442 2.86166C6.92833 3.41887 6.18258 3.85836 5.43684 3.79557C5.34362 3.04217 5.70872 2.24167 6.13597 1.74725C6.60206 1.17435 7.41772 0.766255 8.07802 0.734863C8.1557 1.51966 7.85274 2.28876 7.39442 2.86166ZM8.07022 3.94455C7.41323 3.90635 6.81376 4.14416 6.32955 4.33625C6.01795 4.45986 5.75408 4.56454 5.55333 4.56454C5.32805 4.56454 5.05329 4.45427 4.74479 4.33045C4.34056 4.16822 3.87841 3.98274 3.39378 3.99164C2.28293 4.00733 1.24976 4.64302 0.682682 5.65541C-0.482545 7.68019 0.379723 10.6781 1.50611 12.3262C2.05765 13.1424 2.71794 14.037 3.58798 14.0056C3.97074 13.9911 4.24608 13.873 4.53103 13.7509C4.85908 13.6102 5.19988 13.4641 5.732 13.4641C6.24567 13.4641 6.57156 13.6064 6.88439 13.743C7.18185 13.8729 7.4675 13.9976 7.89155 13.99C8.79266 13.9743 9.35974 13.1738 9.91128 12.3576C10.5065 11.4816 10.768 10.6267 10.8077 10.4969L10.8124 10.4819C10.8114 10.481 10.8041 10.4775 10.7911 10.4715C10.5921 10.3795 9.07136 9.67616 9.05678 7.79006C9.04213 6.20695 10.263 5.40485 10.4552 5.27858C10.4669 5.27089 10.4748 5.26571 10.4784 5.26301C9.70154 4.10151 8.4897 3.97594 8.07022 3.94455ZM14.308 13.9037V1.66875H18.8524C21.1984 1.66875 22.8375 3.30113 22.8375 5.68692C22.8375 8.0727 21.1673 9.72078 18.7903 9.72078H16.1879V13.9037H14.308ZM16.188 3.26968H18.3553C19.9866 3.26968 20.9188 4.14865 20.9188 5.6947C20.9188 7.24075 19.9866 8.12757 18.3475 8.12757H16.188V3.26968ZM29.0443 12.4362C28.5471 13.3937 27.4518 13.998 26.271 13.998C24.5232 13.998 23.3036 12.9464 23.3036 11.3611C23.3036 9.79148 24.4844 8.88896 26.6672 8.75555L29.0132 8.61428V7.93936C29.0132 6.94267 28.3685 6.40116 27.2188 6.40116C26.271 6.40116 25.5797 6.89558 25.4398 7.64898H23.7464C23.8008 6.06369 25.2767 4.91004 27.2731 4.91004C29.4249 4.91004 30.8232 6.048 30.8232 7.81379V13.9038H29.0831V12.4362H29.0443ZM26.7759 12.5461C25.7738 12.5461 25.1369 12.0595 25.1369 11.314C25.1369 10.5449 25.7505 10.0976 26.9235 10.0269L29.0132 9.89351V10.5841C29.0132 11.7299 28.0499 12.5461 26.7759 12.5461ZM36.5949 14.3825C35.8414 16.525 34.9792 17.2313 33.1459 17.2313C33.006 17.2313 32.5399 17.2156 32.4312 17.1842V15.7167C32.5477 15.7324 32.8351 15.748 32.9827 15.748C33.8139 15.748 34.28 15.3949 34.5674 14.4767L34.7383 13.9352L31.5534 5.02772H33.5187L35.7327 12.2557H35.7715L37.9854 5.02772H39.8964L36.5949 14.3825Z" fill="#FCFCFC" />
</svg>