<svg width="375" height="246" viewBox="0 0 375 246" fill="none" xmlns="http://www.w3.org/2000/svg">
  <g filter="url(#filter0_d_264_1508)">
    <path fill-rule="evenodd" clip-rule="evenodd" d="M287.842 188.912C285.579 190.975 282.642 192.22 279.434 192.22C272.274 192.22 266.471 186.02 266.471 178.373C266.471 170.725 272.274 164.526 279.434 164.526C282.642 164.526 285.579 165.771 287.842 167.834C290.106 165.771 293.042 164.526 296.251 164.526C303.41 164.526 309.214 170.725 309.214 178.373C309.214 186.02 303.41 192.22 296.251 192.22C293.042 192.22 290.106 190.975 287.842 188.912Z" fill="#FF0007" />
    <path fill-rule="evenodd" clip-rule="evenodd" d="M287.842 188.912C290.629 186.372 292.397 182.593 292.397 178.373C292.397 174.152 290.629 170.373 287.842 167.833C290.106 165.771 293.042 164.526 296.25 164.526C303.41 164.526 309.213 170.725 309.213 178.373C309.213 186.02 303.41 192.22 296.25 192.22C293.042 192.22 290.106 190.975 287.842 188.912Z" fill="#F9A000" />
    <path fill-rule="evenodd" clip-rule="evenodd" d="M287.842 188.912C290.629 186.372 292.397 182.593 292.397 178.373C292.397 174.153 290.629 170.373 287.842 167.834C285.055 170.373 283.288 174.153 283.288 178.373C283.288 182.593 285.055 186.372 287.842 188.912Z" fill="#FF5E00" />
  </g>
  <g filter="url(#filter1_d_264_1508)">
    <path d="M286.16 111.043C289.48 115.783 289.48 121.944 286.16 126.684" stroke="#B6B6B6" stroke-width="1.5" stroke-linecap="round" stroke-linejoin="round" />
    <path d="M289.64 107.835C294.32 114.515 294.32 123.201 289.64 129.88" stroke="#B6B6B6" stroke-width="1.5" stroke-linecap="round" stroke-linejoin="round" />
    <path d="M282.51 113.115C284.95 116.587 284.95 121.117 282.51 124.59" stroke="#B6B6B6" stroke-width="1.5" stroke-linecap="round" stroke-linejoin="round" />
    <path d="M278.85 115.992C280.07 117.734 280.07 119.993 278.85 121.735" stroke="#B6B6B6" stroke-width="1.5" stroke-linecap="round" stroke-linejoin="round" />
  </g>
  <g filter="url(#filter2_bd_264_1508)">
    <rect x="34" y="0.91687" width="306" height="211.633" rx="22" fill="url(#paint0_linear_264_1508)" shape-rendering="crispEdges" />
    <rect x="34.65" y="1.56687" width="304.7" height="210.333" rx="21.35" stroke="url(#paint1_linear_264_1508)" stroke-opacity="0.63" stroke-width="1.3" shape-rendering="crispEdges" />
  </g>
  <g filter="url(#filter3_d_264_1508)">
    <path d="M64.2084 64.416C63.9884 64.416 63.8234 64.366 63.7134 64.266C63.6134 64.156 63.5634 64.011 63.5634 63.831C63.5634 63.721 63.5884 63.616 63.6384 63.516C63.6984 63.406 63.7784 63.296 63.8784 63.186L67.2384 59.586C67.7484 59.036 68.1134 58.531 68.3334 58.071C68.5634 57.601 68.6784 57.126 68.6784 56.646C68.6784 56.046 68.4934 55.591 68.1234 55.281C67.7634 54.961 67.2334 54.801 66.5334 54.801C66.0834 54.801 65.6584 54.871 65.2584 55.011C64.8584 55.151 64.4734 55.366 64.1034 55.656C63.9734 55.756 63.8534 55.801 63.7434 55.791C63.6434 55.781 63.5534 55.741 63.4734 55.671C63.3934 55.601 63.3384 55.511 63.3084 55.401C63.2784 55.291 63.2784 55.181 63.3084 55.071C63.3484 54.961 63.4284 54.861 63.5484 54.771C63.9384 54.451 64.4084 54.196 64.9584 54.006C65.5084 53.806 66.0684 53.706 66.6384 53.706C67.3484 53.706 67.9484 53.816 68.4384 54.036C68.9284 54.256 69.2984 54.581 69.5484 55.011C69.7984 55.431 69.9234 55.946 69.9234 56.556C69.9234 56.976 69.8534 57.391 69.7134 57.801C69.5834 58.201 69.3784 58.611 69.0984 59.031C68.8284 59.451 68.4734 59.886 68.0334 60.336L64.8384 63.711V63.366H69.8934C70.0834 63.366 70.2234 63.411 70.3134 63.501C70.4134 63.581 70.4634 63.706 70.4634 63.876C70.4634 64.056 70.4134 64.191 70.3134 64.281C70.2234 64.371 70.0834 64.416 69.8934 64.416H64.2084ZM77.0698 64.416C76.8498 64.416 76.6848 64.366 76.5748 64.266C76.4748 64.156 76.4248 64.011 76.4248 63.831C76.4248 63.721 76.4498 63.616 76.4998 63.516C76.5598 63.406 76.6398 63.296 76.7398 63.186L80.0998 59.586C80.6098 59.036 80.9748 58.531 81.1948 58.071C81.4248 57.601 81.5398 57.126 81.5398 56.646C81.5398 56.046 81.3548 55.591 80.9848 55.281C80.6248 54.961 80.0948 54.801 79.3948 54.801C78.9448 54.801 78.5198 54.871 78.1198 55.011C77.7198 55.151 77.3348 55.366 76.9648 55.656C76.8348 55.756 76.7148 55.801 76.6048 55.791C76.5048 55.781 76.4148 55.741 76.3348 55.671C76.2548 55.601 76.1998 55.511 76.1698 55.401C76.1398 55.291 76.1398 55.181 76.1698 55.071C76.2098 54.961 76.2898 54.861 76.4098 54.771C76.7998 54.451 77.2698 54.196 77.8198 54.006C78.3698 53.806 78.9298 53.706 79.4998 53.706C80.2098 53.706 80.8098 53.816 81.2998 54.036C81.7898 54.256 82.1598 54.581 82.4098 55.011C82.6598 55.431 82.7848 55.946 82.7848 56.556C82.7848 56.976 82.7148 57.391 82.5748 57.801C82.4448 58.201 82.2398 58.611 81.9598 59.031C81.6898 59.451 81.3348 59.886 80.8948 60.336L77.6998 63.711V63.366H82.7548C82.9448 63.366 83.0848 63.411 83.1748 63.501C83.2748 63.581 83.3248 63.706 83.3248 63.876C83.3248 64.056 83.2748 64.191 83.1748 64.281C83.0848 64.371 82.9448 64.416 82.7548 64.416H77.0698ZM90.3211 64.416C90.1411 64.416 90.0011 64.371 89.9011 64.281C89.8011 64.181 89.7511 64.046 89.7511 63.876C89.7511 63.706 89.8011 63.581 89.9011 63.501C90.0011 63.411 90.1411 63.366 90.3211 63.366H92.2711V54.861H92.9161L90.7411 56.301C90.6111 56.371 90.4861 56.401 90.3661 56.391C90.2561 56.381 90.1611 56.341 90.0811 56.271C90.0111 56.191 89.9611 56.101 89.9311 56.001C89.9011 55.891 89.9061 55.781 89.9461 55.671C89.9861 55.551 90.0711 55.451 90.2011 55.371L92.2711 54.006C92.4011 53.926 92.5261 53.861 92.6461 53.811C92.7661 53.761 92.8861 53.736 93.0061 53.736C93.1461 53.736 93.2611 53.781 93.3511 53.871C93.4511 53.951 93.5011 54.081 93.5011 54.261V63.366H95.3011C95.4811 63.366 95.6211 63.411 95.7211 63.501C95.8211 63.581 95.8711 63.706 95.8711 63.876C95.8711 64.056 95.8211 64.191 95.7211 64.281C95.6211 64.371 95.4811 64.416 95.3011 64.416H90.3211ZM105.237 64.551C104.657 64.551 104.072 64.466 103.482 64.296C102.902 64.126 102.397 63.876 101.967 63.546C101.837 63.456 101.752 63.356 101.712 63.246C101.672 63.126 101.662 63.016 101.682 62.916C101.712 62.806 101.767 62.716 101.847 62.646C101.927 62.566 102.022 62.521 102.132 62.511C102.252 62.501 102.382 62.541 102.522 62.631C102.962 62.921 103.402 63.131 103.842 63.261C104.282 63.391 104.737 63.456 105.207 63.456C105.717 63.456 106.147 63.381 106.497 63.231C106.847 63.081 107.112 62.861 107.292 62.571C107.472 62.271 107.562 61.906 107.562 61.476C107.562 60.856 107.357 60.386 106.947 60.066C106.537 59.746 105.942 59.586 105.162 59.586H104.097C103.907 59.586 103.762 59.541 103.662 59.451C103.562 59.351 103.512 59.216 103.512 59.046C103.512 58.886 103.562 58.761 103.662 58.671C103.762 58.571 103.907 58.521 104.097 58.521H105.057C105.517 58.521 105.907 58.441 106.227 58.281C106.557 58.121 106.812 57.896 106.992 57.606C107.172 57.306 107.262 56.946 107.262 56.526C107.262 55.966 107.082 55.541 106.722 55.251C106.362 54.951 105.842 54.801 105.162 54.801C104.712 54.801 104.287 54.866 103.887 54.996C103.487 55.126 103.092 55.346 102.702 55.656C102.582 55.746 102.462 55.791 102.342 55.791C102.232 55.781 102.137 55.746 102.057 55.686C101.987 55.616 101.932 55.526 101.892 55.416C101.862 55.306 101.867 55.196 101.907 55.086C101.947 54.966 102.032 54.856 102.162 54.756C102.562 54.416 103.032 54.156 103.572 53.976C104.112 53.796 104.667 53.706 105.237 53.706C105.917 53.706 106.497 53.816 106.977 54.036C107.467 54.246 107.842 54.556 108.102 54.966C108.362 55.366 108.492 55.851 108.492 56.421C108.492 56.851 108.407 57.246 108.237 57.606C108.077 57.956 107.847 58.256 107.547 58.506C107.257 58.756 106.902 58.936 106.482 59.046V58.881C107.212 59.001 107.777 59.301 108.177 59.781C108.587 60.251 108.792 60.846 108.792 61.566C108.792 62.176 108.647 62.706 108.357 63.156C108.077 63.596 107.672 63.941 107.142 64.191C106.612 64.431 105.977 64.551 105.237 64.551ZM131.59 64.521C131.4 64.521 131.25 64.466 131.14 64.356C131.03 64.246 130.975 64.091 130.975 63.891V62.151H126.67C126.47 62.151 126.31 62.106 126.19 62.016C126.08 61.916 126.025 61.776 126.025 61.596C126.025 61.486 126.05 61.376 126.1 61.266C126.15 61.146 126.24 60.996 126.37 60.816L130.945 54.156C131.035 54.016 131.135 53.911 131.245 53.841C131.355 53.771 131.485 53.736 131.635 53.736C131.795 53.736 131.93 53.786 132.04 53.886C132.16 53.986 132.22 54.146 132.22 54.366V61.101H133.315C133.505 61.101 133.65 61.146 133.75 61.236C133.85 61.326 133.9 61.456 133.9 61.626C133.9 61.796 133.85 61.926 133.75 62.016C133.65 62.106 133.505 62.151 133.315 62.151H132.22V63.891C132.22 64.091 132.165 64.246 132.055 64.356C131.945 64.466 131.79 64.521 131.59 64.521ZM130.975 61.101V55.281H131.335L127.135 61.431V61.101H130.975ZM142.907 64.551C142.337 64.551 141.767 64.466 141.197 64.296C140.637 64.126 140.127 63.861 139.667 63.501C139.547 63.421 139.467 63.326 139.427 63.216C139.387 63.106 139.382 62.996 139.412 62.886C139.442 62.776 139.497 62.686 139.577 62.616C139.657 62.536 139.752 62.491 139.862 62.481C139.982 62.471 140.107 62.511 140.237 62.601C140.647 62.891 141.072 63.106 141.512 63.246C141.952 63.386 142.412 63.456 142.892 63.456C143.382 63.456 143.802 63.366 144.152 63.186C144.512 62.996 144.782 62.736 144.962 62.406C145.152 62.066 145.247 61.671 145.247 61.221C145.247 60.531 145.047 59.966 144.647 59.526C144.247 59.086 143.697 58.866 142.997 58.866C142.567 58.866 142.172 58.946 141.812 59.106C141.452 59.266 141.122 59.521 140.822 59.871C140.752 59.951 140.667 60.021 140.567 60.081C140.477 60.131 140.372 60.156 140.252 60.156C140.082 60.156 139.947 60.111 139.847 60.021C139.757 59.921 139.712 59.791 139.712 59.631V54.411C139.712 54.221 139.762 54.081 139.862 53.991C139.962 53.891 140.102 53.841 140.282 53.841H145.382C145.572 53.841 145.712 53.886 145.802 53.976C145.902 54.066 145.952 54.196 145.952 54.366C145.952 54.536 145.902 54.666 145.802 54.756C145.712 54.846 145.572 54.891 145.382 54.891H140.927V59.106H140.597C140.857 58.686 141.217 58.366 141.677 58.146C142.137 57.916 142.652 57.801 143.222 57.801C143.892 57.801 144.467 57.941 144.947 58.221C145.437 58.501 145.812 58.896 146.072 59.406C146.342 59.906 146.477 60.491 146.477 61.161C146.477 61.821 146.332 62.406 146.042 62.916C145.752 63.426 145.342 63.826 144.812 64.116C144.282 64.406 143.647 64.551 142.907 64.551ZM155.903 64.551C155.073 64.551 154.363 64.351 153.773 63.951C153.193 63.541 152.753 62.951 152.453 62.181C152.153 61.411 152.003 60.481 152.003 59.391C152.003 58.471 152.098 57.661 152.288 56.961C152.478 56.261 152.758 55.671 153.128 55.191C153.498 54.701 153.948 54.331 154.478 54.081C155.008 53.831 155.608 53.706 156.278 53.706C156.738 53.706 157.208 53.796 157.688 53.976C158.178 54.156 158.608 54.411 158.978 54.741C159.088 54.821 159.153 54.921 159.173 55.041C159.203 55.151 159.203 55.261 159.173 55.371C159.143 55.471 159.088 55.556 159.008 55.626C158.938 55.696 158.848 55.736 158.738 55.746C158.628 55.746 158.513 55.701 158.393 55.611C158.053 55.321 157.703 55.116 157.343 54.996C156.983 54.866 156.618 54.801 156.248 54.801C155.598 54.801 155.043 54.961 154.583 55.281C154.133 55.601 153.788 56.086 153.548 56.736C153.318 57.376 153.203 58.181 153.203 59.151V60.546H153.068C153.128 59.976 153.293 59.486 153.563 59.076C153.843 58.656 154.198 58.336 154.628 58.116C155.058 57.896 155.543 57.786 156.083 57.786C156.703 57.786 157.253 57.926 157.733 58.206C158.213 58.486 158.588 58.881 158.858 59.391C159.128 59.891 159.263 60.466 159.263 61.116C159.263 61.776 159.123 62.366 158.843 62.886C158.563 63.406 158.168 63.816 157.658 64.116C157.148 64.406 156.563 64.551 155.903 64.551ZM155.828 63.501C156.268 63.501 156.658 63.406 156.998 63.216C157.338 63.016 157.603 62.741 157.793 62.391C157.983 62.031 158.078 61.621 158.078 61.161C158.078 60.701 157.983 60.296 157.793 59.946C157.603 59.596 157.338 59.321 156.998 59.121C156.658 58.921 156.268 58.821 155.828 58.821C155.388 58.821 154.998 58.921 154.658 59.121C154.318 59.321 154.053 59.596 153.863 59.946C153.673 60.296 153.578 60.701 153.578 61.161C153.578 61.621 153.673 62.031 153.863 62.391C154.053 62.741 154.318 63.016 154.658 63.216C154.998 63.406 155.388 63.501 155.828 63.501ZM168.284 64.551C167.704 64.551 167.119 64.466 166.529 64.296C165.949 64.126 165.444 63.876 165.014 63.546C164.884 63.456 164.799 63.356 164.759 63.246C164.719 63.126 164.709 63.016 164.729 62.916C164.759 62.806 164.814 62.716 164.894 62.646C164.974 62.566 165.069 62.521 165.179 62.511C165.299 62.501 165.429 62.541 165.569 62.631C166.009 62.921 166.449 63.131 166.889 63.261C167.329 63.391 167.784 63.456 168.254 63.456C168.764 63.456 169.194 63.381 169.544 63.231C169.894 63.081 170.159 62.861 170.339 62.571C170.519 62.271 170.609 61.906 170.609 61.476C170.609 60.856 170.404 60.386 169.994 60.066C169.584 59.746 168.989 59.586 168.209 59.586H167.144C166.954 59.586 166.809 59.541 166.709 59.451C166.609 59.351 166.559 59.216 166.559 59.046C166.559 58.886 166.609 58.761 166.709 58.671C166.809 58.571 166.954 58.521 167.144 58.521H168.104C168.564 58.521 168.954 58.441 169.274 58.281C169.604 58.121 169.859 57.896 170.039 57.606C170.219 57.306 170.309 56.946 170.309 56.526C170.309 55.966 170.129 55.541 169.769 55.251C169.409 54.951 168.889 54.801 168.209 54.801C167.759 54.801 167.334 54.866 166.934 54.996C166.534 55.126 166.139 55.346 165.749 55.656C165.629 55.746 165.509 55.791 165.389 55.791C165.279 55.781 165.184 55.746 165.104 55.686C165.034 55.616 164.979 55.526 164.939 55.416C164.909 55.306 164.914 55.196 164.954 55.086C164.994 54.966 165.079 54.856 165.209 54.756C165.609 54.416 166.079 54.156 166.619 53.976C167.159 53.796 167.714 53.706 168.284 53.706C168.964 53.706 169.544 53.816 170.024 54.036C170.514 54.246 170.889 54.556 171.149 54.966C171.409 55.366 171.539 55.851 171.539 56.421C171.539 56.851 171.454 57.246 171.284 57.606C171.124 57.956 170.894 58.256 170.594 58.506C170.304 58.756 169.949 58.936 169.529 59.046V58.881C170.259 59.001 170.824 59.301 171.224 59.781C171.634 60.251 171.839 60.846 171.839 61.566C171.839 62.176 171.694 62.706 171.404 63.156C171.124 63.596 170.719 63.941 170.189 64.191C169.659 64.431 169.024 64.551 168.284 64.551ZM193.227 64.551C192.397 64.551 191.687 64.351 191.097 63.951C190.517 63.541 190.077 62.951 189.777 62.181C189.477 61.411 189.327 60.481 189.327 59.391C189.327 58.471 189.422 57.661 189.612 56.961C189.802 56.261 190.082 55.671 190.452 55.191C190.822 54.701 191.272 54.331 191.802 54.081C192.332 53.831 192.932 53.706 193.602 53.706C194.062 53.706 194.532 53.796 195.012 53.976C195.502 54.156 195.932 54.411 196.302 54.741C196.412 54.821 196.477 54.921 196.497 55.041C196.527 55.151 196.527 55.261 196.497 55.371C196.467 55.471 196.412 55.556 196.332 55.626C196.262 55.696 196.172 55.736 196.062 55.746C195.952 55.746 195.837 55.701 195.717 55.611C195.377 55.321 195.027 55.116 194.667 54.996C194.307 54.866 193.942 54.801 193.572 54.801C192.922 54.801 192.367 54.961 191.907 55.281C191.457 55.601 191.112 56.086 190.872 56.736C190.642 57.376 190.527 58.181 190.527 59.151V60.546H190.392C190.452 59.976 190.617 59.486 190.887 59.076C191.167 58.656 191.522 58.336 191.952 58.116C192.382 57.896 192.867 57.786 193.407 57.786C194.027 57.786 194.577 57.926 195.057 58.206C195.537 58.486 195.912 58.881 196.182 59.391C196.452 59.891 196.587 60.466 196.587 61.116C196.587 61.776 196.447 62.366 196.167 62.886C195.887 63.406 195.492 63.816 194.982 64.116C194.472 64.406 193.887 64.551 193.227 64.551ZM193.152 63.501C193.592 63.501 193.982 63.406 194.322 63.216C194.662 63.016 194.927 62.741 195.117 62.391C195.307 62.031 195.402 61.621 195.402 61.161C195.402 60.701 195.307 60.296 195.117 59.946C194.927 59.596 194.662 59.321 194.322 59.121C193.982 58.921 193.592 58.821 193.152 58.821C192.712 58.821 192.322 58.921 191.982 59.121C191.642 59.321 191.377 59.596 191.187 59.946C190.997 60.296 190.902 60.701 190.902 61.161C190.902 61.621 190.997 62.031 191.187 62.391C191.377 62.741 191.642 63.016 191.982 63.216C192.322 63.406 192.712 63.501 193.152 63.501ZM203.749 64.521C203.609 64.521 203.489 64.486 203.389 64.416C203.289 64.346 203.224 64.251 203.194 64.131C203.174 64.001 203.204 63.861 203.284 63.711L208.099 54.366V54.906H202.699C202.519 54.906 202.379 54.861 202.279 54.771C202.179 54.671 202.129 54.536 202.129 54.366C202.129 54.196 202.179 54.066 202.279 53.976C202.379 53.886 202.519 53.841 202.699 53.841H208.654C208.834 53.841 208.979 53.886 209.089 53.976C209.199 54.066 209.254 54.196 209.254 54.366C209.254 54.506 209.234 54.631 209.194 54.741C209.164 54.841 209.119 54.956 209.059 55.086L204.439 64.101C204.369 64.241 204.279 64.346 204.169 64.416C204.059 64.486 203.919 64.521 203.749 64.521ZM218.59 64.551C217.8 64.551 217.12 64.436 216.55 64.206C215.99 63.976 215.56 63.641 215.26 63.201C214.97 62.761 214.825 62.231 214.825 61.611C214.825 61.121 214.925 60.686 215.125 60.306C215.325 59.916 215.605 59.601 215.965 59.361C216.325 59.121 216.74 58.971 217.21 58.911V59.136C216.56 58.996 216.04 58.691 215.65 58.221C215.27 57.741 215.08 57.176 215.08 56.526C215.08 55.926 215.22 55.421 215.5 55.011C215.79 54.591 216.2 54.271 216.73 54.051C217.26 53.821 217.88 53.706 218.59 53.706C219.31 53.706 219.93 53.821 220.45 54.051C220.98 54.271 221.39 54.591 221.68 55.011C221.97 55.421 222.115 55.926 222.115 56.526C222.115 56.956 222.025 57.356 221.845 57.726C221.675 58.086 221.43 58.386 221.11 58.626C220.79 58.866 220.415 59.031 219.985 59.121V58.911C220.695 59.011 221.265 59.306 221.695 59.796C222.135 60.276 222.355 60.881 222.355 61.611C222.355 62.231 222.205 62.761 221.905 63.201C221.615 63.641 221.185 63.976 220.615 64.206C220.055 64.436 219.38 64.551 218.59 64.551ZM218.59 63.531C219.44 63.531 220.08 63.366 220.51 63.036C220.95 62.706 221.17 62.206 221.17 61.536C221.17 60.876 220.95 60.386 220.51 60.066C220.08 59.736 219.44 59.571 218.59 59.571C217.75 59.571 217.11 59.736 216.67 60.066C216.23 60.386 216.01 60.876 216.01 61.536C216.01 62.206 216.23 62.706 216.67 63.036C217.11 63.366 217.75 63.531 218.59 63.531ZM218.59 58.551C219.08 58.551 219.495 58.476 219.835 58.326C220.185 58.166 220.455 57.941 220.645 57.651C220.835 57.361 220.93 57.021 220.93 56.631C220.93 56.031 220.72 55.566 220.3 55.236C219.89 54.896 219.32 54.726 218.59 54.726C217.86 54.726 217.29 54.896 216.88 55.236C216.47 55.566 216.265 56.031 216.265 56.631C216.265 57.231 216.47 57.701 216.88 58.041C217.29 58.381 217.86 58.551 218.59 58.551ZM230.716 64.551C230.266 64.551 229.796 64.461 229.306 64.281C228.816 64.101 228.386 63.841 228.016 63.501C227.906 63.421 227.836 63.326 227.806 63.216C227.786 63.106 227.791 63.001 227.821 62.901C227.851 62.791 227.901 62.701 227.971 62.631C228.051 62.551 228.146 62.511 228.256 62.511C228.366 62.501 228.481 62.541 228.601 62.631C228.941 62.921 229.291 63.131 229.651 63.261C230.011 63.391 230.376 63.456 230.746 63.456C231.396 63.456 231.946 63.296 232.396 62.976C232.856 62.656 233.201 62.171 233.431 61.521C233.671 60.871 233.791 60.066 233.791 59.106V57.711H233.926C233.866 58.271 233.696 58.761 233.416 59.181C233.146 59.601 232.796 59.921 232.366 60.141C231.936 60.361 231.451 60.471 230.911 60.471C230.291 60.471 229.741 60.331 229.261 60.051C228.781 59.771 228.406 59.376 228.136 58.866C227.866 58.356 227.731 57.781 227.731 57.141C227.731 56.471 227.871 55.881 228.151 55.371C228.441 54.851 228.836 54.446 229.336 54.156C229.846 53.856 230.431 53.706 231.091 53.706C231.921 53.706 232.626 53.911 233.206 54.321C233.796 54.721 234.241 55.306 234.541 56.076C234.841 56.846 234.991 57.776 234.991 58.866C234.991 59.786 234.896 60.596 234.706 61.296C234.516 61.996 234.236 62.591 233.866 63.081C233.496 63.561 233.046 63.926 232.516 64.176C231.986 64.426 231.386 64.551 230.716 64.551ZM231.166 59.436C231.616 59.436 232.011 59.336 232.351 59.136C232.691 58.936 232.956 58.661 233.146 58.311C233.336 57.951 233.431 57.541 233.431 57.081C233.431 56.621 233.336 56.216 233.146 55.866C232.956 55.516 232.691 55.241 232.351 55.041C232.011 54.841 231.616 54.741 231.166 54.741C230.726 54.741 230.336 54.841 229.996 55.041C229.666 55.241 229.401 55.516 229.201 55.866C229.011 56.216 228.916 56.621 228.916 57.081C228.916 57.541 229.011 57.951 229.201 58.311C229.401 58.661 229.666 58.936 229.996 59.136C230.336 59.336 230.726 59.436 231.166 59.436ZM264.008 64.551C263.178 64.551 262.468 64.351 261.878 63.951C261.298 63.541 260.858 62.951 260.558 62.181C260.258 61.411 260.108 60.481 260.108 59.391C260.108 58.471 260.203 57.661 260.393 56.961C260.583 56.261 260.863 55.671 261.233 55.191C261.603 54.701 262.053 54.331 262.583 54.081C263.113 53.831 263.713 53.706 264.383 53.706C264.843 53.706 265.313 53.796 265.793 53.976C266.283 54.156 266.713 54.411 267.083 54.741C267.193 54.821 267.258 54.921 267.278 55.041C267.308 55.151 267.308 55.261 267.278 55.371C267.248 55.471 267.193 55.556 267.113 55.626C267.043 55.696 266.953 55.736 266.843 55.746C266.733 55.746 266.618 55.701 266.498 55.611C266.158 55.321 265.808 55.116 265.448 54.996C265.088 54.866 264.723 54.801 264.353 54.801C263.703 54.801 263.148 54.961 262.688 55.281C262.238 55.601 261.893 56.086 261.653 56.736C261.423 57.376 261.308 58.181 261.308 59.151V60.546H261.173C261.233 59.976 261.398 59.486 261.668 59.076C261.948 58.656 262.303 58.336 262.733 58.116C263.163 57.896 263.648 57.786 264.188 57.786C264.808 57.786 265.358 57.926 265.838 58.206C266.318 58.486 266.693 58.881 266.963 59.391C267.233 59.891 267.368 60.466 267.368 61.116C267.368 61.776 267.228 62.366 266.948 62.886C266.668 63.406 266.273 63.816 265.763 64.116C265.253 64.406 264.668 64.551 264.008 64.551ZM263.933 63.501C264.373 63.501 264.763 63.406 265.103 63.216C265.443 63.016 265.708 62.741 265.898 62.391C266.088 62.031 266.183 61.621 266.183 61.161C266.183 60.701 266.088 60.296 265.898 59.946C265.708 59.596 265.443 59.321 265.103 59.121C264.763 58.921 264.373 58.821 263.933 58.821C263.493 58.821 263.103 58.921 262.763 59.121C262.423 59.321 262.158 59.596 261.968 59.946C261.778 60.296 261.683 60.701 261.683 61.161C261.683 61.621 261.778 62.031 261.968 62.391C262.158 62.741 262.423 63.016 262.763 63.216C263.103 63.406 263.493 63.501 263.933 63.501ZM278.28 64.521C278.09 64.521 277.94 64.466 277.83 64.356C277.72 64.246 277.665 64.091 277.665 63.891V62.151H273.36C273.16 62.151 273 62.106 272.88 62.016C272.77 61.916 272.715 61.776 272.715 61.596C272.715 61.486 272.74 61.376 272.79 61.266C272.84 61.146 272.93 60.996 273.06 60.816L277.635 54.156C277.725 54.016 277.825 53.911 277.935 53.841C278.045 53.771 278.175 53.736 278.325 53.736C278.485 53.736 278.62 53.786 278.73 53.886C278.85 53.986 278.91 54.146 278.91 54.366V61.101H280.005C280.195 61.101 280.34 61.146 280.44 61.236C280.54 61.326 280.59 61.456 280.59 61.626C280.59 61.796 280.54 61.926 280.44 62.016C280.34 62.106 280.195 62.151 280.005 62.151H278.91V63.891C278.91 64.091 278.855 64.246 278.745 64.356C278.635 64.466 278.48 64.521 278.28 64.521ZM277.665 61.101V55.281H278.025L273.825 61.431V61.101H277.665ZM289.596 64.551C289.026 64.551 288.456 64.466 287.886 64.296C287.326 64.126 286.816 63.861 286.356 63.501C286.236 63.421 286.156 63.326 286.116 63.216C286.076 63.106 286.071 62.996 286.101 62.886C286.131 62.776 286.186 62.686 286.266 62.616C286.346 62.536 286.441 62.491 286.551 62.481C286.671 62.471 286.796 62.511 286.926 62.601C287.336 62.891 287.761 63.106 288.201 63.246C288.641 63.386 289.101 63.456 289.581 63.456C290.071 63.456 290.491 63.366 290.841 63.186C291.201 62.996 291.471 62.736 291.651 62.406C291.841 62.066 291.936 61.671 291.936 61.221C291.936 60.531 291.736 59.966 291.336 59.526C290.936 59.086 290.386 58.866 289.686 58.866C289.256 58.866 288.861 58.946 288.501 59.106C288.141 59.266 287.811 59.521 287.511 59.871C287.441 59.951 287.356 60.021 287.256 60.081C287.166 60.131 287.061 60.156 286.941 60.156C286.771 60.156 286.636 60.111 286.536 60.021C286.446 59.921 286.401 59.791 286.401 59.631V54.411C286.401 54.221 286.451 54.081 286.551 53.991C286.651 53.891 286.791 53.841 286.971 53.841H292.071C292.261 53.841 292.401 53.886 292.491 53.976C292.591 54.066 292.641 54.196 292.641 54.366C292.641 54.536 292.591 54.666 292.491 54.756C292.401 54.846 292.261 54.891 292.071 54.891H287.616V59.106H287.286C287.546 58.686 287.906 58.366 288.366 58.146C288.826 57.916 289.341 57.801 289.911 57.801C290.581 57.801 291.156 57.941 291.636 58.221C292.126 58.501 292.501 58.896 292.761 59.406C293.031 59.906 293.166 60.491 293.166 61.161C293.166 61.821 293.021 62.406 292.731 62.916C292.441 63.426 292.031 63.826 291.501 64.116C290.971 64.406 290.336 64.551 289.596 64.551ZM300.252 64.521C300.112 64.521 299.992 64.486 299.892 64.416C299.792 64.346 299.727 64.251 299.697 64.131C299.677 64.001 299.707 63.861 299.787 63.711L304.602 54.366V54.906H299.202C299.022 54.906 298.882 54.861 298.782 54.771C298.682 54.671 298.632 54.536 298.632 54.366C298.632 54.196 298.682 54.066 298.782 53.976C298.882 53.886 299.022 53.841 299.202 53.841H305.157C305.337 53.841 305.482 53.886 305.592 53.976C305.702 54.066 305.757 54.196 305.757 54.366C305.757 54.506 305.737 54.631 305.697 54.741C305.667 54.841 305.622 54.956 305.562 55.086L300.942 64.101C300.872 64.241 300.782 64.346 300.672 64.416C300.562 64.486 300.422 64.521 300.252 64.521Z" fill="#D5D5D5" fill-opacity="0.8" shape-rendering="crispEdges" />
  </g>
  <g opacity="0.8">
    <g opacity="0.9" filter="url(#filter4_d_264_1508)">
      <rect x="67.25" y="105.472" width="31.5" height="23.881" rx="3.75" fill="url(#paint2_linear_264_1508)" stroke="#9F7E3B" stroke-width="0.5" />
      <path d="M67.5 112.722H76C77.1046 112.722 78 113.617 78 114.722V118.597M78 129.122V124.472M78 124.472V118.597M78 124.472H67.5M78 118.597H67.5" stroke="black" stroke-opacity="0.76" stroke-width="0.5" />
      <path d="M98.5 112.722H88.5M88.5 112.722V118.597M88.5 112.722V105.722M88.5 129.122V124.472M88.5 124.472V118.597M88.5 124.472H98.5M88.5 118.597H98.5" stroke="black" stroke-opacity="0.76" stroke-width="0.5" />
    </g>
  </g>
  <defs>
    <filter id="filter0_d_264_1508" x="251" y="154.13" width="73" height="57.6014" filterUnits="userSpaceOnUse" color-interpolation-filters="sRGB">
      <feFlood flood-opacity="0" result="BackgroundImageFix" />
      <feColorMatrix in="SourceAlpha" type="matrix" values="0 0 0 0 0 0 0 0 0 0 0 0 0 0 0 0 0 0 127 0" result="hardAlpha" />
      <feOffset dy="4" />
      <feGaussianBlur stdDeviation="2" />
      <feComposite in2="hardAlpha" operator="out" />
      <feColorMatrix type="matrix" values="0 0 0 0 0 0 0 0 0 0 0 0 0 0 0 0 0 0 0.25 0" />
      <feBlend mode="normal" in2="BackgroundImageFix" result="effect1_dropShadow_264_1508" />
      <feBlend mode="normal" in="SourceGraphic" in2="effect1_dropShadow_264_1508" result="shape" />
    </filter>
    <filter id="filter1_d_264_1508" x="270" y="105.631" width="32" height="34.4541" filterUnits="userSpaceOnUse" color-interpolation-filters="sRGB">
      <feFlood flood-opacity="0" result="BackgroundImageFix" />
      <feColorMatrix in="SourceAlpha" type="matrix" values="0 0 0 0 0 0 0 0 0 0 0 0 0 0 0 0 0 0 127 0" result="hardAlpha" />
      <feOffset dy="4" />
      <feGaussianBlur stdDeviation="2" />
      <feComposite in2="hardAlpha" operator="out" />
      <feColorMatrix type="matrix" values="0 0 0 0 0 0 0 0 0 0 0 0 0 0 0 0 0 0 0.25 0" />
      <feBlend mode="normal" in2="BackgroundImageFix" result="effect1_dropShadow_264_1508" />
      <feBlend mode="normal" in="SourceGraphic" in2="effect1_dropShadow_264_1508" result="shape" />
    </filter>
    <filter id="filter2_bd_264_1508" x="-6" y="-39.0831" width="386" height="291.633" filterUnits="userSpaceOnUse" color-interpolation-filters="sRGB">
      <feFlood flood-opacity="0" result="BackgroundImageFix" />
      <feGaussianBlur in="BackgroundImageFix" stdDeviation="20" />
      <feComposite in2="SourceAlpha" operator="in" result="effect1_backgroundBlur_264_1508" />
      <feColorMatrix in="SourceAlpha" type="matrix" values="0 0 0 0 0 0 0 0 0 0 0 0 0 0 0 0 0 0 127 0" result="hardAlpha" />
      <feMorphology radius="5" operator="erode" in="SourceAlpha" result="effect2_dropShadow_264_1508" />
      <feOffset dx="21" dy="19" />
      <feGaussianBlur stdDeviation="9.5" />
      <feComposite in2="hardAlpha" operator="out" />
      <feColorMatrix type="matrix" values="0 0 0 0 0 0 0 0 0 0 0 0 0 0 0 0 0 0 0.25 0" />
      <feBlend mode="normal" in2="effect1_backgroundBlur_264_1508" result="effect2_dropShadow_264_1508" />
      <feBlend mode="normal" in="SourceGraphic" in2="effect2_dropShadow_264_1508" result="shape" />
    </filter>
    <filter id="filter3_d_264_1508" x="58.2634" y="53.7061" width="250.494" height="19.845" filterUnits="userSpaceOnUse" color-interpolation-filters="sRGB">
      <feFlood flood-opacity="0" result="BackgroundImageFix" />
      <feColorMatrix in="SourceAlpha" type="matrix" values="0 0 0 0 0 0 0 0 0 0 0 0 0 0 0 0 0 0 127 0" result="hardAlpha" />
      <feOffset dx="-1" dy="5" />
      <feGaussianBlur stdDeviation="2" />
      <feComposite in2="hardAlpha" operator="out" />
      <feColorMatrix type="matrix" values="0 0 0 0 0 0 0 0 0 0 0 0 0 0 0 0 0 0 0.5 0" />
      <feBlend mode="normal" in2="BackgroundImageFix" result="effect1_dropShadow_264_1508" />
      <feBlend mode="normal" in="SourceGraphic" in2="effect1_dropShadow_264_1508" result="shape" />
    </filter>
    <filter id="filter4_d_264_1508" x="63" y="101.222" width="40" height="42" filterUnits="userSpaceOnUse" color-interpolation-filters="sRGB">
      <feFlood flood-opacity="0" result="BackgroundImageFix" />
      <feColorMatrix in="SourceAlpha" type="matrix" values="0 0 0 0 0 0 0 0 0 0 0 0 0 0 0 0 0 0 127 0" result="hardAlpha" />
      <feOffset dy="6" />
      <feGaussianBlur stdDeviation="2" />
      <feComposite in2="hardAlpha" operator="out" />
      <feColorMatrix type="matrix" values="0 0 0 0 0 0 0 0 0 0 0 0 0 0 0 0 0 0 0.25 0" />
      <feBlend mode="normal" in2="BackgroundImageFix" result="effect1_dropShadow_264_1508" />
      <feBlend mode="normal" in="SourceGraphic" in2="effect1_dropShadow_264_1508" result="shape" />
    </filter>
    <linearGradient id="paint0_linear_264_1508" x1="-78.7647" y1="-174.599" x2="445.985" y2="174.708" gradientUnits="userSpaceOnUse">
      <stop stop-color="white" stop-opacity="0.39" />
      <stop offset="0.674014" stop-color="white" stop-opacity="0" />
      <stop offset="0.893994" stop-color="#C4C4C4" stop-opacity="0" />
    </linearGradient>
    <linearGradient id="paint1_linear_264_1508" x1="539" y1="257.742" x2="48.8649" y2="353.924" gradientUnits="userSpaceOnUse">
      <stop offset="0.633333" stop-color="#7F7F7F" stop-opacity="0.23" />
      <stop offset="0.773958" stop-color="#5C5C5C" />
    </linearGradient>
    <linearGradient id="paint2_linear_264_1508" x1="67" y1="105.222" x2="99" y2="129.722" gradientUnits="userSpaceOnUse">
      <stop stop-color="#E6AC3C" />
      <stop offset="1" stop-color="#FFDA93" />
    </linearGradient>
  </defs>
</svg>