<svg width="446" height="267" viewBox="0 0 446 267" fill="none" xmlns="http://www.w3.org/2000/svg">
  <g filter="url(#filter0_b_264_1398)">
    <rect y="267" width="266.358" height="445.388" rx="35" transform="rotate(-90 0 267)" fill="white" fill-opacity="0.2" />
    <rect x="0.5" y="266.5" width="265.358" height="444.388" rx="34.5" transform="rotate(-90 0.5 266.5)" stroke="url(#paint0_radial_264_1398)" />
  </g>
  <path d="M386.935 133.841C386.897 128.734 386.036 123.787 384.372 118.991C383.591 116.744 382.648 114.564 381.471 112.5C380.406 110.635 381.199 108.754 383.244 108.253C384.031 108.06 385.261 108.538 385.677 109.335C386.579 111.058 387.472 112.792 388.259 114.574C389.623 117.659 390.572 120.894 391.172 124.223C391.525 126.191 391.724 128.194 391.924 130.188C392.055 131.494 392.137 132.817 392.115 134.127C392.058 137.038 391.834 139.94 391.303 142.81C390.713 145.998 389.889 149.118 388.655 152.104C387.843 154.068 386.901 155.978 385.961 157.885C385.449 158.919 384.25 159.564 383.372 159.423C382.127 159.224 381.274 158.379 381.034 157.105C380.9 156.396 381.124 155.766 381.458 155.166C383.457 151.571 384.902 147.751 385.764 143.712C386.182 141.76 386.426 139.764 386.67 137.777C386.829 136.477 386.851 135.154 386.935 133.841Z" fill="#05FF69" />
  <path d="M381.409 133.825C381.387 138.28 380.678 142.617 379.151 146.774C378.39 148.848 377.4 150.838 376.422 152.819C375.804 154.074 374.602 154.524 373.363 154.158C372.198 153.814 371.352 152.697 371.527 151.403C371.63 150.643 372.098 149.936 372.401 149.208C373.16 147.378 373.981 145.574 374.658 143.715C375.417 141.632 375.714 139.42 376.013 137.224C376.085 136.698 376.104 136.162 376.11 135.629C376.126 134.688 376.116 133.748 376.113 132.807C376.107 130.197 375.676 127.645 375.021 125.135C374.315 122.445 373.263 119.899 371.908 117.482C370.896 115.674 371.877 113.646 373.875 113.344C374.811 113.203 375.901 113.838 376.466 114.869C378.521 118.615 380.016 122.579 380.725 126.826C380.984 128.38 381.106 129.96 381.265 131.529C381.343 132.293 381.365 133.061 381.409 133.825Z" fill="#05FF69" />
  <path d="M370.687 133.828C370.702 138.428 369.538 142.704 367.455 146.729C367.015 147.58 366.612 148.473 365.682 148.951C364.061 149.785 362.051 148.543 361.969 146.691C361.926 145.728 362.406 145.022 362.812 144.274C363.93 142.222 364.733 140.052 365.064 137.728C365.266 136.29 365.46 134.829 365.435 133.385C365.385 130.483 364.823 127.667 363.602 125.029C363.181 124.114 362.666 123.247 362.244 122.332C361.395 120.499 362.566 118.576 364.333 118.461C365.522 118.384 366.322 118.936 366.921 119.96C368.66 122.939 369.791 126.155 370.346 129.568C370.571 130.968 370.581 132.406 370.687 133.828Z" fill="#05FF69" />
  <defs>
    <filter id="filter0_b_264_1398" x="-40" y="-39.3577" width="525.388" height="346.358" filterUnits="userSpaceOnUse" color-interpolation-filters="sRGB">
      <feFlood flood-opacity="0" result="BackgroundImageFix" />
      <feGaussianBlur in="BackgroundImageFix" stdDeviation="20" />
      <feComposite in2="SourceAlpha" operator="in" result="effect1_backgroundBlur_264_1398" />
      <feBlend mode="normal" in="SourceGraphic" in2="effect1_backgroundBlur_264_1398" result="shape" />
    </filter>
    <radialGradient id="paint0_radial_264_1398" cx="0" cy="0" r="1" gradientUnits="userSpaceOnUse" gradientTransform="translate(-32.8122 183.738) rotate(74.4219) scale(710.331 412.454)">
      <stop stop-color="white" stop-opacity="0.75" />
      <stop offset="1" stop-color="white" stop-opacity="0" />
    </radialGradient>
  </defs>
</svg>