<svg width="446" height="267" viewBox="0 0 446 267" fill="none" xmlns="http://www.w3.org/2000/svg">
  <g filter="url(#filter0_b_264_1397)">
    <rect y="267" width="266.358" height="445.388" rx="35" transform="rotate(-90 0 267)" fill="white" fill-opacity="0.2" />
    <rect x="0.5" y="266.5" width="265.358" height="444.388" rx="34.5" transform="rotate(-90 0.5 266.5)" stroke="url(#paint0_radial_264_1397)" />
  </g>
  <path d="M386.935 133.841C386.897 128.734 386.036 123.787 384.372 118.991C383.591 116.744 382.648 114.564 381.471 112.5C380.406 110.635 381.199 108.754 383.244 108.253C384.031 108.06 385.261 108.538 385.677 109.335C386.579 111.058 387.472 112.792 388.259 114.574C389.623 117.659 390.572 120.894 391.172 124.223C391.525 126.191 391.724 128.194 391.924 130.188C392.055 131.494 392.137 132.817 392.115 134.127C392.058 137.038 391.834 139.94 391.303 142.81C390.713 145.998 389.889 149.118 388.655 152.104C387.843 154.068 386.901 155.978 385.961 157.885C385.449 158.919 384.25 159.564 383.372 159.423C382.127 159.224 381.274 158.379 381.034 157.105C380.9 156.396 381.124 155.766 381.458 155.166C383.457 151.571 384.902 147.751 385.764 143.712C386.182 141.76 386.426 139.764 386.67 137.777C386.829 136.477 386.851 135.154 386.935 133.841Z" fill="#05FF69" />
  <path d="M381.409 133.825C381.387 138.28 380.678 142.617 379.151 146.774C378.39 148.848 377.4 150.838 376.422 152.819C375.804 154.074 374.602 154.524 373.363 154.158C372.198 153.814 371.352 152.697 371.527 151.403C371.63 150.643 372.098 149.936 372.401 149.208C373.16 147.378 373.981 145.574 374.658 143.715C375.417 141.632 375.714 139.42 376.013 137.224C376.085 136.698 376.104 136.162 376.11 135.629C376.126 134.688 376.116 133.748 376.113 132.807C376.107 130.197 375.676 127.645 375.021 125.135C374.315 122.445 373.263 119.899 371.908 117.482C370.896 115.674 371.877 113.646 373.875 113.344C374.811 113.203 375.901 113.838 376.466 114.869C378.521 118.615 380.016 122.579 380.725 126.826C380.984 128.38 381.106 129.96 381.265 131.529C381.343 132.293 381.365 133.061 381.409 133.825Z" fill="#05FF69" />
  <path d="M370.687 133.828C370.702 138.428 369.538 142.704 367.455 146.729C367.015 147.58 366.612 148.473 365.682 148.951C364.061 149.785 362.051 148.543 361.969 146.691C361.926 145.728 362.406 145.022 362.812 144.274C363.93 142.222 364.733 140.052 365.064 137.728C365.266 136.29 365.46 134.829 365.435 133.385C365.385 130.483 364.823 127.667 363.602 125.029C363.181 124.114 362.666 123.247 362.244 122.332C361.395 120.499 362.566 118.576 364.333 118.461C365.522 118.384 366.322 118.936 366.921 119.96C368.66 122.939 369.791 126.155 370.346 129.568C370.571 130.968 370.581 132.406 370.687 133.828Z" fill="#05FF69" />
  <g opacity="0.2">
    <path d="M59.4097 36.5544L76.0203 36.5544L76.0203 33.9158L79.9783 33.9158L79.9783 36.5544L84.4553 36.5544L84.4553 41.0315L79.9783 41.0315L79.9783 47.2172L76.0203 47.2172L76.0203 41.0315L63.3461 41.0315L63.3461 47.4335L59.4097 47.4335L59.4097 36.5544Z" fill="white" />
    <path d="M58.9123 57.231C58.9123 55.4575 59.3665 53.8353 60.2749 52.3646C61.1833 50.8939 62.4593 49.7043 64.1031 48.8392C65.7468 47.9741 67.6069 47.5415 69.6616 47.5415C71.7595 47.5415 73.6196 47.9741 75.2633 48.8392C76.9071 49.7043 78.1831 50.8723 79.0915 52.3646C79.9999 53.8353 80.4541 55.4575 80.4541 57.231C80.4541 58.5071 80.2378 59.6317 79.8269 60.5834C79.4159 61.5567 78.9185 62.3353 78.3345 62.9192C77.7722 63.5248 77.318 63.9141 76.9936 64.1088L76.9936 64.2386L79.9567 64.2386L79.9567 68.7156L59.4097 68.7156L59.4097 64.2386L62.3728 64.2386L62.3728 64.1088C62.0268 63.9141 61.5726 63.5248 61.0102 62.9192C60.4479 62.3136 59.9721 61.535 59.5395 60.5834C59.1286 59.6317 58.9123 58.5071 58.9123 57.231ZM62.8703 58.1394C62.8703 59.2857 63.1515 60.3238 63.7138 61.2539C64.2761 62.1839 65.0547 62.9192 66.0929 63.4599C67.1311 63.979 68.3206 64.2602 69.6832 64.2602C71.0674 64.2602 72.2786 64.0007 73.3168 63.4599C74.3549 62.9409 75.1335 62.2055 75.6959 61.2539C76.2582 60.3238 76.5394 59.2857 76.5394 58.1394C76.5394 57.0363 76.2582 55.9982 75.6959 55.0898C75.1335 54.1598 74.3549 53.446 73.3168 52.9053C72.2786 52.3863 71.0674 52.1051 69.6832 52.1051C68.3206 52.1051 67.1311 52.3646 66.0929 52.9053C65.0547 53.4244 64.2761 54.1598 63.7138 55.0898C63.1515 55.9982 62.8703 57.0147 62.8703 58.1394Z" fill="white" />
    <path d="M51.6669 71.376L79.9784 71.376L79.9784 75.8098L77.0153 75.8098L77.0153 75.9396C77.3614 76.1558 77.8155 76.5668 78.3779 77.1507C78.9402 77.7563 79.416 78.5133 79.8486 79.465C80.2595 80.4166 80.4758 81.5413 80.4758 82.839C80.4758 84.6125 80.0216 86.213 79.1132 87.6837C78.2048 89.1545 76.9288 90.3224 75.285 91.1875C73.6413 92.0526 71.7812 92.4852 69.6833 92.4852C67.6286 92.4852 65.7686 92.0526 64.1248 91.1875C62.4811 90.3224 61.205 89.1545 60.2966 87.6837C59.3882 86.213 58.934 84.6125 58.934 82.839C58.934 81.5413 59.1503 80.4166 59.5612 79.465C59.9722 78.5133 60.4696 77.7347 61.032 77.1507C61.5943 76.5451 62.0485 76.1558 62.3945 75.9396L62.3945 75.8098L51.6885 75.8098L51.6885 71.376L51.6669 71.376ZM62.8704 81.909C62.8704 83.0553 63.1515 84.0718 63.7139 84.9802C64.2762 85.8886 65.0548 86.6023 66.093 87.143C67.1312 87.6621 68.3207 87.9433 69.6833 87.9433C71.0675 87.9433 72.2787 87.6837 73.3168 87.143C74.355 86.6239 75.1336 85.8886 75.696 84.9802C76.2583 84.0718 76.5395 83.0553 76.5395 81.909C76.5395 80.7627 76.2583 79.7245 75.696 78.7945C75.1336 77.8645 74.355 77.1291 73.3168 76.5884C72.2787 76.0693 71.0675 75.7882 69.6833 75.7882C68.3207 75.7882 67.1312 76.0477 66.093 76.5884C65.0548 77.1075 64.2762 77.8428 63.7139 78.7945C63.1515 79.7245 62.8704 80.7627 62.8704 81.909Z" fill="white" />
    <path d="M59.4097 94.4534L87.9158 94.4534L87.9158 107.236C87.9158 109.442 87.5048 111.345 86.7046 112.967C85.9043 114.589 84.8013 115.844 83.3955 116.709C81.9896 117.574 80.4107 118.007 78.6805 118.007C76.5609 118.007 74.7441 117.379 73.2518 116.103C71.7378 114.849 70.6564 113.14 70.0075 110.999L59.4096 117.92L59.4097 112.34L69.3803 105.916L69.3803 99.2765L59.4097 99.2765L59.4097 94.4534ZM73.9439 107.171C73.9439 109.096 74.3764 110.566 75.2199 111.561C76.0851 112.556 77.2314 113.075 78.6589 113.075C80.0647 113.075 81.211 112.578 82.0545 111.561C82.9196 110.566 83.3306 109.096 83.3306 107.171L83.3306 99.3197L73.9222 99.3197L73.9222 107.171L73.9439 107.171Z" fill="white" />
    <path d="M58.9123 128.626C58.9123 126.615 59.3881 124.798 60.3181 123.176C61.2482 121.554 62.5459 120.256 64.1896 119.304C65.8334 118.353 67.6501 117.877 69.6616 117.877C71.673 117.877 73.5114 118.353 75.1552 119.304C76.8205 120.256 78.1182 121.554 79.0483 123.176C79.9783 124.798 80.4541 126.615 80.4541 128.626C80.4541 130.659 79.9783 132.497 79.0483 134.12C78.1182 135.742 76.8206 137.018 75.1768 137.948C73.533 138.878 71.7379 139.332 69.7913 139.332L68.5802 139.332L68.5802 122.44C67.5204 122.57 66.5471 122.938 65.682 123.522C64.8168 124.106 64.1247 124.841 63.6273 125.749C63.1298 126.636 62.8703 127.609 62.8703 128.648C62.8703 130.053 63.1514 131.243 63.7354 132.238C64.3194 133.211 65.0547 133.925 65.9199 134.401L65.9199 139.051C63.9733 138.38 62.3079 137.148 60.9454 135.396C59.6044 133.6 58.9123 131.373 58.9123 128.626ZM71.7163 134.574C72.5814 134.444 73.3816 134.098 74.117 133.579C74.8524 133.06 75.4363 132.368 75.8689 131.503C76.3015 130.637 76.5177 129.686 76.5177 128.626C76.5177 127.588 76.3015 126.658 75.8689 125.793C75.4363 124.928 74.8524 124.235 74.117 123.695C73.3816 123.154 72.5814 122.765 71.7163 122.548L71.7163 134.574Z" fill="white" />
    <path d="M58.9123 149.433C58.9123 147.659 59.3665 146.037 60.2749 144.566C61.1833 143.096 62.4593 141.906 64.1031 141.041C65.7468 140.176 67.6069 139.743 69.6616 139.743C71.7595 139.743 73.6196 140.176 75.2633 141.041C76.9071 141.906 78.1831 143.074 79.0915 144.566C79.9999 146.037 80.4541 147.659 80.4541 149.433C80.4541 150.709 80.2378 151.833 79.8269 152.785C79.4159 153.758 78.9185 154.537 78.3345 155.121C77.7722 155.726 77.318 156.116 76.9936 156.31L76.9936 156.44L79.9567 156.44L79.9567 160.917L59.4097 160.917L59.4097 156.44L62.3728 156.44L62.3728 156.31C62.0268 156.116 61.5726 155.726 61.0102 155.121C60.4479 154.515 59.9721 153.737 59.5395 152.785C59.1286 151.833 58.9123 150.709 58.9123 149.433ZM62.8703 150.319C62.8703 151.466 63.1515 152.504 63.7138 153.434C64.2761 154.364 65.0547 155.099 66.0929 155.64C67.1311 156.159 68.3206 156.44 69.6832 156.44C71.0674 156.44 72.2786 156.181 73.3168 155.64C74.3549 155.121 75.1335 154.386 75.6959 153.434C76.2582 152.504 76.5394 151.466 76.5394 150.319C76.5394 149.216 76.2582 148.178 75.6959 147.27C75.1335 146.34 74.3549 145.626 73.3168 145.085C72.2786 144.566 71.0674 144.285 69.6832 144.285C68.3206 144.285 67.1311 144.545 66.0929 145.085C65.0547 145.604 64.2761 146.34 63.7138 147.27C63.1515 148.2 62.8703 149.216 62.8703 150.319Z" fill="white" />
    <path d="M58.9122 172.121C58.9122 170.347 59.3664 168.725 60.2748 167.255C61.1832 165.784 62.4592 164.594 64.103 163.729C65.7468 162.864 67.6068 162.431 69.6615 162.431C71.7594 162.431 73.6195 162.864 75.2632 163.729C76.907 164.594 78.183 165.762 79.0914 167.255C79.9998 168.725 80.454 170.347 80.454 172.121C80.454 173.397 80.2377 174.522 79.8268 175.473C79.4159 176.447 78.9184 177.225 78.3561 177.809C77.7937 178.415 77.3395 178.804 76.9935 178.999L76.9935 179.128L87.9158 179.128L87.9158 183.606L59.4097 183.606L59.4097 179.128L62.3727 179.128L62.3727 178.999C62.0267 178.804 61.5725 178.415 61.0102 177.809C60.4478 177.204 59.972 176.425 59.5394 175.473C59.1285 174.5 58.9122 173.375 58.9122 172.121ZM62.8702 173.008C62.8702 174.154 63.1514 175.192 63.7137 176.122C64.276 177.052 65.0546 177.788 66.0928 178.328C67.131 178.847 68.3205 179.128 69.6831 179.128C71.0673 179.128 72.2785 178.869 73.3167 178.328C74.3548 177.809 75.1334 177.074 75.6958 176.122C76.2581 175.192 76.5393 174.154 76.5393 173.008C76.5393 171.905 76.2581 170.866 75.6958 169.958C75.1334 169.028 74.3548 168.314 73.3167 167.774C72.2785 167.255 71.0673 166.973 69.6831 166.973C68.3205 166.973 67.131 167.233 66.0928 167.774C65.0546 168.293 64.276 169.028 63.7137 169.958C63.1514 170.866 62.8702 171.883 62.8702 173.008Z" fill="white" />
    <path d="M51.6668 192.019L59.4097 194.376L59.4097 189.769L79.9783 184.276L79.9783 188.969L63.3677 193.252L63.3677 195.566L79.9783 200.497L79.9783 205.147L51.6668 196.712L51.6668 192.019Z" fill="white" />
    <path d="M69.4019 226.321C72.8408 226.3 76.1716 225.694 79.4158 224.548C80.9298 224.007 82.4005 223.358 83.7847 222.536C85.0392 221.801 86.3152 222.342 86.6397 223.769C86.7694 224.31 86.445 225.175 85.9043 225.456C84.7364 226.083 83.5684 226.711 82.3789 227.251C80.3026 228.203 78.1181 228.852 75.8688 229.263C74.5494 229.501 73.1869 229.652 71.8459 229.782C70.9591 229.868 70.0724 229.933 69.1856 229.912C67.2174 229.868 65.2709 229.717 63.3243 229.349C61.1831 228.938 59.0636 228.376 57.0738 227.511C55.7544 226.948 54.4567 226.3 53.1807 225.651C52.4886 225.305 52.056 224.461 52.1425 223.856C52.2723 222.99 52.8346 222.407 53.6997 222.234C54.1756 222.147 54.6081 222.298 54.9974 222.536C57.4198 223.921 59.9936 224.915 62.7187 225.521C64.0381 225.802 65.379 225.975 66.72 226.148C67.6284 226.256 68.5151 226.256 69.4019 226.321Z" fill="white" />
    <path d="M69.4019 222.493C66.3955 222.471 63.4757 221.995 60.6857 220.936C59.2798 220.417 57.9389 219.724 56.6195 219.054C55.776 218.621 55.4732 217.8 55.7112 216.934C55.9491 216.134 56.7061 215.55 57.5712 215.658C58.0903 215.723 58.5661 216.048 59.0419 216.264C60.2747 216.783 61.4859 217.367 62.7404 217.821C64.1462 218.34 65.6385 218.557 67.1093 218.751C67.4553 218.794 67.823 218.816 68.1907 218.816C68.8179 218.816 69.4668 218.816 70.094 218.816C71.8459 218.816 73.5761 218.513 75.2631 218.059C77.0799 217.562 78.7886 216.848 80.4107 215.896C81.6219 215.204 82.9845 215.875 83.2007 217.259C83.2873 217.908 82.8763 218.665 82.1626 219.054C79.6321 220.481 76.9718 221.52 74.1168 221.995C73.0787 222.168 71.9973 222.255 70.9591 222.363C70.44 222.45 69.921 222.471 69.4019 222.493Z" fill="white" />
    <path d="M69.4019 215.074C66.309 215.074 63.4325 214.274 60.7073 212.825C60.145 212.522 59.5394 212.241 59.2149 211.592C58.6526 210.468 59.4961 209.083 60.7289 209.018C61.3778 208.997 61.8536 209.321 62.3511 209.602C63.7353 210.381 65.1844 210.943 66.7632 211.16C67.7365 211.311 68.7098 211.441 69.6831 211.419C71.6296 211.376 73.5329 210.987 75.3064 210.143C75.912 209.84 76.5176 209.494 77.1232 209.191C78.356 208.607 79.6537 209.408 79.7402 210.641C79.7835 211.462 79.4158 212.025 78.7237 212.436C76.7123 213.647 74.5494 214.425 72.2568 214.815C71.3268 214.988 70.3535 214.988 69.4019 215.074Z" fill="white" />
    <path d="M44.7457 127.956C44.9403 128.28 45.0485 128.648 45.0485 129.08C45.0485 129.513 44.962 129.88 44.7673 130.205C44.5727 130.529 44.2915 130.789 43.9454 130.983C43.5778 131.178 43.1668 131.265 42.691 131.265C42.2152 131.265 41.8042 131.178 41.4366 130.983C41.0689 130.789 40.7877 130.529 40.593 130.205C40.3984 129.88 40.2902 129.491 40.2902 129.08C40.2902 128.648 40.3984 128.258 40.593 127.956C40.7877 127.631 41.0472 127.415 41.3717 127.263L40.3551 127.263L40.3551 126.679L46.6057 126.679L46.6057 127.263L43.9454 127.263C44.2915 127.393 44.551 127.631 44.7457 127.956ZM43.6859 130.443C43.9671 130.291 44.1833 130.097 44.3131 129.837C44.4645 129.578 44.5294 129.296 44.5294 128.95C44.5294 128.626 44.4429 128.345 44.2915 128.085C44.1401 127.826 43.9238 127.609 43.6426 127.458C43.3615 127.307 43.037 127.22 42.6694 127.22C42.3017 127.22 41.9773 127.307 41.6961 127.458C41.4149 127.609 41.1986 127.826 41.0472 128.085C40.8958 128.345 40.8093 128.626 40.8093 128.95C40.8093 129.275 40.8742 129.578 41.0256 129.837C41.177 130.097 41.3933 130.291 41.6745 130.443C41.9556 130.594 42.28 130.659 42.6694 130.659C43.0587 130.681 43.4047 130.594 43.6859 130.443Z" fill="white" />
    <path d="M44.9836 136.153L38.214 133.428L38.214 132.8L40.3984 133.687L44.9836 131.805L44.9836 132.454L41.0473 134.033L44.9836 135.547L44.9836 136.153Z" fill="white" />
    <path d="M40.8525 139.873L40.8525 141.992L40.3767 141.992L40.3767 139.289L46.2812 139.289L46.2812 139.873L40.8525 139.873Z" fill="white" />
    <path d="M45.9785 142.814C46.065 142.728 46.1732 142.685 46.2813 142.685C46.3894 142.685 46.4976 142.728 46.5841 142.814C46.6706 142.901 46.7139 143.009 46.7139 143.117C46.7139 143.225 46.6706 143.333 46.5841 143.42C46.4976 143.506 46.3894 143.55 46.2813 143.55C46.1732 143.55 46.0434 143.506 45.9785 143.42C45.892 143.333 45.8487 143.225 45.8487 143.117C45.8487 143.009 45.892 142.901 45.9785 142.814ZM44.9836 143.42L40.3768 143.42L40.3768 142.836L44.9836 142.836L44.9836 143.42Z" fill="white" />
    <path d="M40.3766 147.248L42.4529 145.344L40.3766 145.344L40.3766 144.76L46.6272 144.76L46.6272 145.344L42.9287 145.344L44.9834 147.204L44.9834 148.026L42.6908 145.842L40.3766 148.048L40.3766 147.248Z" fill="white" />
    <path d="M42.4531 152.958L42.4531 149.129C42.107 149.151 41.8042 149.238 41.5663 149.389C41.3284 149.54 41.1338 149.735 41.004 149.995C40.8742 150.233 40.8093 150.514 40.8093 150.795C40.8093 151.184 40.8958 151.509 41.0905 151.768C41.2852 152.028 41.5231 152.201 41.8475 152.287L41.8475 152.914C41.3933 152.806 41.0256 152.568 40.7445 152.201C40.4633 151.833 40.3119 151.379 40.3119 150.816C40.3119 150.384 40.3984 149.995 40.5931 149.649C40.7877 149.303 41.0689 149.043 41.4149 148.848C41.761 148.654 42.1935 148.567 42.6694 148.567C43.1452 148.567 43.5561 148.654 43.9238 148.848C44.2915 149.043 44.551 149.303 44.7457 149.649C44.9403 149.995 45.0269 150.384 45.0269 150.816C45.0269 151.249 44.9403 151.638 44.7457 151.963C44.551 152.287 44.2915 152.547 43.9671 152.72C43.6426 152.893 43.275 152.979 42.8856 152.979C42.7126 152.979 42.5612 152.979 42.4531 152.958ZM43.8157 152.179C44.0536 152.028 44.2482 151.833 44.3564 151.595C44.4862 151.357 44.551 151.076 44.551 150.795C44.551 150.362 44.3996 149.973 44.1185 149.67C43.8373 149.367 43.448 149.194 42.9289 149.151L42.9289 152.395C43.275 152.395 43.5561 152.309 43.8157 152.179Z" fill="white" />
    <path d="M44.551 157.565C44.2049 157.911 43.7075 158.084 43.0803 158.084L40.3767 158.084L40.3767 157.5L43.0154 157.5C43.5128 157.5 43.9021 157.37 44.1617 157.132C44.4212 156.873 44.551 156.548 44.551 156.116C44.551 155.661 44.3996 155.315 44.1184 155.056C43.8372 154.796 43.4263 154.666 42.8856 154.666L40.3767 154.666L40.3767 154.083L44.9835 154.083L44.9835 154.666L44.2049 154.666C44.4861 154.818 44.7024 155.034 44.8538 155.294C45.0052 155.553 45.0701 155.878 45.0701 156.224C45.0701 156.764 44.897 157.219 44.551 157.565Z" fill="white" />
    <path d="M42.4531 163.556L42.4531 159.727C42.107 159.749 41.8042 159.836 41.5663 159.987C41.3284 160.138 41.1338 160.333 41.004 160.593C40.8742 160.83 40.8093 161.112 40.8093 161.393C40.8093 161.782 40.8958 162.106 41.0905 162.366C41.2852 162.626 41.5231 162.799 41.8475 162.885L41.8475 163.512C41.3933 163.404 41.0256 163.166 40.7445 162.799C40.4633 162.431 40.3119 161.977 40.3119 161.414C40.3119 160.982 40.3984 160.593 40.5931 160.246C40.7877 159.9 41.0689 159.641 41.4149 159.446C41.761 159.252 42.1935 159.165 42.6694 159.165C43.1452 159.165 43.5561 159.252 43.9238 159.446C44.2915 159.641 44.551 159.9 44.7457 160.246C44.9403 160.593 45.0269 160.982 45.0269 161.414C45.0269 161.847 44.9403 162.236 44.7457 162.561C44.551 162.885 44.2915 163.145 43.9671 163.318C43.6426 163.491 43.275 163.577 42.8856 163.577C42.7126 163.577 42.5612 163.577 42.4531 163.556ZM43.8157 162.777C44.0536 162.626 44.2482 162.431 44.3564 162.193C44.4862 161.955 44.551 161.674 44.551 161.393C44.551 160.96 44.3996 160.571 44.1185 160.268C43.8373 159.965 43.448 159.792 42.9289 159.749L42.9289 162.993C43.275 162.972 43.5561 162.907 43.8157 162.777Z" fill="white" />
    <path d="M40.6795 164.94C40.9174 164.616 41.2635 164.421 41.6744 164.378L41.6744 164.983C41.4149 165.005 41.1986 165.135 41.0472 165.351C40.8958 165.567 40.8093 165.848 40.8093 166.216C40.8093 166.541 40.8958 166.778 41.0472 166.973C41.1986 167.146 41.3933 167.254 41.6095 167.254C41.7609 167.254 41.8907 167.211 41.9988 167.103C42.107 166.995 42.1719 166.865 42.2368 166.714C42.3016 166.562 42.3665 166.346 42.4314 166.086C42.5179 165.74 42.6044 165.459 42.691 165.243C42.7775 165.027 42.9072 164.854 43.1019 164.702C43.2749 164.551 43.5128 164.486 43.8156 164.486C44.0319 164.486 44.2482 164.551 44.4428 164.68C44.6375 164.81 44.7889 165.005 44.897 165.264C45.0052 165.502 45.0701 165.784 45.0701 166.108C45.0701 166.605 44.9403 166.995 44.7024 167.298C44.4428 167.6 44.0968 167.773 43.6642 167.795L43.6642 167.211C43.9238 167.189 44.1617 167.081 44.3131 166.887C44.4861 166.692 44.5726 166.432 44.5726 166.086C44.5726 165.784 44.5077 165.546 44.3563 165.351C44.2049 165.156 44.0319 165.07 43.8373 165.07C43.6642 165.07 43.5128 165.135 43.4047 165.243C43.2965 165.351 43.1884 165.481 43.1451 165.654C43.0803 165.827 43.0154 166.043 42.9289 166.303C42.8423 166.627 42.7558 166.908 42.6693 167.103C42.5828 167.298 42.453 167.471 42.3016 167.6C42.1502 167.73 41.9123 167.817 41.6528 167.817C41.4149 167.817 41.177 167.752 40.9823 167.622C40.7877 167.492 40.6363 167.298 40.5281 167.06C40.42 166.822 40.3551 166.541 40.3551 166.216C40.3118 165.719 40.42 165.286 40.6795 164.94Z" fill="white" />
    <path d="M40.6795 169.244C40.9174 168.92 41.2635 168.725 41.6744 168.682L41.6744 169.287C41.4149 169.309 41.1986 169.439 41.0472 169.655C40.8958 169.871 40.8093 170.152 40.8093 170.52C40.8093 170.844 40.8958 171.082 41.0472 171.277C41.1986 171.45 41.3933 171.558 41.6095 171.558C41.7609 171.558 41.8907 171.515 41.9988 171.407C42.107 171.299 42.1719 171.169 42.2368 171.017C42.3016 170.866 42.3665 170.65 42.4314 170.39C42.5179 170.044 42.6044 169.763 42.691 169.547C42.7775 169.33 42.9072 169.157 43.1019 169.006C43.2749 168.855 43.5128 168.79 43.8156 168.79C44.0319 168.79 44.2482 168.855 44.4428 168.984C44.6375 169.114 44.7889 169.309 44.897 169.568C45.0052 169.806 45.0701 170.087 45.0701 170.412C45.0701 170.909 44.9403 171.299 44.7024 171.601C44.4428 171.904 44.0968 172.077 43.6642 172.099L43.6642 171.515C43.9238 171.493 44.1617 171.385 44.3131 171.191C44.4861 170.996 44.5726 170.736 44.5726 170.39C44.5726 170.087 44.5077 169.85 44.3563 169.655C44.2049 169.46 44.0319 169.374 43.8373 169.374C43.6642 169.374 43.5128 169.439 43.4047 169.547C43.2965 169.655 43.1884 169.785 43.1451 169.958C43.0803 170.131 43.0154 170.347 42.9289 170.607C42.8423 170.931 42.7558 171.212 42.6693 171.407C42.5828 171.601 42.453 171.774 42.3016 171.904C42.1502 172.034 41.9123 172.121 41.6528 172.121C41.4149 172.121 41.177 172.056 40.9823 171.926C40.7877 171.796 40.6363 171.601 40.5281 171.364C40.42 171.126 40.3551 170.844 40.3551 170.52C40.3118 170.023 40.42 169.59 40.6795 169.244Z" fill="white" />
    <path d="M46.2812 179.02L45.7838 179.02L45.7838 177.376L40.3767 177.376L40.3767 176.792L45.7838 176.792L45.7838 175.148L46.2812 175.148L46.2812 179.02Z" fill="white" />
    <path d="M42.4531 184.124L42.4531 180.296C42.107 180.318 41.8042 180.404 41.5663 180.556C41.3284 180.707 41.1338 180.902 41.004 181.161C40.8742 181.399 40.8093 181.68 40.8093 181.961C40.8093 182.351 40.8958 182.675 41.0905 182.935C41.2852 183.194 41.5231 183.367 41.8475 183.454L41.8475 184.081C41.3933 183.973 41.0256 183.735 40.7445 183.367C40.4633 183 40.3119 182.545 40.3119 181.983C40.3119 181.55 40.3984 181.161 40.5931 180.815C40.7877 180.469 41.0689 180.209 41.4149 180.015C41.761 179.82 42.1935 179.734 42.6694 179.734C43.1452 179.734 43.5561 179.82 43.9238 180.015C44.2915 180.209 44.551 180.469 44.7457 180.815C44.9403 181.161 45.0269 181.55 45.0269 181.983C45.0269 182.416 44.9403 182.805 44.7457 183.129C44.551 183.454 44.2915 183.713 43.9671 183.886C43.6426 184.059 43.275 184.146 42.8856 184.146C42.7126 184.124 42.5612 184.124 42.4531 184.124ZM43.8157 183.324C44.0536 183.173 44.2482 182.978 44.3564 182.74C44.4862 182.502 44.551 182.221 44.551 181.94C44.551 181.507 44.3996 181.118 44.1185 180.815C43.8373 180.512 43.448 180.339 42.9289 180.296L42.9289 183.54C43.275 183.54 43.5561 183.475 43.8157 183.324Z" fill="white" />
    <path d="M43.9238 185.227C44.2915 185.422 44.551 185.681 44.7457 186.027C44.9403 186.374 45.0269 186.741 45.0269 187.174C45.0269 187.736 44.8755 188.212 44.5943 188.58C44.3131 188.947 43.9238 189.185 43.448 189.293L43.448 188.666C43.7724 188.58 44.032 188.407 44.2266 188.147C44.4213 187.888 44.5078 187.563 44.5078 187.174C44.5078 186.871 44.4429 186.59 44.2915 186.33C44.1401 186.092 43.9454 185.898 43.6643 185.746C43.3831 185.595 43.0371 185.53 42.6477 185.53C42.2584 185.53 41.8908 185.595 41.6096 185.746C41.3284 185.898 41.1121 186.092 40.9824 186.33C40.831 186.568 40.7661 186.849 40.7661 187.174C40.7661 187.563 40.8526 187.888 41.0472 188.147C41.2419 188.407 41.5014 188.58 41.8259 188.666L41.8259 189.293C41.35 189.185 40.9824 188.947 40.6796 188.58C40.3984 188.212 40.247 187.736 40.247 187.174C40.247 186.741 40.3335 186.352 40.5282 186.027C40.7228 185.703 41.004 185.422 41.35 185.227C41.7177 185.033 42.1287 184.946 42.6045 184.946C43.0803 184.946 43.5778 185.033 43.9238 185.227Z" fill="white" />
    <path d="M44.8537 193.532C44.7023 193.814 44.486 194.03 44.1832 194.181C43.8804 194.333 43.5127 194.419 43.0801 194.419L40.3766 194.419L40.3766 193.835L43.0153 193.835C43.5127 193.835 43.902 193.705 44.1616 193.468C44.4211 193.208 44.5509 192.884 44.5509 192.451C44.5509 191.997 44.3995 191.651 44.1183 191.391C43.8371 191.132 43.4262 191.002 42.8855 191.002L40.3766 191.002L40.3766 190.418L46.6272 190.418L46.6272 191.002L44.2048 191.002C44.486 191.153 44.7023 191.37 44.8537 191.651C45.0051 191.932 45.0916 192.256 45.0916 192.602C45.07 192.927 44.9834 193.251 44.8537 193.532Z" fill="white" />
    <path d="M44.551 199.242C44.2049 199.588 43.7075 199.761 43.0803 199.761L40.3767 199.761L40.3767 199.178L43.0154 199.178C43.5128 199.178 43.9021 199.048 44.1617 198.81C44.4212 198.55 44.551 198.226 44.551 197.793C44.551 197.339 44.3996 196.993 44.1184 196.734C43.8372 196.474 43.4263 196.344 42.8856 196.344L40.3767 196.344L40.3767 195.76L44.9835 195.76L44.9835 196.344L44.2049 196.344C44.4861 196.496 44.7024 196.712 44.8538 196.971C45.0052 197.231 45.0701 197.555 45.0701 197.901C45.0701 198.442 44.897 198.896 44.551 199.242Z" fill="white" />
    <path d="M40.5931 201.924C40.7877 201.578 41.0689 201.297 41.4149 201.102C41.7826 200.908 42.1935 200.8 42.6694 200.8C43.1452 200.8 43.5561 200.908 43.9238 201.102C44.2915 201.297 44.551 201.578 44.7457 201.924C44.9403 202.27 45.0269 202.66 45.0269 203.092C45.0269 203.525 44.9403 203.914 44.7457 204.26C44.551 204.606 44.2699 204.887 43.9238 205.082C43.5561 205.277 43.1452 205.385 42.6694 205.385C42.1935 205.385 41.7826 205.277 41.4149 205.082C41.0472 204.887 40.7877 204.606 40.5931 204.239C40.3984 203.871 40.3119 203.482 40.3119 203.049C40.3119 202.66 40.3984 202.27 40.5931 201.924ZM41.0256 203.936C41.1554 204.195 41.3717 204.412 41.6528 204.563C41.934 204.714 42.2801 204.801 42.6694 204.801C43.0587 204.801 43.4264 204.714 43.6859 204.563C43.9671 204.412 44.1617 204.195 44.3131 203.936C44.4429 203.676 44.5294 203.395 44.5294 203.092C44.5294 202.789 44.4645 202.508 44.3131 202.249C44.1834 201.989 43.9671 201.773 43.6859 201.622C43.4047 201.47 43.0587 201.384 42.6694 201.384C42.2801 201.384 41.9124 201.47 41.6528 201.622C41.3933 201.773 41.1554 201.989 41.0256 202.227C40.8958 202.487 40.8093 202.768 40.8093 203.071C40.831 203.395 40.8958 203.676 41.0256 203.936Z" fill="white" />
    <path d="M46.6272 207.072L40.3766 207.072L40.3766 206.488L46.6272 206.488L46.6272 207.072Z" fill="white" />
    <path d="M40.5931 209.278C40.7877 208.932 41.0689 208.651 41.4149 208.456C41.7826 208.261 42.1935 208.153 42.6694 208.153C43.1452 208.153 43.5561 208.261 43.9238 208.456C44.2915 208.651 44.551 208.932 44.7457 209.278C44.9403 209.624 45.0269 210.013 45.0269 210.446C45.0269 210.878 44.9403 211.268 44.7457 211.614C44.551 211.96 44.2699 212.241 43.9238 212.436C43.5561 212.63 43.1452 212.738 42.6694 212.738C42.1935 212.738 41.7826 212.63 41.4149 212.436C41.0472 212.241 40.7877 211.96 40.5931 211.592C40.3984 211.224 40.3119 210.835 40.3119 210.403C40.3119 210.013 40.3984 209.624 40.5931 209.278ZM41.0256 211.289C41.1554 211.549 41.3717 211.765 41.6528 211.917C41.934 212.068 42.2801 212.154 42.6694 212.154C43.0587 212.154 43.4264 212.068 43.6859 211.917C43.9671 211.765 44.1617 211.549 44.3131 211.289C44.4429 211.03 44.5294 210.749 44.5294 210.446C44.5294 210.143 44.4645 209.862 44.3131 209.602C44.1834 209.343 43.9671 209.126 43.6859 208.975C43.4047 208.824 43.0587 208.737 42.6694 208.737C42.2801 208.737 41.9124 208.824 41.6528 208.975C41.3933 209.126 41.1554 209.343 41.0256 209.581C40.8958 209.84 40.8093 210.121 40.8093 210.424C40.831 210.749 40.8958 211.03 41.0256 211.289Z" fill="white" />
    <path d="M44.7456 216.913C44.551 217.237 44.2914 217.453 43.967 217.605L44.9619 217.605L44.9619 218.189L40.2253 218.189C39.7928 218.189 39.4251 218.102 39.1006 217.908C38.7762 217.735 38.5167 217.475 38.3437 217.151C38.1706 216.826 38.0841 216.459 38.0841 216.026C38.0841 215.442 38.2355 214.945 38.5167 214.555C38.7979 214.166 39.1872 213.928 39.663 213.82L39.663 214.404C39.3386 214.512 39.079 214.707 38.8844 214.988C38.6897 215.269 38.6032 215.615 38.6032 216.026C38.6032 216.329 38.6681 216.588 38.7979 216.826C38.9276 217.064 39.1223 217.259 39.3602 217.389C39.5981 217.518 39.9009 217.583 40.247 217.583L41.3933 217.583C41.0688 217.432 40.8093 217.194 40.6146 216.891C40.3983 216.567 40.3118 216.199 40.3118 215.766C40.3118 215.334 40.42 214.966 40.6146 214.642C40.8093 214.317 41.0905 214.036 41.4581 213.863C41.8258 213.669 42.2368 213.582 42.7126 213.582C43.1884 213.582 43.5993 213.669 43.967 213.863C44.3347 214.058 44.5942 214.317 44.7889 214.642C44.9836 214.966 45.0701 215.356 45.0701 215.766C45.0484 216.199 44.9403 216.588 44.7456 216.913ZM43.6642 217.367C43.9454 217.216 44.1617 216.999 44.3131 216.74C44.4645 216.48 44.551 216.199 44.551 215.875C44.551 215.55 44.4861 215.247 44.3347 214.988C44.1833 214.728 43.967 214.534 43.7075 214.382C43.4263 214.231 43.1019 214.166 42.7126 214.166C42.3449 214.166 41.9988 214.231 41.7177 214.382C41.4365 214.534 41.2202 214.728 41.0688 214.988C40.9174 215.247 40.8525 215.529 40.8525 215.875C40.8525 216.199 40.9391 216.48 41.0905 216.74C41.2419 216.999 41.4581 217.216 41.7393 217.367C42.0205 217.518 42.3449 217.605 42.7126 217.605C43.0586 217.605 43.3831 217.518 43.6642 217.367Z" fill="white" />
    <path d="M45.9785 219.53C46.065 219.443 46.1732 219.4 46.2813 219.4C46.3894 219.4 46.4976 219.443 46.5841 219.53C46.6706 219.616 46.7139 219.724 46.7139 219.833C46.7139 219.941 46.6706 220.049 46.5841 220.135C46.4976 220.222 46.3894 220.265 46.2813 220.265C46.1732 220.265 46.0434 220.222 45.9785 220.135C45.892 220.049 45.8487 219.941 45.8487 219.833C45.8487 219.724 45.892 219.616 45.9785 219.53ZM44.9836 220.135L40.3768 220.135L40.3768 219.551L44.9836 219.551L44.9836 220.135Z" fill="white" />
    <path d="M42.4531 225.629L42.4531 221.801C42.107 221.822 41.8042 221.909 41.5663 222.06C41.3284 222.212 41.1338 222.406 41.004 222.666C40.8742 222.904 40.8093 223.185 40.8093 223.466C40.8093 223.856 40.8958 224.18 41.0905 224.44C41.2852 224.699 41.5231 224.872 41.8475 224.959L41.8475 225.586C41.3933 225.478 41.0256 225.24 40.7445 224.872C40.4633 224.504 40.3119 224.05 40.3119 223.488C40.3119 223.055 40.3984 222.666 40.5931 222.32C40.7877 221.974 41.0689 221.714 41.4149 221.52C41.761 221.325 42.1935 221.239 42.6694 221.239C43.1452 221.239 43.5561 221.325 43.9238 221.52C44.2915 221.714 44.551 221.974 44.7457 222.32C44.9403 222.666 45.0269 223.055 45.0269 223.488C45.0269 223.92 44.9403 224.31 44.7457 224.634C44.551 224.959 44.2915 225.218 43.9671 225.391C43.6426 225.564 43.275 225.651 42.8856 225.651C42.7126 225.651 42.5612 225.629 42.4531 225.629ZM43.8157 224.829C44.0536 224.677 44.2482 224.483 44.3564 224.245C44.4862 224.007 44.551 223.726 44.551 223.445C44.551 223.012 44.3996 222.623 44.1185 222.32C43.8373 222.017 43.448 221.844 42.9289 221.801L42.9289 225.045C43.275 225.045 43.5561 224.98 43.8157 224.829Z" fill="white" />
    <path d="M40.6795 227.013C40.9174 226.689 41.2635 226.494 41.6744 226.451L41.6744 227.056C41.4149 227.078 41.1986 227.208 41.0472 227.424C40.8958 227.64 40.8093 227.922 40.8093 228.289C40.8093 228.614 40.8958 228.852 41.0472 229.046C41.1986 229.219 41.3933 229.327 41.6095 229.327C41.7609 229.327 41.8907 229.284 41.9988 229.176C42.107 229.068 42.1719 228.938 42.2368 228.787C42.3016 228.635 42.3665 228.419 42.4314 228.159C42.5179 227.813 42.6044 227.532 42.691 227.316C42.7775 227.1 42.9072 226.927 43.1019 226.775C43.2749 226.624 43.5128 226.559 43.8156 226.559C44.0319 226.559 44.2482 226.624 44.4428 226.754C44.6375 226.883 44.7889 227.078 44.897 227.338C45.0052 227.575 45.0701 227.857 45.0701 228.181C45.0701 228.679 44.9403 229.068 44.7024 229.371C44.4428 229.673 44.0968 229.846 43.6642 229.868L43.6642 229.284C43.9238 229.262 44.1617 229.154 44.3131 228.96C44.4861 228.765 44.5726 228.506 44.5726 228.159C44.5726 227.857 44.5077 227.619 44.3563 227.424C44.2049 227.229 44.0319 227.143 43.8373 227.143C43.6642 227.143 43.5128 227.208 43.4047 227.316C43.2965 227.424 43.1884 227.554 43.1451 227.727C43.0803 227.9 43.0154 228.116 42.9289 228.376C42.8423 228.7 42.7558 228.981 42.6693 229.176C42.5828 229.371 42.453 229.544 42.3016 229.673C42.1502 229.803 41.9123 229.89 41.6528 229.89C41.4149 229.89 41.177 229.825 40.9823 229.695C40.7877 229.565 40.6363 229.371 40.5281 229.133C40.42 228.895 40.3551 228.614 40.3551 228.289C40.3118 227.77 40.42 227.338 40.6795 227.013Z" fill="white" />
  </g>
  <defs>
    <filter id="filter0_b_264_1397" x="-40" y="-39.3577" width="525.388" height="346.358" filterUnits="userSpaceOnUse" color-interpolation-filters="sRGB">
      <feFlood flood-opacity="0" result="BackgroundImageFix" />
      <feGaussianBlur in="BackgroundImageFix" stdDeviation="20" />
      <feComposite in2="SourceAlpha" operator="in" result="effect1_backgroundBlur_264_1397" />
      <feBlend mode="normal" in="SourceGraphic" in2="effect1_backgroundBlur_264_1397" result="shape" />
    </filter>
    <radialGradient id="paint0_radial_264_1397" cx="0" cy="0" r="1" gradientUnits="userSpaceOnUse" gradientTransform="translate(-32.8122 183.738) rotate(74.4219) scale(710.331 412.454)">
      <stop stop-color="white" stop-opacity="0.75" />
      <stop offset="1" stop-color="white" stop-opacity="0" />
    </radialGradient>
  </defs>
</svg>