<svg width="654" height="123" viewBox="0 0 654 123" fill="none" xmlns="http://www.w3.org/2000/svg">
<g filter="url(#filter0_b_264_1367)">
<rect width="654" height="122.351" rx="35" fill="white" fill-opacity="0.2"/>
<rect x="0.5" y="0.5" width="653" height="121.351" rx="34.5" stroke="url(#paint0_radial_264_1367)"/>
</g>
<path d="M153.6 41.4H158.55L161.79 54H160.17L159.18 50.31H152.97L151.98 54H150.36L153.6 41.4ZM158.82 48.78L157.29 42.93H154.86L153.33 48.78H158.82ZM166.646 54.18C166.01 54.18 165.416 54.066 164.864 53.838C164.324 53.598 163.85 53.274 163.442 52.866C163.046 52.446 162.728 51.948 162.488 51.372C162.26 50.796 162.146 50.172 162.146 49.5C162.146 48.828 162.26 48.204 162.488 47.628C162.728 47.052 163.046 46.56 163.442 46.152C163.85 45.732 164.324 45.408 164.864 45.18C165.416 44.94 166.01 44.82 166.646 44.82C167.09 44.82 167.492 44.868 167.852 44.964C168.224 45.048 168.554 45.168 168.842 45.324C169.13 45.468 169.382 45.636 169.598 45.828C169.814 46.02 170 46.212 170.156 46.404C170.528 46.872 170.798 47.394 170.966 47.97H169.526C169.382 47.634 169.184 47.334 168.932 47.07C168.716 46.842 168.422 46.638 168.05 46.458C167.678 46.266 167.21 46.17 166.646 46.17C166.214 46.17 165.812 46.254 165.44 46.422C165.068 46.578 164.744 46.806 164.468 47.106C164.192 47.394 163.976 47.742 163.82 48.15C163.664 48.558 163.586 49.008 163.586 49.5C163.586 50.004 163.67 50.46 163.838 50.868C164.006 51.276 164.228 51.624 164.504 51.912C164.78 52.2 165.104 52.428 165.476 52.596C165.848 52.752 166.238 52.83 166.646 52.83C167.234 52.83 167.714 52.728 168.086 52.524C168.47 52.32 168.776 52.092 169.004 51.84C169.268 51.552 169.472 51.222 169.616 50.85H171.056C170.888 51.486 170.612 52.044 170.228 52.524C170.06 52.728 169.868 52.932 169.652 53.136C169.436 53.328 169.178 53.502 168.878 53.658C168.59 53.814 168.26 53.94 167.888 54.036C167.516 54.132 167.102 54.18 166.646 54.18ZM176.104 54.18C175.468 54.18 174.874 54.066 174.322 53.838C173.782 53.598 173.308 53.274 172.9 52.866C172.504 52.446 172.186 51.948 171.946 51.372C171.718 50.796 171.604 50.172 171.604 49.5C171.604 48.828 171.718 48.204 171.946 47.628C172.186 47.052 172.504 46.56 172.9 46.152C173.308 45.732 173.782 45.408 174.322 45.18C174.874 44.94 175.468 44.82 176.104 44.82C176.548 44.82 176.95 44.868 177.31 44.964C177.682 45.048 178.012 45.168 178.3 45.324C178.588 45.468 178.84 45.636 179.056 45.828C179.272 46.02 179.458 46.212 179.614 46.404C179.986 46.872 180.256 47.394 180.424 47.97H178.984C178.84 47.634 178.642 47.334 178.39 47.07C178.174 46.842 177.88 46.638 177.508 46.458C177.136 46.266 176.668 46.17 176.104 46.17C175.672 46.17 175.27 46.254 174.898 46.422C174.526 46.578 174.202 46.806 173.926 47.106C173.65 47.394 173.434 47.742 173.278 48.15C173.122 48.558 173.044 49.008 173.044 49.5C173.044 50.004 173.128 50.46 173.296 50.868C173.464 51.276 173.686 51.624 173.962 51.912C174.238 52.2 174.562 52.428 174.934 52.596C175.306 52.752 175.696 52.83 176.104 52.83C176.692 52.83 177.172 52.728 177.544 52.524C177.928 52.32 178.234 52.092 178.462 51.84C178.726 51.552 178.93 51.222 179.074 50.85H180.514C180.346 51.486 180.07 52.044 179.686 52.524C179.518 52.728 179.326 52.932 179.11 53.136C178.894 53.328 178.636 53.502 178.336 53.658C178.048 53.814 177.718 53.94 177.346 54.036C176.974 54.132 176.56 54.18 176.104 54.18ZM185.652 54.18C185.004 54.18 184.398 54.066 183.834 53.838C183.27 53.598 182.784 53.274 182.376 52.866C181.968 52.446 181.644 51.948 181.404 51.372C181.176 50.796 181.062 50.172 181.062 49.5C181.062 48.828 181.176 48.204 181.404 47.628C181.644 47.052 181.968 46.56 182.376 46.152C182.784 45.732 183.27 45.408 183.834 45.18C184.398 44.94 185.004 44.82 185.652 44.82C186.3 44.82 186.906 44.94 187.47 45.18C188.034 45.408 188.52 45.726 188.928 46.134C189.336 46.542 189.654 47.028 189.882 47.592C190.122 48.156 190.242 48.762 190.242 49.41V49.95H182.502C182.55 50.37 182.664 50.76 182.844 51.12C183.024 51.468 183.252 51.768 183.528 52.02C183.804 52.272 184.122 52.47 184.482 52.614C184.854 52.758 185.244 52.83 185.652 52.83C186.192 52.83 186.648 52.746 187.02 52.578C187.392 52.41 187.698 52.224 187.938 52.02C188.214 51.792 188.442 51.522 188.622 51.21H190.062C189.846 51.774 189.54 52.272 189.144 52.704C188.796 53.076 188.34 53.418 187.776 53.73C187.212 54.03 186.504 54.18 185.652 54.18ZM188.712 48.69C188.664 48.354 188.556 48.036 188.388 47.736C188.232 47.424 188.022 47.154 187.758 46.926C187.494 46.698 187.182 46.518 186.822 46.386C186.474 46.242 186.084 46.17 185.652 46.17C185.22 46.17 184.824 46.242 184.464 46.386C184.116 46.518 183.804 46.698 183.528 46.926C183.264 47.154 183.048 47.424 182.88 47.736C182.712 48.036 182.598 48.354 182.538 48.69H188.712ZM191.499 45H192.939V46.44H192.957C192.957 46.44 193.011 46.356 193.119 46.188C193.239 46.008 193.425 45.822 193.677 45.63C193.941 45.426 194.277 45.24 194.685 45.072C195.093 44.904 195.591 44.82 196.179 44.82C196.767 44.82 197.319 44.94 197.835 45.18C198.363 45.408 198.825 45.732 199.221 46.152C199.617 46.56 199.929 47.052 200.157 47.628C200.385 48.204 200.499 48.828 200.499 49.5C200.499 50.172 200.385 50.796 200.157 51.372C199.929 51.948 199.617 52.446 199.221 52.866C198.825 53.274 198.363 53.598 197.835 53.838C197.319 54.066 196.767 54.18 196.179 54.18C195.591 54.18 195.093 54.096 194.685 53.928C194.277 53.76 193.941 53.58 193.677 53.388C193.425 53.184 193.239 52.998 193.119 52.83C193.011 52.65 192.957 52.56 192.957 52.56H192.939V57.42H191.499V45ZM195.999 52.83C196.431 52.83 196.833 52.752 197.205 52.596C197.577 52.428 197.901 52.2 198.177 51.912C198.453 51.612 198.669 51.258 198.825 50.85C198.981 50.442 199.059 49.992 199.059 49.5C199.059 49.008 198.981 48.558 198.825 48.15C198.669 47.742 198.453 47.394 198.177 47.106C197.901 46.806 197.577 46.578 197.205 46.422C196.833 46.254 196.431 46.17 195.999 46.17C195.567 46.17 195.165 46.254 194.793 46.422C194.421 46.578 194.097 46.806 193.821 47.106C193.545 47.394 193.329 47.742 193.173 48.15C193.017 48.558 192.939 49.008 192.939 49.5C192.939 49.992 193.017 50.442 193.173 50.85C193.329 51.258 193.545 51.612 193.821 51.912C194.097 52.2 194.421 52.428 194.793 52.596C195.165 52.752 195.567 52.83 195.999 52.83ZM202.125 46.35H200.955V45H202.125V43.02H203.565V45H206.445V46.35H203.565V52.65H206.535V54H202.125V46.35ZM215.905 54.18C215.269 54.18 214.675 54.066 214.123 53.838C213.583 53.598 213.109 53.274 212.701 52.866C212.305 52.446 211.987 51.948 211.747 51.372C211.519 50.796 211.405 50.172 211.405 49.5C211.405 48.828 211.519 48.204 211.747 47.628C211.987 47.052 212.305 46.56 212.701 46.152C213.109 45.732 213.583 45.408 214.123 45.18C214.675 44.94 215.269 44.82 215.905 44.82C216.349 44.82 216.751 44.868 217.111 44.964C217.483 45.048 217.813 45.168 218.101 45.324C218.389 45.468 218.641 45.636 218.857 45.828C219.073 46.02 219.259 46.212 219.415 46.404C219.787 46.872 220.057 47.394 220.225 47.97H218.785C218.641 47.634 218.443 47.334 218.191 47.07C217.975 46.842 217.681 46.638 217.309 46.458C216.937 46.266 216.469 46.17 215.905 46.17C215.473 46.17 215.071 46.254 214.699 46.422C214.327 46.578 214.003 46.806 213.727 47.106C213.451 47.394 213.235 47.742 213.079 48.15C212.923 48.558 212.845 49.008 212.845 49.5C212.845 50.004 212.929 50.46 213.097 50.868C213.265 51.276 213.487 51.624 213.763 51.912C214.039 52.2 214.363 52.428 214.735 52.596C215.107 52.752 215.497 52.83 215.905 52.83C216.493 52.83 216.973 52.728 217.345 52.524C217.729 52.32 218.035 52.092 218.263 51.84C218.527 51.552 218.731 51.222 218.875 50.85H220.315C220.147 51.486 219.871 52.044 219.487 52.524C219.319 52.728 219.127 52.932 218.911 53.136C218.695 53.328 218.437 53.502 218.137 53.658C217.849 53.814 217.519 53.94 217.147 54.036C216.775 54.132 216.361 54.18 215.905 54.18ZM225.542 54.18C224.87 54.18 224.246 54.066 223.67 53.838C223.094 53.598 222.596 53.274 222.176 52.866C221.768 52.446 221.444 51.948 221.204 51.372C220.976 50.796 220.862 50.172 220.862 49.5C220.862 48.828 220.976 48.204 221.204 47.628C221.444 47.052 221.768 46.56 222.176 46.152C222.596 45.732 223.094 45.408 223.67 45.18C224.246 44.94 224.87 44.82 225.542 44.82C226.214 44.82 226.838 44.94 227.414 45.18C227.99 45.408 228.482 45.732 228.89 46.152C229.31 46.56 229.634 47.052 229.862 47.628C230.102 48.204 230.222 48.828 230.222 49.5C230.222 50.172 230.102 50.796 229.862 51.372C229.634 51.948 229.31 52.446 228.89 52.866C228.482 53.274 227.99 53.598 227.414 53.838C226.838 54.066 226.214 54.18 225.542 54.18ZM225.542 52.83C226.01 52.83 226.442 52.752 226.838 52.596C227.234 52.428 227.576 52.2 227.864 51.912C228.152 51.612 228.374 51.258 228.53 50.85C228.698 50.442 228.782 49.992 228.782 49.5C228.782 49.008 228.698 48.558 228.53 48.15C228.374 47.742 228.152 47.394 227.864 47.106C227.576 46.806 227.234 46.578 226.838 46.422C226.442 46.254 226.01 46.17 225.542 46.17C225.074 46.17 224.642 46.254 224.246 46.422C223.85 46.578 223.508 46.806 223.22 47.106C222.932 47.394 222.704 47.742 222.536 48.15C222.38 48.558 222.302 49.008 222.302 49.5C222.302 49.992 222.38 50.442 222.536 50.85C222.704 51.258 222.932 51.612 223.22 51.912C223.508 52.2 223.85 52.428 224.246 52.596C224.642 52.752 225.074 52.83 225.542 52.83ZM231.475 45H232.915V46.35H232.933C233.113 46.062 233.347 45.81 233.635 45.594C233.875 45.402 234.187 45.228 234.571 45.072C234.967 44.904 235.435 44.82 235.975 44.82C236.515 44.82 237.007 44.91 237.451 45.09C237.895 45.258 238.273 45.51 238.585 45.846C238.897 46.182 239.137 46.59 239.305 47.07C239.485 47.538 239.575 48.078 239.575 48.69V54H238.135V48.78C238.135 47.88 237.907 47.22 237.451 46.8C237.007 46.38 236.425 46.17 235.705 46.17C235.297 46.17 234.919 46.242 234.571 46.386C234.235 46.518 233.941 46.716 233.689 46.98C233.449 47.244 233.257 47.562 233.113 47.934C232.981 48.294 232.915 48.696 232.915 49.14V54H231.475V45ZM241.645 46.35H240.475V45H241.645V43.02H243.085V45H245.965V46.35H243.085V52.65H246.055V54H241.645V46.35ZM250.919 54.18C250.331 54.18 249.773 54.066 249.245 53.838C248.729 53.598 248.273 53.274 247.877 52.866C247.481 52.446 247.169 51.948 246.941 51.372C246.713 50.796 246.599 50.172 246.599 49.5C246.599 48.828 246.713 48.204 246.941 47.628C247.169 47.052 247.481 46.56 247.877 46.152C248.273 45.732 248.729 45.408 249.245 45.18C249.773 44.94 250.331 44.82 250.919 44.82C251.507 44.82 252.005 44.904 252.413 45.072C252.821 45.24 253.151 45.426 253.403 45.63C253.667 45.834 253.853 46.026 253.961 46.206C254.081 46.374 254.141 46.458 254.141 46.458H254.159V45H255.599V54H254.159V52.56H254.141C254.141 52.56 254.081 52.65 253.961 52.83C253.853 52.998 253.667 53.184 253.403 53.388C253.151 53.58 252.821 53.76 252.413 53.928C252.005 54.096 251.507 54.18 250.919 54.18ZM251.099 52.83C251.531 52.83 251.933 52.752 252.305 52.596C252.677 52.428 253.001 52.2 253.277 51.912C253.553 51.612 253.769 51.258 253.925 50.85C254.081 50.442 254.159 49.992 254.159 49.5C254.159 49.008 254.081 48.558 253.925 48.15C253.769 47.742 253.553 47.394 253.277 47.106C253.001 46.806 252.677 46.578 252.305 46.422C251.933 46.254 251.531 46.17 251.099 46.17C250.667 46.17 250.265 46.254 249.893 46.422C249.521 46.578 249.197 46.806 248.921 47.106C248.645 47.394 248.429 47.742 248.273 48.15C248.117 48.558 248.039 49.008 248.039 49.5C248.039 49.992 248.117 50.442 248.273 50.85C248.429 51.258 248.645 51.612 248.921 51.912C249.197 52.2 249.521 52.428 249.893 52.596C250.265 52.752 250.667 52.83 251.099 52.83ZM261.365 54.18C260.729 54.18 260.135 54.066 259.583 53.838C259.043 53.598 258.569 53.274 258.161 52.866C257.765 52.446 257.447 51.948 257.207 51.372C256.979 50.796 256.865 50.172 256.865 49.5C256.865 48.828 256.979 48.204 257.207 47.628C257.447 47.052 257.765 46.56 258.161 46.152C258.569 45.732 259.043 45.408 259.583 45.18C260.135 44.94 260.729 44.82 261.365 44.82C261.809 44.82 262.211 44.868 262.571 44.964C262.943 45.048 263.273 45.168 263.561 45.324C263.849 45.468 264.101 45.636 264.317 45.828C264.533 46.02 264.719 46.212 264.875 46.404C265.247 46.872 265.517 47.394 265.685 47.97H264.245C264.101 47.634 263.903 47.334 263.651 47.07C263.435 46.842 263.141 46.638 262.769 46.458C262.397 46.266 261.929 46.17 261.365 46.17C260.933 46.17 260.531 46.254 260.159 46.422C259.787 46.578 259.463 46.806 259.187 47.106C258.911 47.394 258.695 47.742 258.539 48.15C258.383 48.558 258.305 49.008 258.305 49.5C258.305 50.004 258.389 50.46 258.557 50.868C258.725 51.276 258.947 51.624 259.223 51.912C259.499 52.2 259.823 52.428 260.195 52.596C260.567 52.752 260.957 52.83 261.365 52.83C261.953 52.83 262.433 52.728 262.805 52.524C263.189 52.32 263.495 52.092 263.723 51.84C263.987 51.552 264.191 51.222 264.335 50.85H265.775C265.607 51.486 265.331 52.044 264.947 52.524C264.779 52.728 264.587 52.932 264.371 53.136C264.155 53.328 263.897 53.502 263.597 53.658C263.309 53.814 262.979 53.94 262.607 54.036C262.235 54.132 261.821 54.18 261.365 54.18ZM267.223 46.35H266.053V45H267.223V43.02H268.663V45H271.543V46.35H268.663V52.65H271.633V54H267.223V46.35ZM272.717 41.4H274.157V52.65H276.227V54H272.717V41.4ZM281.004 54.18C280.356 54.18 279.75 54.066 279.186 53.838C278.622 53.598 278.136 53.274 277.728 52.866C277.32 52.446 276.996 51.948 276.756 51.372C276.528 50.796 276.414 50.172 276.414 49.5C276.414 48.828 276.528 48.204 276.756 47.628C276.996 47.052 277.32 46.56 277.728 46.152C278.136 45.732 278.622 45.408 279.186 45.18C279.75 44.94 280.356 44.82 281.004 44.82C281.652 44.82 282.258 44.94 282.822 45.18C283.386 45.408 283.872 45.726 284.28 46.134C284.688 46.542 285.006 47.028 285.234 47.592C285.474 48.156 285.594 48.762 285.594 49.41V49.95H277.854C277.902 50.37 278.016 50.76 278.196 51.12C278.376 51.468 278.604 51.768 278.88 52.02C279.156 52.272 279.474 52.47 279.834 52.614C280.206 52.758 280.596 52.83 281.004 52.83C281.544 52.83 282 52.746 282.372 52.578C282.744 52.41 283.05 52.224 283.29 52.02C283.566 51.792 283.794 51.522 283.974 51.21H285.414C285.198 51.774 284.892 52.272 284.496 52.704C284.148 53.076 283.692 53.418 283.128 53.73C282.564 54.03 281.856 54.18 281.004 54.18ZM284.064 48.69C284.016 48.354 283.908 48.036 283.74 47.736C283.584 47.424 283.374 47.154 283.11 46.926C282.846 46.698 282.534 46.518 282.174 46.386C281.826 46.242 281.436 46.17 281.004 46.17C280.572 46.17 280.176 46.242 279.816 46.386C279.468 46.518 279.156 46.698 278.88 46.926C278.616 47.154 278.4 47.424 278.232 47.736C278.064 48.036 277.95 48.354 277.89 48.69H284.064ZM290.361 54.18C289.917 54.18 289.521 54.138 289.173 54.054C288.825 53.97 288.513 53.862 288.237 53.73C287.961 53.586 287.715 53.424 287.499 53.244C287.295 53.064 287.121 52.884 286.977 52.704C286.629 52.272 286.377 51.774 286.221 51.21H287.751C287.871 51.522 288.045 51.792 288.273 52.02C288.477 52.224 288.741 52.41 289.065 52.578C289.401 52.746 289.833 52.83 290.361 52.83C291.177 52.83 291.753 52.698 292.089 52.434C292.437 52.158 292.611 51.84 292.611 51.48C292.611 51.168 292.461 50.928 292.161 50.76C291.873 50.592 291.507 50.448 291.063 50.328C290.631 50.208 290.157 50.094 289.641 49.986C289.125 49.878 288.645 49.722 288.201 49.518C287.769 49.314 287.403 49.044 287.103 48.708C286.815 48.372 286.671 47.916 286.671 47.34C286.671 47.004 286.743 46.686 286.887 46.386C287.031 46.074 287.247 45.804 287.535 45.576C287.823 45.348 288.177 45.168 288.597 45.036C289.029 44.892 289.527 44.82 290.091 44.82C290.511 44.82 290.883 44.862 291.207 44.946C291.543 45.018 291.837 45.12 292.089 45.252C292.353 45.372 292.581 45.516 292.773 45.684C292.965 45.84 293.133 46.002 293.277 46.17C293.589 46.566 293.817 47.016 293.961 47.52H292.431C292.323 47.28 292.167 47.058 291.963 46.854C291.795 46.686 291.555 46.53 291.243 46.386C290.943 46.242 290.559 46.17 290.091 46.17C289.755 46.17 289.461 46.206 289.209 46.278C288.957 46.35 288.747 46.446 288.579 46.566C288.423 46.674 288.303 46.8 288.219 46.944C288.147 47.076 288.111 47.208 288.111 47.34C288.111 47.652 288.255 47.892 288.543 48.06C288.843 48.228 289.209 48.372 289.641 48.492C290.085 48.612 290.565 48.726 291.081 48.834C291.597 48.942 292.071 49.098 292.503 49.302C292.947 49.506 293.313 49.782 293.601 50.13C293.901 50.466 294.051 50.916 294.051 51.48C294.051 51.84 293.973 52.182 293.817 52.506C293.661 52.83 293.427 53.118 293.115 53.37C292.803 53.622 292.419 53.82 291.963 53.964C291.507 54.108 290.973 54.18 290.361 54.18ZM298.817 54.18C298.373 54.18 297.977 54.138 297.629 54.054C297.281 53.97 296.969 53.862 296.693 53.73C296.417 53.586 296.171 53.424 295.955 53.244C295.751 53.064 295.577 52.884 295.433 52.704C295.085 52.272 294.833 51.774 294.677 51.21H296.207C296.327 51.522 296.501 51.792 296.729 52.02C296.933 52.224 297.197 52.41 297.521 52.578C297.857 52.746 298.289 52.83 298.817 52.83C299.633 52.83 300.209 52.698 300.545 52.434C300.893 52.158 301.067 51.84 301.067 51.48C301.067 51.168 300.917 50.928 300.617 50.76C300.329 50.592 299.963 50.448 299.519 50.328C299.087 50.208 298.613 50.094 298.097 49.986C297.581 49.878 297.101 49.722 296.657 49.518C296.225 49.314 295.859 49.044 295.559 48.708C295.271 48.372 295.127 47.916 295.127 47.34C295.127 47.004 295.199 46.686 295.343 46.386C295.487 46.074 295.703 45.804 295.991 45.576C296.279 45.348 296.633 45.168 297.053 45.036C297.485 44.892 297.983 44.82 298.547 44.82C298.967 44.82 299.339 44.862 299.663 44.946C299.999 45.018 300.293 45.12 300.545 45.252C300.809 45.372 301.037 45.516 301.229 45.684C301.421 45.84 301.589 46.002 301.733 46.17C302.045 46.566 302.273 47.016 302.417 47.52H300.887C300.779 47.28 300.623 47.058 300.419 46.854C300.251 46.686 300.011 46.53 299.699 46.386C299.399 46.242 299.015 46.17 298.547 46.17C298.211 46.17 297.917 46.206 297.665 46.278C297.413 46.35 297.203 46.446 297.035 46.566C296.879 46.674 296.759 46.8 296.675 46.944C296.603 47.076 296.567 47.208 296.567 47.34C296.567 47.652 296.711 47.892 296.999 48.06C297.299 48.228 297.665 48.372 298.097 48.492C298.541 48.612 299.021 48.726 299.537 48.834C300.053 48.942 300.527 49.098 300.959 49.302C301.403 49.506 301.769 49.782 302.057 50.13C302.357 50.466 302.507 50.916 302.507 51.48C302.507 51.84 302.429 52.182 302.273 52.506C302.117 52.83 301.883 53.118 301.571 53.37C301.259 53.622 300.875 53.82 300.419 53.964C299.963 54.108 299.429 54.18 298.817 54.18ZM308.088 45H309.528V46.44H309.546C309.546 46.44 309.6 46.356 309.708 46.188C309.828 46.008 310.014 45.822 310.266 45.63C310.53 45.426 310.866 45.24 311.274 45.072C311.682 44.904 312.18 44.82 312.768 44.82C313.356 44.82 313.908 44.94 314.424 45.18C314.952 45.408 315.414 45.732 315.81 46.152C316.206 46.56 316.518 47.052 316.746 47.628C316.974 48.204 317.088 48.828 317.088 49.5C317.088 50.172 316.974 50.796 316.746 51.372C316.518 51.948 316.206 52.446 315.81 52.866C315.414 53.274 314.952 53.598 314.424 53.838C313.908 54.066 313.356 54.18 312.768 54.18C312.18 54.18 311.682 54.096 311.274 53.928C310.866 53.76 310.53 53.58 310.266 53.388C310.014 53.184 309.828 52.998 309.708 52.83C309.6 52.65 309.546 52.56 309.546 52.56H309.528V57.42H308.088V45ZM312.588 52.83C313.02 52.83 313.422 52.752 313.794 52.596C314.166 52.428 314.49 52.2 314.766 51.912C315.042 51.612 315.258 51.258 315.414 50.85C315.57 50.442 315.648 49.992 315.648 49.5C315.648 49.008 315.57 48.558 315.414 48.15C315.258 47.742 315.042 47.394 314.766 47.106C314.49 46.806 314.166 46.578 313.794 46.422C313.422 46.254 313.02 46.17 312.588 46.17C312.156 46.17 311.754 46.254 311.382 46.422C311.01 46.578 310.686 46.806 310.41 47.106C310.134 47.394 309.918 47.742 309.762 48.15C309.606 48.558 309.528 49.008 309.528 49.5C309.528 49.992 309.606 50.442 309.762 50.85C309.918 51.258 310.134 51.612 310.41 51.912C310.686 52.2 311.01 52.428 311.382 52.596C311.754 52.752 312.156 52.83 312.588 52.83ZM322.134 54.18C321.546 54.18 320.988 54.066 320.46 53.838C319.944 53.598 319.488 53.274 319.092 52.866C318.696 52.446 318.384 51.948 318.156 51.372C317.928 50.796 317.814 50.172 317.814 49.5C317.814 48.828 317.928 48.204 318.156 47.628C318.384 47.052 318.696 46.56 319.092 46.152C319.488 45.732 319.944 45.408 320.46 45.18C320.988 44.94 321.546 44.82 322.134 44.82C322.722 44.82 323.22 44.904 323.628 45.072C324.036 45.24 324.366 45.426 324.618 45.63C324.882 45.834 325.068 46.026 325.176 46.206C325.296 46.374 325.356 46.458 325.356 46.458H325.374V45H326.814V54H325.374V52.56H325.356C325.356 52.56 325.296 52.65 325.176 52.83C325.068 52.998 324.882 53.184 324.618 53.388C324.366 53.58 324.036 53.76 323.628 53.928C323.22 54.096 322.722 54.18 322.134 54.18ZM322.314 52.83C322.746 52.83 323.148 52.752 323.52 52.596C323.892 52.428 324.216 52.2 324.492 51.912C324.768 51.612 324.984 51.258 325.14 50.85C325.296 50.442 325.374 49.992 325.374 49.5C325.374 49.008 325.296 48.558 325.14 48.15C324.984 47.742 324.768 47.394 324.492 47.106C324.216 46.806 323.892 46.578 323.52 46.422C323.148 46.254 322.746 46.17 322.314 46.17C321.882 46.17 321.48 46.254 321.108 46.422C320.736 46.578 320.412 46.806 320.136 47.106C319.86 47.394 319.644 47.742 319.488 48.15C319.332 48.558 319.254 49.008 319.254 49.5C319.254 49.992 319.332 50.442 319.488 50.85C319.644 51.258 319.86 51.612 320.136 51.912C320.412 52.2 320.736 52.428 321.108 52.596C321.48 52.752 321.882 52.83 322.314 52.83ZM332.22 54H330.15L327.72 45H329.25L331.23 52.65H332.58L334.92 45H336.45L332.67 57.42H331.14L332.22 54ZM336.988 45H338.428V46.35H338.446C338.614 46.062 338.836 45.81 339.112 45.594C339.352 45.402 339.658 45.228 340.03 45.072C340.402 44.904 340.858 44.82 341.398 44.82C341.938 44.82 342.388 44.916 342.748 45.108C343.12 45.288 343.42 45.492 343.648 45.72C343.912 45.984 344.122 46.284 344.278 46.62H344.368C344.56 46.284 344.812 45.984 345.124 45.72C345.388 45.492 345.73 45.288 346.15 45.108C346.57 44.916 347.086 44.82 347.698 44.82C348.166 44.82 348.604 44.91 349.012 45.09C349.42 45.258 349.774 45.51 350.074 45.846C350.374 46.182 350.608 46.59 350.776 47.07C350.944 47.538 351.028 48.078 351.028 48.69V54H349.588V48.78C349.588 47.916 349.384 47.268 348.976 46.836C348.58 46.392 348.064 46.17 347.428 46.17C347.068 46.17 346.726 46.248 346.402 46.404C346.078 46.548 345.79 46.746 345.538 46.998C345.286 47.25 345.088 47.544 344.944 47.88C344.8 48.216 344.728 48.576 344.728 48.96V54H343.288V48.78C343.288 47.928 343.084 47.28 342.676 46.836C342.28 46.392 341.764 46.17 341.128 46.17C340.768 46.17 340.426 46.248 340.102 46.404C339.778 46.548 339.49 46.746 339.238 46.998C338.986 47.25 338.788 47.544 338.644 47.88C338.5 48.216 338.428 48.576 338.428 48.96V54H336.988V45ZM356.789 54.18C356.141 54.18 355.535 54.066 354.971 53.838C354.407 53.598 353.921 53.274 353.513 52.866C353.105 52.446 352.781 51.948 352.541 51.372C352.313 50.796 352.199 50.172 352.199 49.5C352.199 48.828 352.313 48.204 352.541 47.628C352.781 47.052 353.105 46.56 353.513 46.152C353.921 45.732 354.407 45.408 354.971 45.18C355.535 44.94 356.141 44.82 356.789 44.82C357.437 44.82 358.043 44.94 358.607 45.18C359.171 45.408 359.657 45.726 360.065 46.134C360.473 46.542 360.791 47.028 361.019 47.592C361.259 48.156 361.379 48.762 361.379 49.41V49.95H353.639C353.687 50.37 353.801 50.76 353.981 51.12C354.161 51.468 354.389 51.768 354.665 52.02C354.941 52.272 355.259 52.47 355.619 52.614C355.991 52.758 356.381 52.83 356.789 52.83C357.329 52.83 357.785 52.746 358.157 52.578C358.529 52.41 358.835 52.224 359.075 52.02C359.351 51.792 359.579 51.522 359.759 51.21H361.199C360.983 51.774 360.677 52.272 360.281 52.704C359.933 53.076 359.477 53.418 358.913 53.73C358.349 54.03 357.641 54.18 356.789 54.18ZM359.849 48.69C359.801 48.354 359.693 48.036 359.525 47.736C359.369 47.424 359.159 47.154 358.895 46.926C358.631 46.698 358.319 46.518 357.959 46.386C357.611 46.242 357.221 46.17 356.789 46.17C356.357 46.17 355.961 46.242 355.601 46.386C355.253 46.518 354.941 46.698 354.665 46.926C354.401 47.154 354.185 47.424 354.017 47.736C353.849 48.036 353.735 48.354 353.675 48.69H359.849ZM362.636 45H364.076V46.35H364.094C364.274 46.062 364.508 45.81 364.796 45.594C365.036 45.402 365.348 45.228 365.732 45.072C366.128 44.904 366.596 44.82 367.136 44.82C367.676 44.82 368.168 44.91 368.612 45.09C369.056 45.258 369.434 45.51 369.746 45.846C370.058 46.182 370.298 46.59 370.466 47.07C370.646 47.538 370.736 48.078 370.736 48.69V54H369.296V48.78C369.296 47.88 369.068 47.22 368.612 46.8C368.168 46.38 367.586 46.17 366.866 46.17C366.458 46.17 366.08 46.242 365.732 46.386C365.396 46.518 365.102 46.716 364.85 46.98C364.61 47.244 364.418 47.562 364.274 47.934C364.142 48.294 364.076 48.696 364.076 49.14V54H362.636V45ZM372.806 46.35H371.636V45H372.806V43.02H374.246V45H377.126V46.35H374.246V52.65H377.216V54H372.806V46.35ZM381.81 54.18C381.366 54.18 380.97 54.138 380.622 54.054C380.274 53.97 379.962 53.862 379.686 53.73C379.41 53.586 379.164 53.424 378.948 53.244C378.744 53.064 378.57 52.884 378.426 52.704C378.078 52.272 377.826 51.774 377.67 51.21H379.2C379.32 51.522 379.494 51.792 379.722 52.02C379.926 52.224 380.19 52.41 380.514 52.578C380.85 52.746 381.282 52.83 381.81 52.83C382.626 52.83 383.202 52.698 383.538 52.434C383.886 52.158 384.06 51.84 384.06 51.48C384.06 51.168 383.91 50.928 383.61 50.76C383.322 50.592 382.956 50.448 382.512 50.328C382.08 50.208 381.606 50.094 381.09 49.986C380.574 49.878 380.094 49.722 379.65 49.518C379.218 49.314 378.852 49.044 378.552 48.708C378.264 48.372 378.12 47.916 378.12 47.34C378.12 47.004 378.192 46.686 378.336 46.386C378.48 46.074 378.696 45.804 378.984 45.576C379.272 45.348 379.626 45.168 380.046 45.036C380.478 44.892 380.976 44.82 381.54 44.82C381.96 44.82 382.332 44.862 382.656 44.946C382.992 45.018 383.286 45.12 383.538 45.252C383.802 45.372 384.03 45.516 384.222 45.684C384.414 45.84 384.582 46.002 384.726 46.17C385.038 46.566 385.266 47.016 385.41 47.52H383.88C383.772 47.28 383.616 47.058 383.412 46.854C383.244 46.686 383.004 46.53 382.692 46.386C382.392 46.242 382.008 46.17 381.54 46.17C381.204 46.17 380.91 46.206 380.658 46.278C380.406 46.35 380.196 46.446 380.028 46.566C379.872 46.674 379.752 46.8 379.668 46.944C379.596 47.076 379.56 47.208 379.56 47.34C379.56 47.652 379.704 47.892 379.992 48.06C380.292 48.228 380.658 48.372 381.09 48.492C381.534 48.612 382.014 48.726 382.53 48.834C383.046 48.942 383.52 49.098 383.952 49.302C384.396 49.506 384.762 49.782 385.05 50.13C385.35 50.466 385.5 50.916 385.5 51.48C385.5 51.84 385.422 52.182 385.266 52.506C385.11 52.83 384.876 53.118 384.564 53.37C384.252 53.622 383.868 53.82 383.412 53.964C382.956 54.108 382.422 54.18 381.81 54.18ZM395.22 54.18C394.548 54.18 393.924 54.066 393.348 53.838C392.772 53.598 392.274 53.274 391.854 52.866C391.446 52.446 391.122 51.948 390.882 51.372C390.654 50.796 390.54 50.172 390.54 49.5C390.54 48.828 390.654 48.204 390.882 47.628C391.122 47.052 391.446 46.56 391.854 46.152C392.274 45.732 392.772 45.408 393.348 45.18C393.924 44.94 394.548 44.82 395.22 44.82C395.892 44.82 396.516 44.94 397.092 45.18C397.668 45.408 398.16 45.732 398.568 46.152C398.988 46.56 399.312 47.052 399.54 47.628C399.78 48.204 399.9 48.828 399.9 49.5C399.9 50.172 399.78 50.796 399.54 51.372C399.312 51.948 398.988 52.446 398.568 52.866C398.16 53.274 397.668 53.598 397.092 53.838C396.516 54.066 395.892 54.18 395.22 54.18ZM395.22 52.83C395.688 52.83 396.12 52.752 396.516 52.596C396.912 52.428 397.254 52.2 397.542 51.912C397.83 51.612 398.052 51.258 398.208 50.85C398.376 50.442 398.46 49.992 398.46 49.5C398.46 49.008 398.376 48.558 398.208 48.15C398.052 47.742 397.83 47.394 397.542 47.106C397.254 46.806 396.912 46.578 396.516 46.422C396.12 46.254 395.688 46.17 395.22 46.17C394.752 46.17 394.32 46.254 393.924 46.422C393.528 46.578 393.186 46.806 392.898 47.106C392.61 47.394 392.382 47.742 392.214 48.15C392.058 48.558 391.98 49.008 391.98 49.5C391.98 49.992 392.058 50.442 392.214 50.85C392.382 51.258 392.61 51.612 392.898 51.912C393.186 52.2 393.528 52.428 393.924 52.596C394.32 52.752 394.752 52.83 395.22 52.83ZM401.153 45H402.593V46.35H402.611C402.791 46.062 403.025 45.81 403.313 45.594C403.553 45.402 403.865 45.228 404.249 45.072C404.645 44.904 405.113 44.82 405.653 44.82C406.193 44.82 406.685 44.91 407.129 45.09C407.573 45.258 407.951 45.51 408.263 45.846C408.575 46.182 408.815 46.59 408.983 47.07C409.163 47.538 409.253 48.078 409.253 48.69V54H407.813V48.78C407.813 47.88 407.585 47.22 407.129 46.8C406.685 46.38 406.103 46.17 405.383 46.17C404.975 46.17 404.597 46.242 404.249 46.386C403.913 46.518 403.619 46.716 403.367 46.98C403.127 47.244 402.935 47.562 402.791 47.934C402.659 48.294 402.593 48.696 402.593 49.14V54H401.153V45ZM418.798 54.18C418.354 54.18 417.958 54.138 417.61 54.054C417.262 53.97 416.95 53.862 416.674 53.73C416.398 53.586 416.152 53.424 415.936 53.244C415.732 53.064 415.558 52.884 415.414 52.704C415.066 52.272 414.814 51.774 414.658 51.21H416.188C416.308 51.522 416.482 51.792 416.71 52.02C416.914 52.224 417.178 52.41 417.502 52.578C417.838 52.746 418.27 52.83 418.798 52.83C419.614 52.83 420.19 52.698 420.526 52.434C420.874 52.158 421.048 51.84 421.048 51.48C421.048 51.168 420.898 50.928 420.598 50.76C420.31 50.592 419.944 50.448 419.5 50.328C419.068 50.208 418.594 50.094 418.078 49.986C417.562 49.878 417.082 49.722 416.638 49.518C416.206 49.314 415.84 49.044 415.54 48.708C415.252 48.372 415.108 47.916 415.108 47.34C415.108 47.004 415.18 46.686 415.324 46.386C415.468 46.074 415.684 45.804 415.972 45.576C416.26 45.348 416.614 45.168 417.034 45.036C417.466 44.892 417.964 44.82 418.528 44.82C418.948 44.82 419.32 44.862 419.644 44.946C419.98 45.018 420.274 45.12 420.526 45.252C420.79 45.372 421.018 45.516 421.21 45.684C421.402 45.84 421.57 46.002 421.714 46.17C422.026 46.566 422.254 47.016 422.398 47.52H420.868C420.76 47.28 420.604 47.058 420.4 46.854C420.232 46.686 419.992 46.53 419.68 46.386C419.38 46.242 418.996 46.17 418.528 46.17C418.192 46.17 417.898 46.206 417.646 46.278C417.394 46.35 417.184 46.446 417.016 46.566C416.86 46.674 416.74 46.8 416.656 46.944C416.584 47.076 416.548 47.208 416.548 47.34C416.548 47.652 416.692 47.892 416.98 48.06C417.28 48.228 417.646 48.372 418.078 48.492C418.522 48.612 419.002 48.726 419.518 48.834C420.034 48.942 420.508 49.098 420.94 49.302C421.384 49.506 421.75 49.782 422.038 50.13C422.338 50.466 422.488 50.916 422.488 51.48C422.488 51.84 422.41 52.182 422.254 52.506C422.098 52.83 421.864 53.118 421.552 53.37C421.24 53.622 420.856 53.82 420.4 53.964C419.944 54.108 419.41 54.18 418.798 54.18ZM423.743 45H425.183V46.35H425.201C425.369 46.062 425.591 45.81 425.867 45.594C426.107 45.402 426.413 45.228 426.785 45.072C427.157 44.904 427.613 44.82 428.153 44.82C428.693 44.82 429.143 44.916 429.503 45.108C429.875 45.288 430.175 45.492 430.403 45.72C430.667 45.984 430.877 46.284 431.033 46.62H431.123C431.315 46.284 431.567 45.984 431.879 45.72C432.143 45.492 432.485 45.288 432.905 45.108C433.325 44.916 433.841 44.82 434.453 44.82C434.921 44.82 435.359 44.91 435.767 45.09C436.175 45.258 436.529 45.51 436.829 45.846C437.129 46.182 437.363 46.59 437.531 47.07C437.699 47.538 437.783 48.078 437.783 48.69V54H436.343V48.78C436.343 47.916 436.139 47.268 435.731 46.836C435.335 46.392 434.819 46.17 434.183 46.17C433.823 46.17 433.481 46.248 433.157 46.404C432.833 46.548 432.545 46.746 432.293 46.998C432.041 47.25 431.843 47.544 431.699 47.88C431.555 48.216 431.483 48.576 431.483 48.96V54H430.043V48.78C430.043 47.928 429.839 47.28 429.431 46.836C429.035 46.392 428.519 46.17 427.883 46.17C427.523 46.17 427.181 46.248 426.857 46.404C426.533 46.548 426.245 46.746 425.993 46.998C425.741 47.25 425.543 47.544 425.399 47.88C425.255 48.216 425.183 48.576 425.183 48.96V54H423.743V45ZM443.274 54.18C442.686 54.18 442.128 54.066 441.6 53.838C441.084 53.598 440.628 53.274 440.232 52.866C439.836 52.446 439.524 51.948 439.296 51.372C439.068 50.796 438.954 50.172 438.954 49.5C438.954 48.828 439.068 48.204 439.296 47.628C439.524 47.052 439.836 46.56 440.232 46.152C440.628 45.732 441.084 45.408 441.6 45.18C442.128 44.94 442.686 44.82 443.274 44.82C443.862 44.82 444.36 44.904 444.768 45.072C445.176 45.24 445.506 45.426 445.758 45.63C446.022 45.834 446.208 46.026 446.316 46.206C446.436 46.374 446.496 46.458 446.496 46.458H446.514V45H447.954V54H446.514V52.56H446.496C446.496 52.56 446.436 52.65 446.316 52.83C446.208 52.998 446.022 53.184 445.758 53.388C445.506 53.58 445.176 53.76 444.768 53.928C444.36 54.096 443.862 54.18 443.274 54.18ZM443.454 52.83C443.886 52.83 444.288 52.752 444.66 52.596C445.032 52.428 445.356 52.2 445.632 51.912C445.908 51.612 446.124 51.258 446.28 50.85C446.436 50.442 446.514 49.992 446.514 49.5C446.514 49.008 446.436 48.558 446.28 48.15C446.124 47.742 445.908 47.394 445.632 47.106C445.356 46.806 445.032 46.578 444.66 46.422C444.288 46.254 443.886 46.17 443.454 46.17C443.022 46.17 442.62 46.254 442.248 46.422C441.876 46.578 441.552 46.806 441.276 47.106C441 47.394 440.784 47.742 440.628 48.15C440.472 48.558 440.394 49.008 440.394 49.5C440.394 49.992 440.472 50.442 440.628 50.85C440.784 51.258 441 51.612 441.276 51.912C441.552 52.2 441.876 52.428 442.248 52.596C442.62 52.752 443.022 52.83 443.454 52.83ZM449.76 45H451.2V46.44H451.218C451.374 46.152 451.578 45.9 451.83 45.684C452.046 45.492 452.328 45.318 452.676 45.162C453.024 44.994 453.462 44.91 453.99 44.91H455.07V46.35H453.99C453.582 46.35 453.204 46.422 452.856 46.566C452.52 46.698 452.226 46.89 451.974 47.142C451.734 47.382 451.542 47.676 451.398 48.024C451.266 48.36 451.2 48.732 451.2 49.14V54H449.76V45ZM456.238 46.35H455.068V45H456.238V43.02H457.678V45H460.558V46.35H457.678V52.65H460.648V54H456.238V46.35ZM461.733 45H463.173V46.44H463.191C463.191 46.44 463.245 46.356 463.353 46.188C463.473 46.008 463.659 45.822 463.911 45.63C464.175 45.426 464.511 45.24 464.919 45.072C465.327 44.904 465.825 44.82 466.413 44.82C467.001 44.82 467.553 44.94 468.069 45.18C468.597 45.408 469.059 45.732 469.455 46.152C469.851 46.56 470.163 47.052 470.391 47.628C470.619 48.204 470.733 48.828 470.733 49.5C470.733 50.172 470.619 50.796 470.391 51.372C470.163 51.948 469.851 52.446 469.455 52.866C469.059 53.274 468.597 53.598 468.069 53.838C467.553 54.066 467.001 54.18 466.413 54.18C465.825 54.18 465.327 54.096 464.919 53.928C464.511 53.76 464.175 53.58 463.911 53.388C463.659 53.184 463.473 52.998 463.353 52.83C463.245 52.65 463.191 52.56 463.191 52.56H463.173V57.42H461.733V45ZM466.233 52.83C466.665 52.83 467.067 52.752 467.439 52.596C467.811 52.428 468.135 52.2 468.411 51.912C468.687 51.612 468.903 51.258 469.059 50.85C469.215 50.442 469.293 49.992 469.293 49.5C469.293 49.008 469.215 48.558 469.059 48.15C468.903 47.742 468.687 47.394 468.411 47.106C468.135 46.806 467.811 46.578 467.439 46.422C467.067 46.254 466.665 46.17 466.233 46.17C465.801 46.17 465.399 46.254 465.027 46.422C464.655 46.578 464.331 46.806 464.055 47.106C463.779 47.394 463.563 47.742 463.407 48.15C463.251 48.558 463.173 49.008 463.173 49.5C463.173 49.992 463.251 50.442 463.407 50.85C463.563 51.258 463.779 51.612 464.055 51.912C464.331 52.2 464.655 52.428 465.027 52.596C465.399 52.752 465.801 52.83 466.233 52.83ZM471.999 41.4H473.439V46.35H473.457C473.637 46.062 473.871 45.81 474.159 45.594C474.399 45.402 474.711 45.228 475.095 45.072C475.491 44.904 475.959 44.82 476.499 44.82C477.039 44.82 477.531 44.91 477.975 45.09C478.419 45.258 478.797 45.51 479.109 45.846C479.421 46.182 479.661 46.59 479.829 47.07C480.009 47.538 480.099 48.078 480.099 48.69V54H478.659V48.78C478.659 47.88 478.431 47.22 477.975 46.8C477.531 46.38 476.949 46.17 476.229 46.17C475.821 46.17 475.443 46.242 475.095 46.386C474.759 46.518 474.465 46.716 474.213 46.98C473.973 47.244 473.781 47.562 473.637 47.934C473.505 48.294 473.439 48.696 473.439 49.14V54H471.999V41.4ZM485.86 54.18C485.188 54.18 484.564 54.066 483.988 53.838C483.412 53.598 482.914 53.274 482.494 52.866C482.086 52.446 481.762 51.948 481.522 51.372C481.294 50.796 481.18 50.172 481.18 49.5C481.18 48.828 481.294 48.204 481.522 47.628C481.762 47.052 482.086 46.56 482.494 46.152C482.914 45.732 483.412 45.408 483.988 45.18C484.564 44.94 485.188 44.82 485.86 44.82C486.532 44.82 487.156 44.94 487.732 45.18C488.308 45.408 488.8 45.732 489.208 46.152C489.628 46.56 489.952 47.052 490.18 47.628C490.42 48.204 490.54 48.828 490.54 49.5C490.54 50.172 490.42 50.796 490.18 51.372C489.952 51.948 489.628 52.446 489.208 52.866C488.8 53.274 488.308 53.598 487.732 53.838C487.156 54.066 486.532 54.18 485.86 54.18ZM485.86 52.83C486.328 52.83 486.76 52.752 487.156 52.596C487.552 52.428 487.894 52.2 488.182 51.912C488.47 51.612 488.692 51.258 488.848 50.85C489.016 50.442 489.1 49.992 489.1 49.5C489.1 49.008 489.016 48.558 488.848 48.15C488.692 47.742 488.47 47.394 488.182 47.106C487.894 46.806 487.552 46.578 487.156 46.422C486.76 46.254 486.328 46.17 485.86 46.17C485.392 46.17 484.96 46.254 484.564 46.422C484.168 46.578 483.826 46.806 483.538 47.106C483.25 47.394 483.022 47.742 482.854 48.15C482.698 48.558 482.62 49.008 482.62 49.5C482.62 49.992 482.698 50.442 482.854 50.85C483.022 51.258 483.25 51.612 483.538 51.912C483.826 52.2 484.168 52.428 484.564 52.596C484.96 52.752 485.392 52.83 485.86 52.83ZM491.793 45H493.233V46.35H493.251C493.431 46.062 493.665 45.81 493.953 45.594C494.193 45.402 494.505 45.228 494.889 45.072C495.285 44.904 495.753 44.82 496.293 44.82C496.833 44.82 497.325 44.91 497.769 45.09C498.213 45.258 498.591 45.51 498.903 45.846C499.215 46.182 499.455 46.59 499.623 47.07C499.803 47.538 499.893 48.078 499.893 48.69V54H498.453V48.78C498.453 47.88 498.225 47.22 497.769 46.8C497.325 46.38 496.743 46.17 496.023 46.17C495.615 46.17 495.237 46.242 494.889 46.386C494.553 46.518 494.259 46.716 494.007 46.98C493.767 47.244 493.575 47.562 493.431 47.934C493.299 48.294 493.233 48.696 493.233 49.14V54H491.793V45ZM505.653 54.18C505.005 54.18 504.399 54.066 503.835 53.838C503.271 53.598 502.785 53.274 502.377 52.866C501.969 52.446 501.645 51.948 501.405 51.372C501.177 50.796 501.063 50.172 501.063 49.5C501.063 48.828 501.177 48.204 501.405 47.628C501.645 47.052 501.969 46.56 502.377 46.152C502.785 45.732 503.271 45.408 503.835 45.18C504.399 44.94 505.005 44.82 505.653 44.82C506.301 44.82 506.907 44.94 507.471 45.18C508.035 45.408 508.521 45.726 508.929 46.134C509.337 46.542 509.655 47.028 509.883 47.592C510.123 48.156 510.243 48.762 510.243 49.41V49.95H502.503C502.551 50.37 502.665 50.76 502.845 51.12C503.025 51.468 503.253 51.768 503.529 52.02C503.805 52.272 504.123 52.47 504.483 52.614C504.855 52.758 505.245 52.83 505.653 52.83C506.193 52.83 506.649 52.746 507.021 52.578C507.393 52.41 507.699 52.224 507.939 52.02C508.215 51.792 508.443 51.522 508.623 51.21H510.063C509.847 51.774 509.541 52.272 509.145 52.704C508.797 53.076 508.341 53.418 507.777 53.73C507.213 54.03 506.505 54.18 505.653 54.18ZM508.713 48.69C508.665 48.354 508.557 48.036 508.389 47.736C508.233 47.424 508.023 47.154 507.759 46.926C507.495 46.698 507.183 46.518 506.823 46.386C506.475 46.242 506.085 46.17 505.653 46.17C505.221 46.17 504.825 46.242 504.465 46.386C504.117 46.518 503.805 46.698 503.529 46.926C503.265 47.154 503.049 47.424 502.881 47.736C502.713 48.036 502.599 48.354 502.539 48.69H508.713ZM515.01 54.18C514.566 54.18 514.17 54.138 513.822 54.054C513.474 53.97 513.162 53.862 512.886 53.73C512.61 53.586 512.364 53.424 512.148 53.244C511.944 53.064 511.77 52.884 511.626 52.704C511.278 52.272 511.026 51.774 510.87 51.21H512.4C512.52 51.522 512.694 51.792 512.922 52.02C513.126 52.224 513.39 52.41 513.714 52.578C514.05 52.746 514.482 52.83 515.01 52.83C515.826 52.83 516.402 52.698 516.738 52.434C517.086 52.158 517.26 51.84 517.26 51.48C517.26 51.168 517.11 50.928 516.81 50.76C516.522 50.592 516.156 50.448 515.712 50.328C515.28 50.208 514.806 50.094 514.29 49.986C513.774 49.878 513.294 49.722 512.85 49.518C512.418 49.314 512.052 49.044 511.752 48.708C511.464 48.372 511.32 47.916 511.32 47.34C511.32 47.004 511.392 46.686 511.536 46.386C511.68 46.074 511.896 45.804 512.184 45.576C512.472 45.348 512.826 45.168 513.246 45.036C513.678 44.892 514.176 44.82 514.74 44.82C515.16 44.82 515.532 44.862 515.856 44.946C516.192 45.018 516.486 45.12 516.738 45.252C517.002 45.372 517.23 45.516 517.422 45.684C517.614 45.84 517.782 46.002 517.926 46.17C518.238 46.566 518.466 47.016 518.61 47.52H517.08C516.972 47.28 516.816 47.058 516.612 46.854C516.444 46.686 516.204 46.53 515.892 46.386C515.592 46.242 515.208 46.17 514.74 46.17C514.404 46.17 514.11 46.206 513.858 46.278C513.606 46.35 513.396 46.446 513.228 46.566C513.072 46.674 512.952 46.8 512.868 46.944C512.796 47.076 512.76 47.208 512.76 47.34C512.76 47.652 512.904 47.892 513.192 48.06C513.492 48.228 513.858 48.372 514.29 48.492C514.734 48.612 515.214 48.726 515.73 48.834C516.246 48.942 516.72 49.098 517.152 49.302C517.596 49.506 517.962 49.782 518.25 50.13C518.55 50.466 518.7 50.916 518.7 51.48C518.7 51.84 518.622 52.182 518.466 52.506C518.31 52.83 518.076 53.118 517.764 53.37C517.452 53.622 517.068 53.82 516.612 53.964C516.156 54.108 515.622 54.18 515.01 54.18ZM519.596 55.53C520.316 55.446 520.676 55.056 520.676 54.36V54.09C520.652 54.114 520.616 54.132 520.568 54.144C520.472 54.168 520.388 54.18 520.316 54.18C520.088 54.18 519.896 54.096 519.74 53.928C519.584 53.76 519.506 53.532 519.506 53.244C519.506 52.896 519.608 52.62 519.812 52.416C520.016 52.212 520.274 52.11 520.586 52.11C520.898 52.11 521.156 52.236 521.36 52.488C521.564 52.728 521.666 53.142 521.666 53.73C521.666 54.546 521.48 55.158 521.108 55.566C520.736 55.974 520.232 56.202 519.596 56.25V55.53ZM527.7 46.35H526.53V45H527.7V43.02H529.14V45H532.02V46.35H529.14V52.65H532.11V54H527.7V46.35ZM536.974 54.18C536.386 54.18 535.828 54.066 535.3 53.838C534.784 53.598 534.328 53.274 533.932 52.866C533.536 52.446 533.224 51.948 532.996 51.372C532.768 50.796 532.654 50.172 532.654 49.5C532.654 48.828 532.768 48.204 532.996 47.628C533.224 47.052 533.536 46.56 533.932 46.152C534.328 45.732 534.784 45.408 535.3 45.18C535.828 44.94 536.386 44.82 536.974 44.82C537.562 44.82 538.06 44.904 538.468 45.072C538.876 45.24 539.206 45.426 539.458 45.63C539.722 45.834 539.908 46.026 540.016 46.206C540.136 46.374 540.196 46.458 540.196 46.458H540.214V45H541.654V54H540.214V52.56H540.196C540.196 52.56 540.136 52.65 540.016 52.83C539.908 52.998 539.722 53.184 539.458 53.388C539.206 53.58 538.876 53.76 538.468 53.928C538.06 54.096 537.562 54.18 536.974 54.18ZM537.154 52.83C537.586 52.83 537.988 52.752 538.36 52.596C538.732 52.428 539.056 52.2 539.332 51.912C539.608 51.612 539.824 51.258 539.98 50.85C540.136 50.442 540.214 49.992 540.214 49.5C540.214 49.008 540.136 48.558 539.98 48.15C539.824 47.742 539.608 47.394 539.332 47.106C539.056 46.806 538.732 46.578 538.36 46.422C537.988 46.254 537.586 46.17 537.154 46.17C536.722 46.17 536.32 46.254 535.948 46.422C535.576 46.578 535.252 46.806 534.976 47.106C534.7 47.394 534.484 47.742 534.328 48.15C534.172 48.558 534.094 49.008 534.094 49.5C534.094 49.992 534.172 50.442 534.328 50.85C534.484 51.258 534.7 51.612 534.976 51.912C535.252 52.2 535.576 52.428 535.948 52.596C536.32 52.752 536.722 52.83 537.154 52.83ZM548.14 54.18C547.552 54.18 547.054 54.096 546.646 53.928C546.238 53.76 545.902 53.58 545.638 53.388C545.386 53.184 545.2 52.998 545.08 52.83C544.972 52.65 544.918 52.56 544.918 52.56H544.9V54H543.46V41.4H544.9V46.44H544.918C544.918 46.44 544.972 46.356 545.08 46.188C545.2 46.008 545.386 45.822 545.638 45.63C545.902 45.426 546.238 45.24 546.646 45.072C547.054 44.904 547.552 44.82 548.14 44.82C548.728 44.82 549.28 44.94 549.796 45.18C550.324 45.408 550.786 45.732 551.182 46.152C551.578 46.56 551.89 47.052 552.118 47.628C552.346 48.204 552.46 48.828 552.46 49.5C552.46 50.172 552.346 50.796 552.118 51.372C551.89 51.948 551.578 52.446 551.182 52.866C550.786 53.274 550.324 53.598 549.796 53.838C549.28 54.066 548.728 54.18 548.14 54.18ZM547.96 52.83C548.392 52.83 548.794 52.752 549.166 52.596C549.538 52.428 549.862 52.2 550.138 51.912C550.414 51.612 550.63 51.258 550.786 50.85C550.942 50.442 551.02 49.992 551.02 49.5C551.02 49.008 550.942 48.558 550.786 48.15C550.63 47.742 550.414 47.394 550.138 47.106C549.862 46.806 549.538 46.578 549.166 46.422C548.794 46.254 548.392 46.17 547.96 46.17C547.528 46.17 547.126 46.254 546.754 46.422C546.382 46.578 546.058 46.806 545.782 47.106C545.506 47.394 545.29 47.742 545.134 48.15C544.978 48.558 544.9 49.008 544.9 49.5C544.9 49.992 544.978 50.442 545.134 50.85C545.29 51.258 545.506 51.612 545.782 51.912C546.058 52.2 546.382 52.428 546.754 52.596C547.126 52.752 547.528 52.83 547.96 52.83ZM553.727 41.4H555.167V52.65H557.237V54H553.727V41.4ZM562.014 54.18C561.366 54.18 560.76 54.066 560.196 53.838C559.632 53.598 559.146 53.274 558.738 52.866C558.33 52.446 558.006 51.948 557.766 51.372C557.538 50.796 557.424 50.172 557.424 49.5C557.424 48.828 557.538 48.204 557.766 47.628C558.006 47.052 558.33 46.56 558.738 46.152C559.146 45.732 559.632 45.408 560.196 45.18C560.76 44.94 561.366 44.82 562.014 44.82C562.662 44.82 563.268 44.94 563.832 45.18C564.396 45.408 564.882 45.726 565.29 46.134C565.698 46.542 566.016 47.028 566.244 47.592C566.484 48.156 566.604 48.762 566.604 49.41V49.95H558.864C558.912 50.37 559.026 50.76 559.206 51.12C559.386 51.468 559.614 51.768 559.89 52.02C560.166 52.272 560.484 52.47 560.844 52.614C561.216 52.758 561.606 52.83 562.014 52.83C562.554 52.83 563.01 52.746 563.382 52.578C563.754 52.41 564.06 52.224 564.3 52.02C564.576 51.792 564.804 51.522 564.984 51.21H566.424C566.208 51.774 565.902 52.272 565.506 52.704C565.158 53.076 564.702 53.418 564.138 53.73C563.574 54.03 562.866 54.18 562.014 54.18ZM565.074 48.69C565.026 48.354 564.918 48.036 564.75 47.736C564.594 47.424 564.384 47.154 564.12 46.926C563.856 46.698 563.544 46.518 563.184 46.386C562.836 46.242 562.446 46.17 562.014 46.17C561.582 46.17 561.186 46.242 560.826 46.386C560.478 46.518 560.166 46.698 559.89 46.926C559.626 47.154 559.41 47.424 559.242 47.736C559.074 48.036 558.96 48.354 558.9 48.69H565.074ZM568.221 46.35H567.051V45H568.221V43.02H569.661V45H572.541V46.35H569.661V52.65H572.631V54H568.221V46.35ZM577.225 54.18C576.781 54.18 576.385 54.138 576.037 54.054C575.689 53.97 575.377 53.862 575.101 53.73C574.825 53.586 574.579 53.424 574.363 53.244C574.159 53.064 573.985 52.884 573.841 52.704C573.493 52.272 573.241 51.774 573.085 51.21H574.615C574.735 51.522 574.909 51.792 575.137 52.02C575.341 52.224 575.605 52.41 575.929 52.578C576.265 52.746 576.697 52.83 577.225 52.83C578.041 52.83 578.617 52.698 578.953 52.434C579.301 52.158 579.475 51.84 579.475 51.48C579.475 51.168 579.325 50.928 579.025 50.76C578.737 50.592 578.371 50.448 577.927 50.328C577.495 50.208 577.021 50.094 576.505 49.986C575.989 49.878 575.509 49.722 575.065 49.518C574.633 49.314 574.267 49.044 573.967 48.708C573.679 48.372 573.535 47.916 573.535 47.34C573.535 47.004 573.607 46.686 573.751 46.386C573.895 46.074 574.111 45.804 574.399 45.576C574.687 45.348 575.041 45.168 575.461 45.036C575.893 44.892 576.391 44.82 576.955 44.82C577.375 44.82 577.747 44.862 578.071 44.946C578.407 45.018 578.701 45.12 578.953 45.252C579.217 45.372 579.445 45.516 579.637 45.684C579.829 45.84 579.997 46.002 580.141 46.17C580.453 46.566 580.681 47.016 580.825 47.52H579.295C579.187 47.28 579.031 47.058 578.827 46.854C578.659 46.686 578.419 46.53 578.107 46.386C577.807 46.242 577.423 46.17 576.955 46.17C576.619 46.17 576.325 46.206 576.073 46.278C575.821 46.35 575.611 46.446 575.443 46.566C575.287 46.674 575.167 46.8 575.083 46.944C575.011 47.076 574.975 47.208 574.975 47.34C574.975 47.652 575.119 47.892 575.407 48.06C575.707 48.228 576.073 48.372 576.505 48.492C576.949 48.612 577.429 48.726 577.945 48.834C578.461 48.942 578.935 49.098 579.367 49.302C579.811 49.506 580.177 49.782 580.465 50.13C580.765 50.466 580.915 50.916 580.915 51.48C580.915 51.84 580.837 52.182 580.681 52.506C580.525 52.83 580.291 53.118 579.979 53.37C579.667 53.622 579.283 53.82 578.827 53.964C578.371 54.108 577.837 54.18 577.225 54.18ZM581.811 55.53C582.531 55.446 582.891 55.056 582.891 54.36V54.09C582.867 54.114 582.831 54.132 582.783 54.144C582.687 54.168 582.603 54.18 582.531 54.18C582.303 54.18 582.111 54.096 581.955 53.928C581.799 53.76 581.721 53.532 581.721 53.244C581.721 52.896 581.823 52.62 582.027 52.416C582.231 52.212 582.489 52.11 582.801 52.11C583.113 52.11 583.371 52.236 583.575 52.488C583.779 52.728 583.881 53.142 583.881 53.73C583.881 54.546 583.695 55.158 583.323 55.566C582.951 55.974 582.447 56.202 581.811 56.25V55.53ZM154.77 79.18C154.326 79.18 153.93 79.138 153.582 79.054C153.234 78.97 152.922 78.862 152.646 78.73C152.37 78.586 152.124 78.424 151.908 78.244C151.704 78.064 151.53 77.884 151.386 77.704C151.038 77.272 150.786 76.774 150.63 76.21H152.16C152.28 76.522 152.454 76.792 152.682 77.02C152.886 77.224 153.15 77.41 153.474 77.578C153.81 77.746 154.242 77.83 154.77 77.83C155.586 77.83 156.162 77.698 156.498 77.434C156.846 77.158 157.02 76.84 157.02 76.48C157.02 76.168 156.87 75.928 156.57 75.76C156.282 75.592 155.916 75.448 155.472 75.328C155.04 75.208 154.566 75.094 154.05 74.986C153.534 74.878 153.054 74.722 152.61 74.518C152.178 74.314 151.812 74.044 151.512 73.708C151.224 73.372 151.08 72.916 151.08 72.34C151.08 72.004 151.152 71.686 151.296 71.386C151.44 71.074 151.656 70.804 151.944 70.576C152.232 70.348 152.586 70.168 153.006 70.036C153.438 69.892 153.936 69.82 154.5 69.82C154.92 69.82 155.292 69.862 155.616 69.946C155.952 70.018 156.246 70.12 156.498 70.252C156.762 70.372 156.99 70.516 157.182 70.684C157.374 70.84 157.542 71.002 157.686 71.17C157.998 71.566 158.226 72.016 158.37 72.52H156.84C156.732 72.28 156.576 72.058 156.372 71.854C156.204 71.686 155.964 71.53 155.652 71.386C155.352 71.242 154.968 71.17 154.5 71.17C154.164 71.17 153.87 71.206 153.618 71.278C153.366 71.35 153.156 71.446 152.988 71.566C152.832 71.674 152.712 71.8 152.628 71.944C152.556 72.076 152.52 72.208 152.52 72.34C152.52 72.652 152.664 72.892 152.952 73.06C153.252 73.228 153.618 73.372 154.05 73.492C154.494 73.612 154.974 73.726 155.49 73.834C156.006 73.942 156.48 74.098 156.912 74.302C157.356 74.506 157.722 74.782 158.01 75.13C158.31 75.466 158.46 75.916 158.46 76.48C158.46 76.84 158.382 77.182 158.226 77.506C158.07 77.83 157.836 78.118 157.524 78.37C157.212 78.622 156.828 78.82 156.372 78.964C155.916 79.108 155.382 79.18 154.77 79.18ZM159.716 70H161.156V71.35H161.174C161.342 71.062 161.564 70.81 161.84 70.594C162.08 70.402 162.386 70.228 162.758 70.072C163.13 69.904 163.586 69.82 164.126 69.82C164.666 69.82 165.116 69.916 165.476 70.108C165.848 70.288 166.148 70.492 166.376 70.72C166.64 70.984 166.85 71.284 167.006 71.62H167.096C167.288 71.284 167.54 70.984 167.852 70.72C168.116 70.492 168.458 70.288 168.878 70.108C169.298 69.916 169.814 69.82 170.426 69.82C170.894 69.82 171.332 69.91 171.74 70.09C172.148 70.258 172.502 70.51 172.802 70.846C173.102 71.182 173.336 71.59 173.504 72.07C173.672 72.538 173.756 73.078 173.756 73.69V79H172.316V73.78C172.316 72.916 172.112 72.268 171.704 71.836C171.308 71.392 170.792 71.17 170.156 71.17C169.796 71.17 169.454 71.248 169.13 71.404C168.806 71.548 168.518 71.746 168.266 71.998C168.014 72.25 167.816 72.544 167.672 72.88C167.528 73.216 167.456 73.576 167.456 73.96V79H166.016V73.78C166.016 72.928 165.812 72.28 165.404 71.836C165.008 71.392 164.492 71.17 163.856 71.17C163.496 71.17 163.154 71.248 162.83 71.404C162.506 71.548 162.218 71.746 161.966 71.998C161.714 72.25 161.516 72.544 161.372 72.88C161.228 73.216 161.156 73.576 161.156 73.96V79H159.716V70ZM179.246 79.18C178.658 79.18 178.1 79.066 177.572 78.838C177.056 78.598 176.6 78.274 176.204 77.866C175.808 77.446 175.496 76.948 175.268 76.372C175.04 75.796 174.926 75.172 174.926 74.5C174.926 73.828 175.04 73.204 175.268 72.628C175.496 72.052 175.808 71.56 176.204 71.152C176.6 70.732 177.056 70.408 177.572 70.18C178.1 69.94 178.658 69.82 179.246 69.82C179.834 69.82 180.332 69.904 180.74 70.072C181.148 70.24 181.478 70.426 181.73 70.63C181.994 70.834 182.18 71.026 182.288 71.206C182.408 71.374 182.468 71.458 182.468 71.458H182.486V70H183.926V79H182.486V77.56H182.468C182.468 77.56 182.408 77.65 182.288 77.83C182.18 77.998 181.994 78.184 181.73 78.388C181.478 78.58 181.148 78.76 180.74 78.928C180.332 79.096 179.834 79.18 179.246 79.18ZM179.426 77.83C179.858 77.83 180.26 77.752 180.632 77.596C181.004 77.428 181.328 77.2 181.604 76.912C181.88 76.612 182.096 76.258 182.252 75.85C182.408 75.442 182.486 74.992 182.486 74.5C182.486 74.008 182.408 73.558 182.252 73.15C182.096 72.742 181.88 72.394 181.604 72.106C181.328 71.806 181.004 71.578 180.632 71.422C180.26 71.254 179.858 71.17 179.426 71.17C178.994 71.17 178.592 71.254 178.22 71.422C177.848 71.578 177.524 71.806 177.248 72.106C176.972 72.394 176.756 72.742 176.6 73.15C176.444 73.558 176.366 74.008 176.366 74.5C176.366 74.992 176.444 75.442 176.6 75.85C176.756 76.258 176.972 76.612 177.248 76.912C177.524 77.2 177.848 77.428 178.22 77.596C178.592 77.752 178.994 77.83 179.426 77.83ZM185.733 70H187.173V71.44H187.191C187.347 71.152 187.551 70.9 187.803 70.684C188.019 70.492 188.301 70.318 188.649 70.162C188.997 69.994 189.435 69.91 189.963 69.91H191.043V71.35H189.963C189.555 71.35 189.177 71.422 188.829 71.566C188.493 71.698 188.199 71.89 187.947 72.142C187.707 72.382 187.515 72.676 187.371 73.024C187.239 73.36 187.173 73.732 187.173 74.14V79H185.733V70ZM192.211 71.35H191.041V70H192.211V68.02H193.651V70H196.531V71.35H193.651V77.65H196.621V79H192.211V71.35ZM201.31 70H202.84L204.46 77.65H204.91L206.44 70H209.05L210.58 77.65H211.03L212.65 70H214.18L212.2 79H209.41L207.88 71.35H207.61L206.08 79H203.29L201.31 70ZM219.047 79.18C218.459 79.18 217.901 79.066 217.373 78.838C216.857 78.598 216.401 78.274 216.005 77.866C215.609 77.446 215.297 76.948 215.069 76.372C214.841 75.796 214.727 75.172 214.727 74.5C214.727 73.828 214.841 73.204 215.069 72.628C215.297 72.052 215.609 71.56 216.005 71.152C216.401 70.732 216.857 70.408 217.373 70.18C217.901 69.94 218.459 69.82 219.047 69.82C219.635 69.82 220.133 69.904 220.541 70.072C220.949 70.24 221.279 70.426 221.531 70.63C221.795 70.834 221.981 71.026 222.089 71.206C222.209 71.374 222.269 71.458 222.269 71.458H222.287V70H223.727V79H222.287V77.56H222.269C222.269 77.56 222.209 77.65 222.089 77.83C221.981 77.998 221.795 78.184 221.531 78.388C221.279 78.58 220.949 78.76 220.541 78.928C220.133 79.096 219.635 79.18 219.047 79.18ZM219.227 77.83C219.659 77.83 220.061 77.752 220.433 77.596C220.805 77.428 221.129 77.2 221.405 76.912C221.681 76.612 221.897 76.258 222.053 75.85C222.209 75.442 222.287 74.992 222.287 74.5C222.287 74.008 222.209 73.558 222.053 73.15C221.897 72.742 221.681 72.394 221.405 72.106C221.129 71.806 220.805 71.578 220.433 71.422C220.061 71.254 219.659 71.17 219.227 71.17C218.795 71.17 218.393 71.254 218.021 71.422C217.649 71.578 217.325 71.806 217.049 72.106C216.773 72.394 216.557 72.742 216.401 73.15C216.245 73.558 216.167 74.008 216.167 74.5C216.167 74.992 216.245 75.442 216.401 75.85C216.557 76.258 216.773 76.612 217.049 76.912C217.325 77.2 217.649 77.428 218.021 77.596C218.393 77.752 218.795 77.83 219.227 77.83ZM225.893 71.35H224.723V70H225.893V68.02H227.333V70H230.213V71.35H227.333V77.65H230.303V79H225.893V71.35ZM235.347 79.18C234.711 79.18 234.117 79.066 233.565 78.838C233.025 78.598 232.551 78.274 232.143 77.866C231.747 77.446 231.429 76.948 231.189 76.372C230.961 75.796 230.847 75.172 230.847 74.5C230.847 73.828 230.961 73.204 231.189 72.628C231.429 72.052 231.747 71.56 232.143 71.152C232.551 70.732 233.025 70.408 233.565 70.18C234.117 69.94 234.711 69.82 235.347 69.82C235.791 69.82 236.193 69.868 236.553 69.964C236.925 70.048 237.255 70.168 237.543 70.324C237.831 70.468 238.083 70.636 238.299 70.828C238.515 71.02 238.701 71.212 238.857 71.404C239.229 71.872 239.499 72.394 239.667 72.97H238.227C238.083 72.634 237.885 72.334 237.633 72.07C237.417 71.842 237.123 71.638 236.751 71.458C236.379 71.266 235.911 71.17 235.347 71.17C234.915 71.17 234.513 71.254 234.141 71.422C233.769 71.578 233.445 71.806 233.169 72.106C232.893 72.394 232.677 72.742 232.521 73.15C232.365 73.558 232.287 74.008 232.287 74.5C232.287 75.004 232.371 75.46 232.539 75.868C232.707 76.276 232.929 76.624 233.205 76.912C233.481 77.2 233.805 77.428 234.177 77.596C234.549 77.752 234.939 77.83 235.347 77.83C235.935 77.83 236.415 77.728 236.787 77.524C237.171 77.32 237.477 77.092 237.705 76.84C237.969 76.552 238.173 76.222 238.317 75.85H239.757C239.589 76.486 239.313 77.044 238.929 77.524C238.761 77.728 238.569 77.932 238.353 78.136C238.137 78.328 237.879 78.502 237.579 78.658C237.291 78.814 236.961 78.94 236.589 79.036C236.217 79.132 235.803 79.18 235.347 79.18ZM240.845 66.4H242.285V71.35H242.303C242.483 71.062 242.717 70.81 243.005 70.594C243.245 70.402 243.557 70.228 243.941 70.072C244.337 69.904 244.805 69.82 245.345 69.82C245.885 69.82 246.377 69.91 246.821 70.09C247.265 70.258 247.643 70.51 247.955 70.846C248.267 71.182 248.507 71.59 248.675 72.07C248.855 72.538 248.945 73.078 248.945 73.69V79H247.505V73.78C247.505 72.88 247.277 72.22 246.821 71.8C246.377 71.38 245.795 71.17 245.075 71.17C244.667 71.17 244.289 71.242 243.941 71.386C243.605 71.518 243.311 71.716 243.059 71.98C242.819 72.244 242.627 72.562 242.483 72.934C242.351 73.294 242.285 73.696 242.285 74.14V79H240.845V66.4ZM254.617 79.18C253.969 79.18 253.363 79.066 252.799 78.838C252.235 78.598 251.749 78.274 251.341 77.866C250.933 77.446 250.609 76.948 250.369 76.372C250.141 75.796 250.027 75.172 250.027 74.5C250.027 73.828 250.141 73.204 250.369 72.628C250.609 72.052 250.933 71.56 251.341 71.152C251.749 70.732 252.235 70.408 252.799 70.18C253.363 69.94 253.969 69.82 254.617 69.82C255.265 69.82 255.871 69.94 256.435 70.18C256.999 70.408 257.485 70.726 257.893 71.134C258.301 71.542 258.619 72.028 258.847 72.592C259.087 73.156 259.207 73.762 259.207 74.41V74.95H251.467C251.515 75.37 251.629 75.76 251.809 76.12C251.989 76.468 252.217 76.768 252.493 77.02C252.769 77.272 253.087 77.47 253.447 77.614C253.819 77.758 254.209 77.83 254.617 77.83C255.157 77.83 255.613 77.746 255.985 77.578C256.357 77.41 256.663 77.224 256.903 77.02C257.179 76.792 257.407 76.522 257.587 76.21H259.027C258.811 76.774 258.505 77.272 258.109 77.704C257.761 78.076 257.305 78.418 256.741 78.73C256.177 79.03 255.469 79.18 254.617 79.18ZM257.677 73.69C257.629 73.354 257.521 73.036 257.353 72.736C257.197 72.424 256.987 72.154 256.723 71.926C256.459 71.698 256.147 71.518 255.787 71.386C255.439 71.242 255.049 71.17 254.617 71.17C254.185 71.17 253.789 71.242 253.429 71.386C253.081 71.518 252.769 71.698 252.493 71.926C252.229 72.154 252.013 72.424 251.845 72.736C251.677 73.036 251.563 73.354 251.503 73.69H257.677ZM263.974 79.18C263.53 79.18 263.134 79.138 262.786 79.054C262.438 78.97 262.126 78.862 261.85 78.73C261.574 78.586 261.328 78.424 261.112 78.244C260.908 78.064 260.734 77.884 260.59 77.704C260.242 77.272 259.99 76.774 259.834 76.21H261.364C261.484 76.522 261.658 76.792 261.886 77.02C262.09 77.224 262.354 77.41 262.678 77.578C263.014 77.746 263.446 77.83 263.974 77.83C264.79 77.83 265.366 77.698 265.702 77.434C266.05 77.158 266.224 76.84 266.224 76.48C266.224 76.168 266.074 75.928 265.774 75.76C265.486 75.592 265.12 75.448 264.676 75.328C264.244 75.208 263.77 75.094 263.254 74.986C262.738 74.878 262.258 74.722 261.814 74.518C261.382 74.314 261.016 74.044 260.716 73.708C260.428 73.372 260.284 72.916 260.284 72.34C260.284 72.004 260.356 71.686 260.5 71.386C260.644 71.074 260.86 70.804 261.148 70.576C261.436 70.348 261.79 70.168 262.21 70.036C262.642 69.892 263.14 69.82 263.704 69.82C264.124 69.82 264.496 69.862 264.82 69.946C265.156 70.018 265.45 70.12 265.702 70.252C265.966 70.372 266.194 70.516 266.386 70.684C266.578 70.84 266.746 71.002 266.89 71.17C267.202 71.566 267.43 72.016 267.574 72.52H266.044C265.936 72.28 265.78 72.058 265.576 71.854C265.408 71.686 265.168 71.53 264.856 71.386C264.556 71.242 264.172 71.17 263.704 71.17C263.368 71.17 263.074 71.206 262.822 71.278C262.57 71.35 262.36 71.446 262.192 71.566C262.036 71.674 261.916 71.8 261.832 71.944C261.76 72.076 261.724 72.208 261.724 72.34C261.724 72.652 261.868 72.892 262.156 73.06C262.456 73.228 262.822 73.372 263.254 73.492C263.698 73.612 264.178 73.726 264.694 73.834C265.21 73.942 265.684 74.098 266.116 74.302C266.56 74.506 266.926 74.782 267.214 75.13C267.514 75.466 267.664 75.916 267.664 76.48C267.664 76.84 267.586 77.182 267.43 77.506C267.274 77.83 267.04 78.118 266.728 78.37C266.416 78.622 266.032 78.82 265.576 78.964C265.12 79.108 264.586 79.18 263.974 79.18ZM268.56 80.53C269.28 80.446 269.64 80.056 269.64 79.36V79.09C269.616 79.114 269.58 79.132 269.532 79.144C269.436 79.168 269.352 79.18 269.28 79.18C269.052 79.18 268.86 79.096 268.704 78.928C268.548 78.76 268.47 78.532 268.47 78.244C268.47 77.896 268.572 77.62 268.776 77.416C268.98 77.212 269.238 77.11 269.55 77.11C269.862 77.11 270.12 77.236 270.324 77.488C270.528 77.728 270.63 78.142 270.63 78.73C270.63 79.546 270.444 80.158 270.072 80.566C269.7 80.974 269.196 81.202 268.56 81.25V80.53ZM276.484 66.4H281.794C282.514 66.4 283.162 66.508 283.738 66.724C284.314 66.928 284.806 67.216 285.214 67.588C285.622 67.96 285.934 68.398 286.15 68.902C286.366 69.406 286.474 69.952 286.474 70.54C286.474 71.128 286.366 71.674 286.15 72.178C285.934 72.682 285.622 73.12 285.214 73.492C284.806 73.864 284.314 74.158 283.738 74.374C283.162 74.578 282.514 74.68 281.794 74.68H278.104V79H276.484V66.4ZM281.794 73.15C282.79 73.15 283.546 72.91 284.062 72.43C284.59 71.938 284.854 71.308 284.854 70.54C284.854 69.772 284.59 69.148 284.062 68.668C283.546 68.176 282.79 67.93 281.794 67.93H278.104V73.15H281.794ZM293.762 79.36C292.814 79.36 291.938 79.198 291.134 78.874C290.33 78.538 289.634 78.076 289.046 77.488C288.47 76.888 288.014 76.186 287.678 75.382C287.354 74.566 287.192 73.672 287.192 72.7C287.192 71.728 287.354 70.84 287.678 70.036C288.014 69.22 288.47 68.518 289.046 67.93C289.634 67.33 290.33 66.868 291.134 66.544C291.938 66.208 292.814 66.04 293.762 66.04C294.71 66.04 295.58 66.208 296.372 66.544C297.176 66.868 297.872 67.33 298.46 67.93C299.048 68.518 299.504 69.22 299.828 70.036C300.164 70.84 300.332 71.728 300.332 72.7C300.332 73.672 300.164 74.566 299.828 75.382C299.504 76.186 299.048 76.888 298.46 77.488C297.872 78.076 297.176 78.538 296.372 78.874C295.58 79.198 294.71 79.36 293.762 79.36ZM293.762 77.83C294.482 77.83 295.142 77.71 295.742 77.47C296.354 77.218 296.876 76.87 297.308 76.426C297.752 75.97 298.094 75.43 298.334 74.806C298.586 74.17 298.712 73.468 298.712 72.7C298.712 71.932 298.586 71.236 298.334 70.612C298.094 69.976 297.752 69.436 297.308 68.992C296.876 68.536 296.354 68.188 295.742 67.948C295.142 67.696 294.482 67.57 293.762 67.57C293.042 67.57 292.376 67.696 291.764 67.948C291.164 68.188 290.642 68.536 290.198 68.992C289.766 69.436 289.424 69.976 289.172 70.612C288.932 71.236 288.812 71.932 288.812 72.7C288.812 73.468 288.932 74.17 289.172 74.806C289.424 75.43 289.766 75.97 290.198 76.426C290.642 76.87 291.164 77.218 291.764 77.47C292.376 77.71 293.042 77.83 293.762 77.83ZM306.368 79.36C305.792 79.36 305.276 79.3 304.82 79.18C304.364 79.072 303.962 78.928 303.614 78.748C303.266 78.556 302.96 78.346 302.696 78.118C302.432 77.878 302.21 77.632 302.03 77.38C301.598 76.804 301.304 76.144 301.148 75.4H302.768C302.888 75.856 303.104 76.264 303.416 76.624C303.68 76.936 304.046 77.218 304.514 77.47C304.982 77.71 305.6 77.83 306.368 77.83C306.908 77.83 307.376 77.776 307.772 77.668C308.168 77.548 308.492 77.392 308.744 77.2C309.008 76.996 309.2 76.762 309.32 76.498C309.452 76.234 309.518 75.958 309.518 75.67C309.518 75.286 309.404 74.968 309.176 74.716C308.96 74.464 308.666 74.248 308.294 74.068C307.922 73.888 307.502 73.732 307.034 73.6C306.566 73.468 306.086 73.336 305.594 73.204C305.114 73.06 304.64 72.898 304.172 72.718C303.704 72.538 303.284 72.316 302.912 72.052C302.54 71.788 302.24 71.464 302.012 71.08C301.796 70.684 301.688 70.204 301.688 69.64C301.688 69.172 301.79 68.722 301.994 68.29C302.21 67.846 302.51 67.462 302.894 67.138C303.278 66.802 303.746 66.538 304.298 66.346C304.862 66.142 305.492 66.04 306.188 66.04C306.716 66.04 307.19 66.094 307.61 66.202C308.042 66.298 308.42 66.43 308.744 66.598C309.068 66.754 309.35 66.94 309.59 67.156C309.842 67.372 310.052 67.588 310.22 67.804C310.616 68.32 310.892 68.902 311.048 69.55H309.428C309.32 69.19 309.128 68.86 308.852 68.56C308.612 68.32 308.282 68.098 307.862 67.894C307.442 67.678 306.884 67.57 306.188 67.57C305.72 67.57 305.306 67.63 304.946 67.75C304.586 67.858 304.28 68.008 304.028 68.2C303.788 68.392 303.608 68.614 303.488 68.866C303.368 69.118 303.308 69.376 303.308 69.64C303.308 70.132 303.5 70.522 303.884 70.81C304.268 71.086 304.748 71.326 305.324 71.53C305.912 71.722 306.542 71.908 307.214 72.088C307.898 72.256 308.528 72.484 309.104 72.772C309.692 73.048 310.178 73.414 310.562 73.87C310.946 74.326 311.138 74.926 311.138 75.67C311.138 76.162 311.03 76.636 310.814 77.092C310.61 77.536 310.304 77.926 309.896 78.262C309.488 78.598 308.99 78.862 308.402 79.054C307.814 79.258 307.136 79.36 306.368 79.36ZM316.082 66.4H317.702L312.842 79H311.222L316.082 66.4ZM320.588 66.4H325.538L328.778 79H327.158L326.168 75.31H319.958L318.968 79H317.348L320.588 66.4ZM325.808 73.78L324.278 67.93H321.848L320.318 73.78H325.808ZM332.194 67.93H327.874V66.4H338.134V67.93H333.814V79H332.194V67.93ZM339.031 66.4H341.641L345.421 74.5H346.231L350.011 66.4H352.621V79H351.001V68.2L351.019 68.02H350.983L347.311 75.94H344.341L340.669 68.02H340.633L340.651 68.2V79H339.031V66.4ZM355.232 79.27C354.92 79.27 354.662 79.168 354.458 78.964C354.254 78.76 354.152 78.502 354.152 78.19C354.152 77.878 354.254 77.62 354.458 77.416C354.662 77.212 354.92 77.11 355.232 77.11C355.544 77.11 355.802 77.212 356.006 77.416C356.21 77.62 356.312 77.878 356.312 78.19C356.312 78.502 356.21 78.76 356.006 78.964C355.802 79.168 355.544 79.27 355.232 79.27ZM363.781 66.4H368.731L371.971 79H370.351L369.361 75.31H363.151L362.161 79H360.541L363.781 66.4ZM369.001 73.78L367.471 67.93H365.041L363.511 73.78H369.001ZM372.867 66.4H374.307V77.65H376.377V79H372.867V66.4ZM377.104 66.4H378.544V77.65H380.614V79H377.104V66.4ZM390.346 79.18C389.758 79.18 389.26 79.096 388.852 78.928C388.444 78.76 388.108 78.58 387.844 78.388C387.592 78.184 387.406 77.998 387.286 77.83C387.178 77.65 387.124 77.56 387.124 77.56H387.106V79H385.666V66.4H387.106V71.44H387.124C387.124 71.44 387.178 71.356 387.286 71.188C387.406 71.008 387.592 70.822 387.844 70.63C388.108 70.426 388.444 70.24 388.852 70.072C389.26 69.904 389.758 69.82 390.346 69.82C390.934 69.82 391.486 69.94 392.002 70.18C392.53 70.408 392.992 70.732 393.388 71.152C393.784 71.56 394.096 72.052 394.324 72.628C394.552 73.204 394.666 73.828 394.666 74.5C394.666 75.172 394.552 75.796 394.324 76.372C394.096 76.948 393.784 77.446 393.388 77.866C392.992 78.274 392.53 78.598 392.002 78.838C391.486 79.066 390.934 79.18 390.346 79.18ZM390.166 77.83C390.598 77.83 391 77.752 391.372 77.596C391.744 77.428 392.068 77.2 392.344 76.912C392.62 76.612 392.836 76.258 392.992 75.85C393.148 75.442 393.226 74.992 393.226 74.5C393.226 74.008 393.148 73.558 392.992 73.15C392.836 72.742 392.62 72.394 392.344 72.106C392.068 71.806 391.744 71.578 391.372 71.422C391 71.254 390.598 71.17 390.166 71.17C389.734 71.17 389.332 71.254 388.96 71.422C388.588 71.578 388.264 71.806 387.988 72.106C387.712 72.394 387.496 72.742 387.34 73.15C387.184 73.558 387.106 74.008 387.106 74.5C387.106 74.992 387.184 75.442 387.34 75.85C387.496 76.258 387.712 76.612 387.988 76.912C388.264 77.2 388.588 77.428 388.96 77.596C389.332 77.752 389.734 77.83 390.166 77.83ZM399.713 79.18C399.125 79.18 398.567 79.066 398.039 78.838C397.523 78.598 397.067 78.274 396.671 77.866C396.275 77.446 395.963 76.948 395.735 76.372C395.507 75.796 395.393 75.172 395.393 74.5C395.393 73.828 395.507 73.204 395.735 72.628C395.963 72.052 396.275 71.56 396.671 71.152C397.067 70.732 397.523 70.408 398.039 70.18C398.567 69.94 399.125 69.82 399.713 69.82C400.301 69.82 400.799 69.904 401.207 70.072C401.615 70.24 401.945 70.426 402.197 70.63C402.461 70.834 402.647 71.026 402.755 71.206C402.875 71.374 402.935 71.458 402.935 71.458H402.953V70H404.393V79H402.953V77.56H402.935C402.935 77.56 402.875 77.65 402.755 77.83C402.647 77.998 402.461 78.184 402.197 78.388C401.945 78.58 401.615 78.76 401.207 78.928C400.799 79.096 400.301 79.18 399.713 79.18ZM399.893 77.83C400.325 77.83 400.727 77.752 401.099 77.596C401.471 77.428 401.795 77.2 402.071 76.912C402.347 76.612 402.563 76.258 402.719 75.85C402.875 75.442 402.953 74.992 402.953 74.5C402.953 74.008 402.875 73.558 402.719 73.15C402.563 72.742 402.347 72.394 402.071 72.106C401.795 71.806 401.471 71.578 401.099 71.422C400.727 71.254 400.325 71.17 399.893 71.17C399.461 71.17 399.059 71.254 398.687 71.422C398.315 71.578 397.991 71.806 397.715 72.106C397.439 72.394 397.223 72.742 397.067 73.15C396.911 73.558 396.833 74.008 396.833 74.5C396.833 74.992 396.911 75.442 397.067 75.85C397.223 76.258 397.439 76.612 397.715 76.912C397.991 77.2 398.315 77.428 398.687 77.596C399.059 77.752 399.461 77.83 399.893 77.83ZM406.199 70H407.639V71.35H407.657C407.837 71.062 408.071 70.81 408.359 70.594C408.599 70.402 408.911 70.228 409.295 70.072C409.691 69.904 410.159 69.82 410.699 69.82C411.239 69.82 411.731 69.91 412.175 70.09C412.619 70.258 412.997 70.51 413.309 70.846C413.621 71.182 413.861 71.59 414.029 72.07C414.209 72.538 414.299 73.078 414.299 73.69V79H412.859V73.78C412.859 72.88 412.631 72.22 412.175 71.8C411.731 71.38 411.149 71.17 410.429 71.17C410.021 71.17 409.643 71.242 409.295 71.386C408.959 71.518 408.665 71.716 408.413 71.98C408.173 72.244 407.981 72.562 407.837 72.934C407.705 73.294 407.639 73.696 407.639 74.14V79H406.199V70ZM416.008 66.4H417.448V73.6H419.248L422.128 70H423.838L420.508 74.23L424.108 79H422.308L419.248 74.95H417.448V79H416.008V66.4ZM427.904 79.18C427.46 79.18 427.064 79.138 426.716 79.054C426.368 78.97 426.056 78.862 425.78 78.73C425.504 78.586 425.258 78.424 425.042 78.244C424.838 78.064 424.664 77.884 424.52 77.704C424.172 77.272 423.92 76.774 423.764 76.21H425.294C425.414 76.522 425.588 76.792 425.816 77.02C426.02 77.224 426.284 77.41 426.608 77.578C426.944 77.746 427.376 77.83 427.904 77.83C428.72 77.83 429.296 77.698 429.632 77.434C429.98 77.158 430.154 76.84 430.154 76.48C430.154 76.168 430.004 75.928 429.704 75.76C429.416 75.592 429.05 75.448 428.606 75.328C428.174 75.208 427.7 75.094 427.184 74.986C426.668 74.878 426.188 74.722 425.744 74.518C425.312 74.314 424.946 74.044 424.646 73.708C424.358 73.372 424.214 72.916 424.214 72.34C424.214 72.004 424.286 71.686 424.43 71.386C424.574 71.074 424.79 70.804 425.078 70.576C425.366 70.348 425.72 70.168 426.14 70.036C426.572 69.892 427.07 69.82 427.634 69.82C428.054 69.82 428.426 69.862 428.75 69.946C429.086 70.018 429.38 70.12 429.632 70.252C429.896 70.372 430.124 70.516 430.316 70.684C430.508 70.84 430.676 71.002 430.82 71.17C431.132 71.566 431.36 72.016 431.504 72.52H429.974C429.866 72.28 429.71 72.058 429.506 71.854C429.338 71.686 429.098 71.53 428.786 71.386C428.486 71.242 428.102 71.17 427.634 71.17C427.298 71.17 427.004 71.206 426.752 71.278C426.5 71.35 426.29 71.446 426.122 71.566C425.966 71.674 425.846 71.8 425.762 71.944C425.69 72.076 425.654 72.208 425.654 72.34C425.654 72.652 425.798 72.892 426.086 73.06C426.386 73.228 426.752 73.372 427.184 73.492C427.628 73.612 428.108 73.726 428.624 73.834C429.14 73.942 429.614 74.098 430.046 74.302C430.49 74.506 430.856 74.782 431.144 75.13C431.444 75.466 431.594 75.916 431.594 76.48C431.594 76.84 431.516 77.182 431.36 77.506C431.204 77.83 430.97 78.118 430.658 78.37C430.346 78.622 429.962 78.82 429.506 78.964C429.05 79.108 428.516 79.18 427.904 79.18ZM440.685 79.18C440.241 79.18 439.845 79.138 439.497 79.054C439.149 78.97 438.837 78.862 438.561 78.73C438.285 78.586 438.039 78.424 437.823 78.244C437.619 78.064 437.445 77.884 437.301 77.704C436.953 77.272 436.701 76.774 436.545 76.21H438.075C438.195 76.522 438.369 76.792 438.597 77.02C438.801 77.224 439.065 77.41 439.389 77.578C439.725 77.746 440.157 77.83 440.685 77.83C441.501 77.83 442.077 77.698 442.413 77.434C442.761 77.158 442.935 76.84 442.935 76.48C442.935 76.168 442.785 75.928 442.485 75.76C442.197 75.592 441.831 75.448 441.387 75.328C440.955 75.208 440.481 75.094 439.965 74.986C439.449 74.878 438.969 74.722 438.525 74.518C438.093 74.314 437.727 74.044 437.427 73.708C437.139 73.372 436.995 72.916 436.995 72.34C436.995 72.004 437.067 71.686 437.211 71.386C437.355 71.074 437.571 70.804 437.859 70.576C438.147 70.348 438.501 70.168 438.921 70.036C439.353 69.892 439.851 69.82 440.415 69.82C440.835 69.82 441.207 69.862 441.531 69.946C441.867 70.018 442.161 70.12 442.413 70.252C442.677 70.372 442.905 70.516 443.097 70.684C443.289 70.84 443.457 71.002 443.601 71.17C443.913 71.566 444.141 72.016 444.285 72.52H442.755C442.647 72.28 442.491 72.058 442.287 71.854C442.119 71.686 441.879 71.53 441.567 71.386C441.267 71.242 440.883 71.17 440.415 71.17C440.079 71.17 439.785 71.206 439.533 71.278C439.281 71.35 439.071 71.446 438.903 71.566C438.747 71.674 438.627 71.8 438.543 71.944C438.471 72.076 438.435 72.208 438.435 72.34C438.435 72.652 438.579 72.892 438.867 73.06C439.167 73.228 439.533 73.372 439.965 73.492C440.409 73.612 440.889 73.726 441.405 73.834C441.921 73.942 442.395 74.098 442.827 74.302C443.271 74.506 443.637 74.782 443.925 75.13C444.225 75.466 444.375 75.916 444.375 76.48C444.375 76.84 444.297 77.182 444.141 77.506C443.985 77.83 443.751 78.118 443.439 78.37C443.127 78.622 442.743 78.82 442.287 78.964C441.831 79.108 441.297 79.18 440.685 79.18ZM449.23 79.18C448.69 79.18 448.198 79.096 447.754 78.928C447.31 78.748 446.932 78.49 446.62 78.154C446.308 77.818 446.062 77.416 445.882 76.948C445.714 76.468 445.63 75.922 445.63 75.31V70H447.07V75.22C447.07 76.12 447.292 76.78 447.736 77.2C448.192 77.62 448.78 77.83 449.5 77.83C449.908 77.83 450.28 77.764 450.616 77.632C450.964 77.488 451.258 77.284 451.498 77.02C451.75 76.756 451.942 76.444 452.074 76.084C452.218 75.724 452.29 75.316 452.29 74.86V70H453.73V79H452.29V77.65H452.272C452.08 77.95 451.84 78.208 451.552 78.424C451.312 78.616 451 78.79 450.616 78.946C450.232 79.102 449.77 79.18 449.23 79.18ZM455.527 70H456.967V71.44H456.985C456.985 71.44 457.039 71.356 457.147 71.188C457.267 71.008 457.453 70.822 457.705 70.63C457.969 70.426 458.305 70.24 458.713 70.072C459.121 69.904 459.619 69.82 460.207 69.82C460.795 69.82 461.347 69.94 461.863 70.18C462.391 70.408 462.853 70.732 463.249 71.152C463.645 71.56 463.957 72.052 464.185 72.628C464.413 73.204 464.527 73.828 464.527 74.5C464.527 75.172 464.413 75.796 464.185 76.372C463.957 76.948 463.645 77.446 463.249 77.866C462.853 78.274 462.391 78.598 461.863 78.838C461.347 79.066 460.795 79.18 460.207 79.18C459.619 79.18 459.121 79.096 458.713 78.928C458.305 78.76 457.969 78.58 457.705 78.388C457.453 78.184 457.267 77.998 457.147 77.83C457.039 77.65 456.985 77.56 456.985 77.56H456.967V82.42H455.527V70ZM460.027 77.83C460.459 77.83 460.861 77.752 461.233 77.596C461.605 77.428 461.929 77.2 462.205 76.912C462.481 76.612 462.697 76.258 462.853 75.85C463.009 75.442 463.087 74.992 463.087 74.5C463.087 74.008 463.009 73.558 462.853 73.15C462.697 72.742 462.481 72.394 462.205 72.106C461.929 71.806 461.605 71.578 461.233 71.422C460.861 71.254 460.459 71.17 460.027 71.17C459.595 71.17 459.193 71.254 458.821 71.422C458.449 71.578 458.125 71.806 457.849 72.106C457.573 72.394 457.357 72.742 457.201 73.15C457.045 73.558 456.967 74.008 456.967 74.5C456.967 74.992 457.045 75.442 457.201 75.85C457.357 76.258 457.573 76.612 457.849 76.912C458.125 77.2 458.449 77.428 458.821 77.596C459.193 77.752 459.595 77.83 460.027 77.83ZM465.794 70H467.234V71.44H467.252C467.252 71.44 467.306 71.356 467.414 71.188C467.534 71.008 467.72 70.822 467.972 70.63C468.236 70.426 468.572 70.24 468.98 70.072C469.388 69.904 469.886 69.82 470.474 69.82C471.062 69.82 471.614 69.94 472.13 70.18C472.658 70.408 473.12 70.732 473.516 71.152C473.912 71.56 474.224 72.052 474.452 72.628C474.68 73.204 474.794 73.828 474.794 74.5C474.794 75.172 474.68 75.796 474.452 76.372C474.224 76.948 473.912 77.446 473.516 77.866C473.12 78.274 472.658 78.598 472.13 78.838C471.614 79.066 471.062 79.18 470.474 79.18C469.886 79.18 469.388 79.096 468.98 78.928C468.572 78.76 468.236 78.58 467.972 78.388C467.72 78.184 467.534 77.998 467.414 77.83C467.306 77.65 467.252 77.56 467.252 77.56H467.234V82.42H465.794V70ZM470.294 77.83C470.726 77.83 471.128 77.752 471.5 77.596C471.872 77.428 472.196 77.2 472.472 76.912C472.748 76.612 472.964 76.258 473.12 75.85C473.276 75.442 473.354 74.992 473.354 74.5C473.354 74.008 473.276 73.558 473.12 73.15C472.964 72.742 472.748 72.394 472.472 72.106C472.196 71.806 471.872 71.578 471.5 71.422C471.128 71.254 470.726 71.17 470.294 71.17C469.862 71.17 469.46 71.254 469.088 71.422C468.716 71.578 468.392 71.806 468.116 72.106C467.84 72.394 467.624 72.742 467.468 73.15C467.312 73.558 467.234 74.008 467.234 74.5C467.234 74.992 467.312 75.442 467.468 75.85C467.624 76.258 467.84 76.612 468.116 76.912C468.392 77.2 468.716 77.428 469.088 77.596C469.46 77.752 469.862 77.83 470.294 77.83ZM480.2 79.18C479.528 79.18 478.904 79.066 478.328 78.838C477.752 78.598 477.254 78.274 476.834 77.866C476.426 77.446 476.102 76.948 475.862 76.372C475.634 75.796 475.52 75.172 475.52 74.5C475.52 73.828 475.634 73.204 475.862 72.628C476.102 72.052 476.426 71.56 476.834 71.152C477.254 70.732 477.752 70.408 478.328 70.18C478.904 69.94 479.528 69.82 480.2 69.82C480.872 69.82 481.496 69.94 482.072 70.18C482.648 70.408 483.14 70.732 483.548 71.152C483.968 71.56 484.292 72.052 484.52 72.628C484.76 73.204 484.88 73.828 484.88 74.5C484.88 75.172 484.76 75.796 484.52 76.372C484.292 76.948 483.968 77.446 483.548 77.866C483.14 78.274 482.648 78.598 482.072 78.838C481.496 79.066 480.872 79.18 480.2 79.18ZM480.2 77.83C480.668 77.83 481.1 77.752 481.496 77.596C481.892 77.428 482.234 77.2 482.522 76.912C482.81 76.612 483.032 76.258 483.188 75.85C483.356 75.442 483.44 74.992 483.44 74.5C483.44 74.008 483.356 73.558 483.188 73.15C483.032 72.742 482.81 72.394 482.522 72.106C482.234 71.806 481.892 71.578 481.496 71.422C481.1 71.254 480.668 71.17 480.2 71.17C479.732 71.17 479.3 71.254 478.904 71.422C478.508 71.578 478.166 71.806 477.878 72.106C477.59 72.394 477.362 72.742 477.194 73.15C477.038 73.558 476.96 74.008 476.96 74.5C476.96 74.992 477.038 75.442 477.194 75.85C477.362 76.258 477.59 76.612 477.878 76.912C478.166 77.2 478.508 77.428 478.904 77.596C479.3 77.752 479.732 77.83 480.2 77.83ZM486.133 70H487.573V71.44H487.591C487.747 71.152 487.951 70.9 488.203 70.684C488.419 70.492 488.701 70.318 489.049 70.162C489.397 69.994 489.835 69.91 490.363 69.91H491.443V71.35H490.363C489.955 71.35 489.577 71.422 489.229 71.566C488.893 71.698 488.599 71.89 488.347 72.142C488.107 72.382 487.915 72.676 487.771 73.024C487.639 73.36 487.573 73.732 487.573 74.14V79H486.133V70ZM492.611 71.35H491.441V70H492.611V68.02H494.051V70H496.931V71.35H494.051V77.65H497.021V79H492.611V71.35ZM502.155 79.18C501.507 79.18 500.901 79.066 500.337 78.838C499.773 78.598 499.287 78.274 498.879 77.866C498.471 77.446 498.147 76.948 497.907 76.372C497.679 75.796 497.565 75.172 497.565 74.5C497.565 73.828 497.679 73.204 497.907 72.628C498.147 72.052 498.471 71.56 498.879 71.152C499.287 70.732 499.773 70.408 500.337 70.18C500.901 69.94 501.507 69.82 502.155 69.82C502.803 69.82 503.409 69.94 503.973 70.18C504.537 70.408 505.023 70.726 505.431 71.134C505.839 71.542 506.157 72.028 506.385 72.592C506.625 73.156 506.745 73.762 506.745 74.41V74.95H499.005C499.053 75.37 499.167 75.76 499.347 76.12C499.527 76.468 499.755 76.768 500.031 77.02C500.307 77.272 500.625 77.47 500.985 77.614C501.357 77.758 501.747 77.83 502.155 77.83C502.695 77.83 503.151 77.746 503.523 77.578C503.895 77.41 504.201 77.224 504.441 77.02C504.717 76.792 504.945 76.522 505.125 76.21H506.565C506.349 76.774 506.043 77.272 505.647 77.704C505.299 78.076 504.843 78.418 504.279 78.73C503.715 79.03 503.007 79.18 502.155 79.18ZM505.215 73.69C505.167 73.354 505.059 73.036 504.891 72.736C504.735 72.424 504.525 72.154 504.261 71.926C503.997 71.698 503.685 71.518 503.325 71.386C502.977 71.242 502.587 71.17 502.155 71.17C501.723 71.17 501.327 71.242 500.967 71.386C500.619 71.518 500.307 71.698 500.031 71.926C499.767 72.154 499.551 72.424 499.383 72.736C499.215 73.036 499.101 73.354 499.041 73.69H505.215ZM511.782 79.18C511.194 79.18 510.636 79.066 510.108 78.838C509.592 78.598 509.136 78.274 508.74 77.866C508.344 77.446 508.032 76.948 507.804 76.372C507.576 75.796 507.462 75.172 507.462 74.5C507.462 73.828 507.576 73.204 507.804 72.628C508.032 72.052 508.344 71.56 508.74 71.152C509.136 70.732 509.592 70.408 510.108 70.18C510.636 69.94 511.194 69.82 511.782 69.82C512.37 69.82 512.868 69.904 513.276 70.072C513.684 70.24 514.014 70.426 514.266 70.63C514.53 70.822 514.716 71.008 514.824 71.188C514.944 71.356 515.004 71.44 515.004 71.44H515.022V66.4H516.462V79H515.022V77.56H515.004C515.004 77.56 514.944 77.65 514.824 77.83C514.716 77.998 514.53 78.184 514.266 78.388C514.014 78.58 513.684 78.76 513.276 78.928C512.868 79.096 512.37 79.18 511.782 79.18ZM511.962 77.83C512.394 77.83 512.796 77.752 513.168 77.596C513.54 77.428 513.864 77.2 514.14 76.912C514.416 76.612 514.632 76.258 514.788 75.85C514.944 75.442 515.022 74.992 515.022 74.5C515.022 74.008 514.944 73.558 514.788 73.15C514.632 72.742 514.416 72.394 514.14 72.106C513.864 71.806 513.54 71.578 513.168 71.422C512.796 71.254 512.394 71.17 511.962 71.17C511.53 71.17 511.128 71.254 510.756 71.422C510.384 71.578 510.06 71.806 509.784 72.106C509.508 72.394 509.292 72.742 509.136 73.15C508.98 73.558 508.902 74.008 508.902 74.5C508.902 74.992 508.98 75.442 509.136 75.85C509.292 76.258 509.508 76.612 509.784 76.912C510.06 77.2 510.384 77.428 510.756 77.596C511.128 77.752 511.53 77.83 511.962 77.83ZM518.899 79.27C518.587 79.27 518.329 79.168 518.125 78.964C517.921 78.76 517.819 78.502 517.819 78.19C517.819 77.878 517.921 77.62 518.125 77.416C518.329 77.212 518.587 77.11 518.899 77.11C519.211 77.11 519.469 77.212 519.673 77.416C519.877 77.62 519.979 77.878 519.979 78.19C519.979 78.502 519.877 78.76 519.673 78.964C519.469 79.168 519.211 79.27 518.899 79.27Z" fill="#F5F5F7"/>
<g filter="url(#filter1_b_264_1367)">
<ellipse cx="59" cy="60.6614" rx="35" ry="35.9856" fill="white" fill-opacity="0.2"/>
<path d="M93.5 60.6614C93.5 80.2727 78.0408 96.1469 59 96.1469C39.9592 96.1469 24.5 80.2727 24.5 60.6614C24.5 41.05 39.9592 25.1758 59 25.1758C78.0408 25.1758 93.5 41.05 93.5 60.6614Z" stroke="url(#paint1_radial_264_1367)"/>
</g>
<g filter="url(#filter2_b_264_1367)">
<ellipse cx="96" cy="60.6614" rx="35" ry="35.9856" fill="white" fill-opacity="0.2"/>
<path d="M130.5 60.6614C130.5 80.2727 115.041 96.1469 96 96.1469C76.9592 96.1469 61.5 80.2727 61.5 60.6614C61.5 41.05 76.9592 25.1758 96 25.1758C115.041 25.1758 130.5 41.05 130.5 60.6614Z" stroke="url(#paint2_radial_264_1367)"/>
</g>
<g clip-path="url(#clip0_264_1367)">
<path d="M83.1667 60.6616H108.833" stroke="white" stroke-width="2.75" stroke-linecap="round" stroke-linejoin="round"/>
<path d="M101.5 68.2015L108.833 60.6616" stroke="white" stroke-width="2.75" stroke-linecap="round" stroke-linejoin="round"/>
<path d="M101.5 53.1216L108.833 60.6614" stroke="white" stroke-width="2.75" stroke-linecap="round" stroke-linejoin="round"/>
</g>
<defs>
<filter id="filter0_b_264_1367" x="-40" y="-40" width="734" height="202.351" filterUnits="userSpaceOnUse" color-interpolation-filters="sRGB">
<feFlood flood-opacity="0" result="BackgroundImageFix"/>
<feGaussianBlur in="BackgroundImageFix" stdDeviation="20"/>
<feComposite in2="SourceAlpha" operator="in" result="effect1_backgroundBlur_264_1367"/>
<feBlend mode="normal" in="SourceGraphic" in2="effect1_backgroundBlur_264_1367" result="shape"/>
</filter>
<filter id="filter1_b_264_1367" x="-16" y="-15.3242" width="150" height="151.971" filterUnits="userSpaceOnUse" color-interpolation-filters="sRGB">
<feFlood flood-opacity="0" result="BackgroundImageFix"/>
<feGaussianBlur in="BackgroundImageFix" stdDeviation="20"/>
<feComposite in2="SourceAlpha" operator="in" result="effect1_backgroundBlur_264_1367"/>
<feBlend mode="normal" in="SourceGraphic" in2="effect1_backgroundBlur_264_1367" result="shape"/>
</filter>
<filter id="filter2_b_264_1367" x="21" y="-15.3242" width="150" height="151.971" filterUnits="userSpaceOnUse" color-interpolation-filters="sRGB">
<feFlood flood-opacity="0" result="BackgroundImageFix"/>
<feGaussianBlur in="BackgroundImageFix" stdDeviation="20"/>
<feComposite in2="SourceAlpha" operator="in" result="effect1_backgroundBlur_264_1367"/>
<feBlend mode="normal" in="SourceGraphic" in2="effect1_backgroundBlur_264_1367" result="shape"/>
</filter>
<radialGradient id="paint0_radial_264_1367" cx="0" cy="0" r="1" gradientUnits="userSpaceOnUse" gradientTransform="translate(-80.5652 -22.8725) rotate(21.8658) scale(504.692 391.554)">
<stop stop-color="white" stop-opacity="0.75"/>
<stop offset="1" stop-color="white" stop-opacity="0"/>
</radialGradient>
<radialGradient id="paint1_radial_264_1367" cx="0" cy="0" r="1" gradientUnits="userSpaceOnUse" gradientTransform="translate(15.3768 11.2213) rotate(65.6098) scale(121.402 102.486)">
<stop stop-color="white" stop-opacity="0.75"/>
<stop offset="1" stop-color="white" stop-opacity="0"/>
</radialGradient>
<radialGradient id="paint2_radial_264_1367" cx="0" cy="0" r="1" gradientUnits="userSpaceOnUse" gradientTransform="translate(52.3768 11.2213) rotate(65.6098) scale(121.402 102.486)">
<stop stop-color="white" stop-opacity="0.75"/>
<stop offset="1" stop-color="white" stop-opacity="0"/>
</radialGradient>
<clipPath id="clip0_264_1367">
<rect width="44" height="45.239" fill="white" transform="translate(74 38.042)"/>
</clipPath>
</defs>
</svg>
