<svg width="94" height="62" viewBox="0 0 94 62" fill="none" xmlns="http://www.w3.org/2000/svg">
  <rect x="0.227783" width="93.3429" height="61.9655" rx="20" fill="#F1F6FF" />
  <path fill-rule="evenodd" clip-rule="evenodd" d="M44.3127 40.6856V32.8859H48.4709C50.1749 32.8859 51.6131 32.3331 52.7855 31.243L53.0669 30.9666C55.2085 28.7096 55.0678 25.1936 52.7855 23.1054C51.6443 21.9999 50.0811 21.4011 48.4709 21.4319H41.7959V40.6856H44.3127ZM44.313 30.5213V23.7963H48.5344C49.4413 23.7963 50.3012 24.1341 50.9422 24.7483C52.3025 26.038 52.3337 28.1875 51.0204 29.5233C50.3794 30.1835 49.4725 30.552 48.5344 30.5213H44.313ZM64.8069 28.5407C63.7283 27.5734 62.2588 27.0821 60.3985 27.0821C58.0068 27.0821 56.2091 27.9419 55.021 29.6462L57.2408 31.0127C58.0537 29.8458 59.1636 29.2624 60.5705 29.2624C61.4616 29.2624 62.3213 29.5848 62.9935 30.1682C63.6501 30.721 64.0253 31.5194 64.0253 32.3638V32.9319C63.0561 32.4099 61.8367 32.1335 60.336 32.1335C58.5852 32.1335 57.1783 32.5327 56.1309 33.3465C55.0835 34.1603 54.552 35.235 54.552 36.6015C54.5208 37.8452 55.0679 39.0274 56.0371 39.8258C57.0219 40.6857 58.2725 41.1156 59.742 41.1156C61.4772 41.1156 62.8528 40.3632 63.9002 38.8586H64.0096V40.6857H66.417V32.5634C66.417 30.8592 65.8855 29.508 64.8069 28.5407ZM57.976 38.2597C57.46 37.8912 57.1473 37.2924 57.1473 36.6476C57.1473 35.9259 57.4913 35.3271 58.1636 34.8512C58.8515 34.3752 59.7114 34.1295 60.7277 34.1295C62.1348 34.1142 63.2293 34.4213 64.011 35.0354C64.011 36.0795 63.5889 36.9854 62.7602 37.7531C62.0098 38.49 60.9935 38.9046 59.9303 38.9046C59.2268 38.92 58.5388 38.6896 57.976 38.2597ZM71.8259 46.4741L80.2362 27.512H77.5005L73.608 36.97H73.5611L69.5748 27.512H66.8392L72.3574 39.8412L69.2309 46.4741H71.8259Z" fill="#3C4043" />
  <path d="M35.6238 31.1969C35.6238 30.4446 35.5613 29.6922 35.4362 28.9553H24.8218V33.2083H30.9028C30.6527 34.5748 29.8398 35.8031 28.6517 36.5708V39.3345H32.2784C34.4045 37.4153 35.6238 34.5748 35.6238 31.1969Z" fill="#4285F4" />
  <path d="M24.8222 42.0061C27.8549 42.0061 30.4186 41.0235 32.2788 39.3345L28.6521 36.5708C27.636 37.2464 26.3385 37.6302 24.8222 37.6302C21.8833 37.6302 19.3977 35.6803 18.5067 33.0701H14.7705V35.926C16.6777 39.657 20.5701 42.0061 24.8222 42.0061Z" fill="#34A853" />
  <path d="M18.507 33.0702C18.038 31.7037 18.038 30.2143 18.507 28.8325V25.992H14.7703C13.1599 29.1088 13.1599 32.7938 14.7703 35.9106L18.507 33.0702Z" fill="#FBBC04" />
  <path d="M24.8222 24.2723C26.4323 24.2416 27.9799 24.8404 29.1367 25.9306L32.357 22.7677C30.3091 20.8945 27.6204 19.8658 24.8222 19.8965C20.5701 19.8965 16.6777 22.261 14.7705 25.992L18.5067 28.8478C19.3977 26.2223 21.8833 24.2723 24.8222 24.2723Z" fill="#EA4335" />
</svg>