<svg width="45" height="18" viewBox="0 0 45 18" fill="none" xmlns="http://www.w3.org/2000/svg">
  <g opacity="0.5">
    <path fill-rule="evenodd" clip-rule="evenodd" d="M21.2952 13.9478V8.88587V8.88487H24.0356C25.1655 8.88554 26.115 8.53079 26.8843 7.82063C27.6617 7.14664 28.0963 6.17758 28.0742 5.1675C28.0896 4.16303 27.6557 3.20115 26.8843 2.52933C26.1218 1.81528 25.0962 1.42568 24.0356 1.44713H19.6365V13.9478H21.2952ZM21.295 7.34977V2.98607V2.98507H24.0767C24.6967 2.9682 25.2943 3.20974 25.7179 3.64836C26.144 4.04948 26.3845 4.60046 26.3845 5.1759C26.3845 5.75134 26.144 6.30232 25.7179 6.70345C25.2891 7.13283 24.6933 7.36747 24.0767 7.34977H21.295Z" fill="#FCFCFC" />
    <path fill-rule="evenodd" clip-rule="evenodd" d="M34.7996 6.06726C34.0901 5.4329 33.1223 5.11572 31.8963 5.11572C30.3214 5.11572 29.1322 5.67428 28.3286 6.79139L29.7895 7.68208C30.3293 6.92537 31.0625 6.54702 31.989 6.54702C32.5798 6.54032 33.1514 6.74937 33.59 7.1325C34.0274 7.48256 34.279 8.00446 34.2752 8.55382V8.92087C33.6378 8.57178 32.8266 8.39723 31.8417 8.39723C30.6878 8.39856 29.7654 8.66055 29.0745 9.18319C28.3835 9.70584 28.0381 10.4097 28.0381 11.2947C28.023 12.1006 28.3841 12.8701 29.0209 13.3893C29.6761 13.9479 30.4904 14.2271 31.4636 14.2271C32.6038 14.2271 33.5172 13.7384 34.2041 12.7609H34.2762V13.9479H35.8628V8.67651C35.8635 7.57137 35.509 6.70162 34.7996 6.06726ZM30.3004 12.3769C29.9529 12.1344 29.748 11.7443 29.7503 11.3296C29.7503 10.8638 29.9759 10.4758 30.4302 10.1566C30.8801 9.84211 31.4419 9.68485 32.1157 9.68485C33.0409 9.68485 33.762 9.88433 34.2792 10.2833C34.2792 10.9576 34.0045 11.545 33.455 12.0457C32.9601 12.5249 32.2892 12.7947 31.5892 12.7958C31.1226 12.8042 30.6672 12.6562 30.3004 12.3769Z" fill="#FCFCFC" />
    <path fill-rule="evenodd" clip-rule="evenodd" d="M44.9703 5.3949L39.4317 17.718H37.7194L39.7747 13.4062L36.1328 5.3949H37.9357L40.568 11.539H40.6041L43.1642 5.3949L44.9703 5.3949Z" fill="#FCFCFC" />
    <path fill-rule="evenodd" clip-rule="evenodd" d="M14.5921 7.79469C14.5927 7.30531 14.55 6.81678 14.4644 6.33447H7.46899V9.10031H11.4756C11.3099 9.99295 10.7748 10.7813 9.99413 11.2827V13.078H12.3853C13.7854 11.8282 14.5921 9.98003 14.5921 7.79469Z" fill="#FCFCFC" />
    <path fill-rule="evenodd" clip-rule="evenodd" d="M7.46912 14.8125C9.47089 14.8125 11.1564 14.1761 12.3855 13.0789L9.99425 11.2836C9.32871 11.7205 8.47155 11.9698 7.46912 11.9698C5.53432 11.9698 3.89211 10.7071 3.30487 9.00549H0.841553V10.8557C2.10067 13.2814 4.66502 14.8123 7.46912 14.8125Z" fill="#FCFCFC" />
    <path fill-rule="evenodd" clip-rule="evenodd" d="M3.30494 9.00547C2.99448 8.11382 2.99448 7.14823 3.30494 6.25658V4.40637H0.841618C-0.211529 6.43525 -0.211529 8.8268 0.841618 10.8557L3.30494 9.00547Z" fill="#FCFCFC" />
    <path fill-rule="evenodd" clip-rule="evenodd" d="M7.46912 3.29233C8.52697 3.2756 9.54912 3.66255 10.3147 4.36954L12.4318 2.31985C11.0893 1.09908 9.31081 0.428865 7.46912 0.44969C4.66502 0.449814 2.10067 1.98077 0.841553 4.40645L3.30487 6.25666C3.89211 4.55506 5.53432 3.29233 7.46912 3.29233Z" fill="#FCFCFC" />
  </g>
</svg>