<svg width="253" height="85" viewBox="0 0 253 85" fill="none" xmlns="http://www.w3.org/2000/svg">
  <g filter="url(#filter0_b_264_1423)">
    <rect y="0.296631" width="253" height="84.365" rx="16" fill="white" fill-opacity="0.2" />
    <rect x="0.5" y="0.796631" width="252" height="83.365" rx="15.5" stroke="url(#paint0_radial_264_1423)" />
  </g>
  <path d="M168.662 38.8138V43.3314H165.927V46.2941H168.662V56.3606C168.662 59.7979 170.164 61.1729 173.943 61.1729C174.607 61.1729 175.239 61.091 175.793 60.9928V58.0629C175.319 58.112 175.018 58.1447 174.496 58.1447C172.805 58.1447 172.062 57.3263 172.062 55.4603V46.2941H175.793V43.3314H172.062V38.8138H168.662Z" fill="white" />
  <path d="M185.419 61.4184C190.447 61.4184 193.53 57.932 193.53 52.1539C193.53 46.4087 190.431 42.9058 185.419 42.9058C180.391 42.9058 177.292 46.4087 177.292 52.1539C177.292 57.932 180.375 61.4184 185.419 61.4184ZM185.419 58.2921C182.462 58.2921 180.802 56.0496 180.802 52.1539C180.802 48.291 182.462 46.0322 185.419 46.0322C188.36 46.0322 190.036 48.291 190.036 52.1539C190.036 56.0332 188.36 58.2921 185.419 58.2921Z" fill="white" />
  <path d="M196.168 61.0747H199.567V50.5498C199.567 48.0455 201.385 46.3596 203.962 46.3596C204.563 46.3596 205.575 46.4741 205.86 46.5724V43.1023C205.496 43.0041 204.848 42.955 204.342 42.955C202.097 42.955 200.184 44.2317 199.694 45.9831H199.441V43.2496H196.168V61.0747Z" fill="white" />
  <path d="M214.3 45.9012C216.814 45.9012 218.458 47.7181 218.537 50.5171H209.842C210.031 47.7345 211.786 45.9012 214.3 45.9012ZM218.522 56.2624C217.889 57.6537 216.482 58.423 214.427 58.423C211.707 58.423 209.952 56.4424 209.842 53.3161V53.1197H222V51.8921C222 46.2941 219.107 42.9058 214.316 42.9058C209.462 42.9058 206.379 46.5232 206.379 52.2194C206.379 57.9156 209.399 61.4184 214.332 61.4184C218.269 61.4184 221.02 59.4542 221.794 56.2624H218.522Z" fill="white" />
  <path d="M146.37 54.4921C146.632 58.8692 150.156 61.6685 155.4 61.6685C161.004 61.6685 164.511 58.7335 164.511 54.0511C164.511 50.3696 162.512 48.3338 157.661 47.1631L155.055 46.5015C151.975 45.755 150.729 44.7541 150.729 43.0067C150.729 40.8012 152.663 39.3591 155.563 39.3591C158.316 39.3591 160.217 40.7672 160.562 43.0236H164.134C163.921 38.9011 160.414 36 155.613 36C150.451 36 147.009 38.9011 147.009 43.2611C147.009 46.8578 148.959 48.9954 153.236 50.0303L156.284 50.7937C159.414 51.5572 160.791 52.6769 160.791 54.543C160.791 56.7146 158.628 58.2924 155.678 58.2924C152.515 58.2924 150.319 56.8164 150.008 54.4921H146.37Z" fill="white" />
  <path d="M111.157 42.955C108.817 42.955 106.793 44.1662 105.75 46.1959H105.497V43.2496H102.224V67H105.623V58.3739H105.892C106.793 60.2563 108.738 61.3693 111.188 61.3693C115.536 61.3693 118.303 57.8174 118.303 52.1539C118.303 46.4905 115.536 42.955 111.157 42.955ZM110.192 58.2102C107.346 58.2102 105.56 55.8859 105.56 52.1703C105.56 48.4383 107.346 46.114 110.208 46.114C113.086 46.114 114.809 48.3892 114.809 52.1539C114.809 55.935 113.086 58.2102 110.192 58.2102Z" fill="white" />
  <path d="M130.198 42.955C127.858 42.955 125.834 44.1662 124.791 46.1959H124.538V43.2496H121.265V67H124.664V58.3739H124.933C125.834 60.2563 127.779 61.3693 130.23 61.3693C134.578 61.3693 137.344 57.8174 137.344 52.1539C137.344 46.4905 134.578 42.955 130.198 42.955ZM129.233 58.2102C126.388 58.2102 124.601 55.8859 124.601 52.1703C124.601 48.4383 126.388 46.114 129.249 46.114C132.127 46.114 133.85 48.3892 133.85 52.1539C133.85 55.935 132.127 58.2102 129.233 58.2102Z" fill="white" />
  <path d="M96.1248 61.0747H100.025L91.4872 36.5938H87.5378L79 61.0747H82.7691L84.9486 54.577H93.9616L96.1248 61.0747ZM89.324 41.0387H89.6026L93.0276 51.3875H85.8827L89.324 41.0387Z" fill="white" />
  <path d="M81 18.6013V30.8222H85.1276C88.5343 30.8222 90.507 28.5779 90.507 24.6736C90.507 20.8287 88.5185 18.6013 85.1276 18.6013H81ZM82.7746 20.329H84.9296C87.2984 20.329 88.7007 21.9381 88.7007 24.699C88.7007 27.5023 87.3222 29.0945 84.9296 29.0945H82.7746V20.329Z" fill="white" />
  <path d="M96.5487 31C99.0681 31 100.613 29.1961 100.613 26.2065C100.613 23.2339 99.0601 21.4215 96.5487 21.4215C94.0294 21.4215 92.4765 23.2339 92.4765 26.2065C92.4765 29.1961 94.0214 31 96.5487 31ZM96.5487 29.3824C95.0672 29.3824 94.2353 28.2222 94.2353 26.2065C94.2353 24.2078 95.0672 23.0391 96.5487 23.0391C98.0223 23.0391 98.8621 24.2078 98.8621 26.2065C98.8621 28.2137 98.0223 29.3824 96.5487 29.3824Z" fill="white" />
  <path d="M113.769 21.5993H112.066L110.529 28.6371H110.394L108.619 21.5993H106.987L105.213 28.6371H105.086L103.541 21.5993H101.814L104.191 30.8222H105.942L107.716 24.03H107.851L109.634 30.8222H111.4L113.769 21.5993Z" fill="white" />
  <path d="M115.731 30.8222H117.434V25.4274C117.434 23.9876 118.234 23.0899 119.494 23.0899C120.754 23.0899 121.356 23.8267 121.356 25.3088V30.8222H123.059V24.8515C123.059 22.658 121.997 21.4215 120.072 21.4215C118.773 21.4215 117.917 22.0397 117.497 23.0645H117.371V21.5993H115.731V30.8222Z" fill="white" />
  <path d="M125.742 30.8222H127.445V18H125.742V30.8222Z" fill="white" />
  <path d="M133.851 31C136.37 31 137.915 29.1961 137.915 26.2065C137.915 23.2339 136.362 21.4215 133.851 21.4215C131.332 21.4215 129.779 23.2339 129.779 26.2065C129.779 29.1961 131.324 31 133.851 31ZM133.851 29.3824C132.37 29.3824 131.538 28.2222 131.538 26.2065C131.538 24.2078 132.37 23.0391 133.851 23.0391C135.325 23.0391 136.164 24.2078 136.164 26.2065C136.164 28.2137 135.325 29.3824 133.851 29.3824Z" fill="white" />
  <path d="M142.99 29.4417C142.063 29.4417 141.39 28.959 141.39 28.129C141.39 27.316 141.929 26.884 143.117 26.7993L145.225 26.6554V27.4261C145.225 28.5694 144.274 29.4417 142.99 29.4417ZM142.555 30.9746C143.688 30.9746 144.63 30.4495 145.145 29.5264H145.28V30.8222H146.92V24.5212C146.92 22.5733 145.7 21.4215 143.537 21.4215C141.58 21.4215 140.186 22.4378 140.012 24.0215H141.659C141.85 23.3694 142.507 22.9967 143.458 22.9967C144.622 22.9967 145.225 23.5472 145.225 24.5212V25.3173L142.887 25.4612C140.835 25.5967 139.679 26.5537 139.679 28.2137C139.679 29.899 140.891 30.9746 142.555 30.9746Z" fill="white" />
  <path d="M152.7 30.9746C153.889 30.9746 154.895 30.3733 155.41 29.3655H155.544V30.8222H157.176V18H155.473V23.0645H155.346C154.879 22.0482 153.881 21.4469 152.7 21.4469C150.522 21.4469 149.119 23.2932 149.119 26.2065C149.119 29.1283 150.506 30.9746 152.7 30.9746ZM153.184 23.0814C154.61 23.0814 155.505 24.2925 155.505 26.215C155.505 28.1459 154.617 29.3401 153.184 29.3401C151.742 29.3401 150.878 28.1629 150.878 26.2065C150.878 24.2671 151.75 23.0814 153.184 23.0814Z" fill="white" />
  <path d="M168.222 31C170.741 31 172.286 29.1961 172.286 26.2065C172.286 23.2339 170.733 21.4215 168.222 21.4215C165.703 21.4215 164.15 23.2339 164.15 26.2065C164.15 29.1961 165.695 31 168.222 31ZM168.222 29.3824C166.741 29.3824 165.909 28.2222 165.909 26.2065C165.909 24.2078 166.741 23.0391 168.222 23.0391C169.696 23.0391 170.535 24.2078 170.535 26.2065C170.535 28.2137 169.696 29.3824 168.222 29.3824Z" fill="white" />
  <path d="M174.541 30.8222H176.244V25.4274C176.244 23.9876 177.045 23.0899 178.304 23.0899C179.564 23.0899 180.166 23.8267 180.166 25.3088V30.8222H181.869V24.8515C181.869 22.658 180.808 21.4215 178.883 21.4215C177.583 21.4215 176.728 22.0397 176.308 23.0645H176.181V21.5993H174.541V30.8222Z" fill="white" />
  <path d="M189.714 19.3042V21.6417H188.344V23.1746H189.714V28.3831C189.714 30.1616 190.467 30.873 192.36 30.873C192.693 30.873 193.01 30.8306 193.287 30.7798V29.2638C193.05 29.2893 192.899 29.3062 192.638 29.3062C191.79 29.3062 191.418 28.8827 191.418 27.9173V23.1746H193.287V21.6417H191.418V19.3042H189.714Z" fill="white" />
  <path d="M195.574 30.8222H197.277V25.4358C197.277 24.0384 198.053 23.0984 199.448 23.0984C200.652 23.0984 201.294 23.8436 201.294 25.3173V30.8222H202.997V24.8684C202.997 22.6749 201.864 21.43 200.026 21.43C198.727 21.43 197.816 22.0482 197.396 23.0814H197.261V18H195.574V30.8222Z" fill="white" />
  <path d="M209.142 22.9713C210.401 22.9713 211.225 23.9114 211.265 25.3596H206.908C207.003 23.9199 207.882 22.9713 209.142 22.9713ZM211.257 28.3322C210.94 29.0521 210.235 29.4502 209.205 29.4502C207.842 29.4502 206.963 28.4254 206.908 26.8078V26.7062H213V26.071C213 23.1746 211.55 21.4215 209.15 21.4215C206.717 21.4215 205.173 23.2932 205.173 26.2404C205.173 29.1876 206.686 31 209.158 31C211.13 31 212.509 29.9837 212.897 28.3322H211.257Z" fill="white" />
  <path d="M60.3977 41.3355C60.4392 38.0933 62.1717 35.0254 64.9202 33.3272C63.1863 30.8385 60.2821 29.2606 57.2607 29.1656C54.038 28.8257 50.9138 31.1037 49.2716 31.1037C47.5976 31.1037 45.0692 29.1994 42.3465 29.2557C38.7976 29.3709 35.4891 31.3988 33.7625 34.517C30.0509 40.9752 32.8194 50.4667 36.3748 55.687C38.1536 58.2432 40.2325 61.0986 42.9528 60.9974C45.6147 60.8864 46.6089 59.2915 49.822 59.2915C53.0054 59.2915 53.9381 60.9974 56.7136 60.933C59.5699 60.8864 61.3696 58.3654 63.086 55.7849C64.3641 53.9635 65.3475 51.9504 66 49.8203C62.6432 48.3934 60.4016 44.9984 60.3977 41.3355Z" fill="white" />
  <path d="M55.1553 25.7325C56.7127 23.8535 57.48 21.4384 57.2942 19C54.9148 19.2512 52.7169 20.3941 51.1385 22.2009C49.595 23.9664 48.7917 26.339 48.9436 28.6842C51.3238 28.7088 53.6638 27.5969 55.1553 25.7325Z" fill="white" />
  <defs>
    <filter id="filter0_b_264_1423" x="-40" y="-39.7034" width="333" height="164.365" filterUnits="userSpaceOnUse" color-interpolation-filters="sRGB">
      <feFlood flood-opacity="0" result="BackgroundImageFix" />
      <feGaussianBlur in="BackgroundImageFix" stdDeviation="20" />
      <feComposite in2="SourceAlpha" operator="in" result="effect1_backgroundBlur_264_1423" />
      <feBlend mode="normal" in="SourceGraphic" in2="effect1_backgroundBlur_264_1423" result="shape" />
    </filter>
    <radialGradient id="paint0_radial_264_1423" cx="0" cy="0" r="1" gradientUnits="userSpaceOnUse" gradientTransform="translate(-31.1667 -15.4747) rotate(35.576) scale(222.777 236.617)">
      <stop stop-color="white" stop-opacity="0.75" />
      <stop offset="1" stop-color="white" stop-opacity="0" />
    </radialGradient>
  </defs>
</svg>