<svg width="196" height="50" viewBox="0 0 196 50" fill="none" xmlns="http://www.w3.org/2000/svg">
  <path d="M2.63866 28.506V11.8955H0V7.93751H2.63866V3.46045H7.11572V7.93751H13.3014V11.8955H7.11572V24.5697H13.5177V28.506H2.63866Z" fill="white" />
  <path d="M23.3155 29.0035C21.5419 29.0035 19.9198 28.5493 18.4491 27.6409C16.9784 26.7325 15.7888 25.4564 14.9237 23.8127C14.0585 22.1689 13.626 20.3089 13.626 18.2542C13.626 16.1562 14.0585 14.2962 14.9237 12.6525C15.7888 11.0087 16.9567 9.73264 18.4491 8.82425C19.9198 7.91586 21.5419 7.46167 23.3155 7.46167C24.5915 7.46167 25.7162 7.67795 26.6679 8.08888C27.6411 8.49982 28.4197 8.99728 29.0037 9.58124C29.6093 10.1436 29.9986 10.5978 30.1933 10.9222H30.323V7.95912H34.8001V28.506H30.323V25.5429H30.1933C29.9986 25.889 29.6093 26.3432 29.0037 26.9055C28.3981 27.4679 27.6195 27.9437 26.6679 28.3763C25.7162 28.7872 24.5915 29.0035 23.3155 29.0035ZM24.2239 25.0455C25.3702 25.0455 26.4083 24.7643 27.3383 24.202C28.2684 23.6396 29.0037 22.861 29.5444 21.8229C30.0635 20.7847 30.3447 19.5952 30.3447 18.2326C30.3447 16.8484 30.0851 15.6372 29.5444 14.599C29.0253 13.5609 28.29 12.7822 27.3383 12.2199C26.4083 11.6576 25.3702 11.3764 24.2239 11.3764C23.1208 11.3764 22.0827 11.6576 21.1743 12.2199C20.2442 12.7822 19.5305 13.5609 18.9898 14.599C18.4707 15.6372 18.1896 16.8484 18.1896 18.2326C18.1896 19.5952 18.4491 20.7847 18.9898 21.8229C19.5089 22.861 20.2442 23.6396 21.1743 24.202C22.0827 24.7643 23.0992 25.0455 24.2239 25.0455Z" fill="white" />
  <path d="M37.46 36.2489V7.9374H41.8938V10.9005H42.0235C42.2398 10.5544 42.6508 10.1002 43.2347 9.53789C43.8403 8.97555 44.5973 8.49973 45.549 8.06717C46.5006 7.65623 47.6253 7.43994 48.923 7.43994C50.6965 7.43994 52.297 7.89415 53.7677 8.80254C55.2384 9.71093 56.4064 10.987 57.2715 12.6307C58.1366 14.2745 58.5692 16.1345 58.5692 18.2325C58.5692 20.2872 58.1366 22.1472 57.2715 23.791C56.4064 25.4347 55.2384 26.7108 53.7677 27.6192C52.297 28.5276 50.6965 28.9818 48.923 28.9818C47.6253 28.9818 46.5006 28.7655 45.549 28.3545C44.5973 27.9436 43.8187 27.4461 43.2347 26.8838C42.6291 26.3215 42.2398 25.8673 42.0235 25.5212H41.8938V36.2272H37.46V36.2489ZM47.993 25.0454C49.1393 25.0454 50.1558 24.7642 51.0642 24.2019C51.9726 23.6396 52.6863 22.8609 53.227 21.8228C53.7461 20.7846 54.0272 19.5951 54.0272 18.2325C54.0272 16.8483 53.7677 15.6371 53.227 14.5989C52.7079 13.5608 51.9726 12.7821 51.0642 12.2198C50.1558 11.6575 49.1393 11.3763 47.993 11.3763C46.8467 11.3763 45.8085 11.6575 44.8785 12.2198C43.9485 12.7821 43.2131 13.5608 42.6724 14.5989C42.1533 15.6371 41.8721 16.8483 41.8721 18.2325C41.8721 19.5951 42.1317 20.7846 42.6724 21.8228C43.1915 22.8609 43.9268 23.6396 44.8785 24.2019C45.8085 24.7642 46.8467 25.0454 47.993 25.0454Z" fill="white" />
  <path d="M60.5376 28.5061V0H73.3199C75.526 0 77.4293 0.410933 79.0514 1.21118C80.6736 2.01143 81.928 3.11447 82.7931 4.52031C83.6583 5.92615 84.0908 7.50503 84.0908 9.23529C84.0908 11.3549 83.4636 13.1716 82.1875 14.664C80.9331 16.178 79.2245 17.2594 77.0833 17.9082L84.0043 28.5061H78.4242L72.0006 18.5355H65.3607V28.5061H60.5376ZM73.255 13.9719C75.18 13.9719 76.6507 13.5393 77.6456 12.6958C78.6405 11.8307 79.1596 10.6844 79.1596 9.25692C79.1596 7.85108 78.6621 6.70477 77.6456 5.86127C76.6507 4.99614 75.18 4.58521 73.255 4.58521H65.404V13.9935H73.255V13.9719Z" fill="white" />
  <path d="M94.7102 29.0035C92.6988 29.0035 90.882 28.5276 89.2599 27.5976C87.6378 26.6676 86.34 25.3699 85.3884 23.7262C84.4368 22.0824 83.9609 20.2656 83.9609 18.2542C83.9609 16.2428 84.4368 14.4044 85.3884 12.7606C86.34 11.0952 87.6378 9.79753 89.2599 8.86751C90.882 7.93749 92.6988 7.46167 94.7102 7.46167C96.7433 7.46167 98.5817 7.93749 100.204 8.86751C101.826 9.79753 103.102 11.0952 104.032 12.739C104.962 14.3827 105.416 16.1779 105.416 18.1244V19.3356H88.5245C88.6543 20.3954 89.022 21.3687 89.6059 22.2338C90.1899 23.0989 90.9253 23.791 91.8337 24.2885C92.7204 24.7859 93.6937 25.0455 94.7318 25.0455C96.1377 25.0455 97.3272 24.7643 98.3221 24.1804C99.2954 23.5964 100.009 22.861 100.485 21.9959H105.135C104.465 23.9425 103.232 25.6078 101.48 26.9704C99.6847 28.3114 97.457 29.0035 94.7102 29.0035ZM100.658 16.1995C100.528 15.3344 100.182 14.5341 99.6631 13.7988C99.144 13.0634 98.4519 12.4794 97.5868 12.0469C96.7216 11.6143 95.77 11.398 94.7102 11.398C93.6721 11.398 92.742 11.6143 91.8769 12.0469C91.0118 12.4794 90.3197 13.0634 89.779 13.7988C89.2383 14.5341 88.8489 15.3344 88.6326 16.1995H100.658Z" fill="white" />
  <path d="M115.517 29.0035C113.743 29.0035 112.121 28.5493 110.65 27.6409C109.18 26.7325 107.99 25.4564 107.125 23.8127C106.26 22.1689 105.827 20.3089 105.827 18.2542C105.827 16.1562 106.26 14.2962 107.125 12.6525C107.99 11.0087 109.158 9.73264 110.65 8.82425C112.121 7.91586 113.743 7.46167 115.517 7.46167C116.793 7.46167 117.917 7.67795 118.869 8.08888C119.842 8.49982 120.621 8.99728 121.205 9.58124C121.81 10.1436 122.2 10.5978 122.394 10.9222H122.524V7.95912H127.001V28.506H122.524V25.5429H122.394C122.2 25.889 121.81 26.3432 121.205 26.9055C120.599 27.4679 119.821 27.9437 118.869 28.3763C117.917 28.7872 116.793 29.0035 115.517 29.0035ZM116.403 25.0455C117.55 25.0455 118.588 24.7643 119.518 24.202C120.448 23.6396 121.183 22.861 121.724 21.8229C122.243 20.7847 122.524 19.5952 122.524 18.2326C122.524 16.8484 122.265 15.6372 121.724 14.599C121.205 13.5609 120.47 12.7822 119.518 12.2199C118.588 11.6576 117.55 11.3764 116.403 11.3764C115.3 11.3764 114.262 11.6576 113.354 12.2199C112.424 12.7822 111.71 13.5609 111.169 14.599C110.65 15.6372 110.369 16.8484 110.369 18.2326C110.369 19.5952 110.629 20.7847 111.169 21.8229C111.688 22.861 112.424 23.6396 113.354 24.202C114.284 24.7643 115.3 25.0455 116.403 25.0455Z" fill="white" />
  <path d="M138.205 29.0036C136.432 29.0036 134.809 28.5494 133.339 27.641C131.868 26.7326 130.678 25.4565 129.813 23.8128C128.948 22.169 128.516 20.309 128.516 18.2543C128.516 16.1563 128.948 14.2963 129.813 12.6526C130.678 11.0088 131.846 9.73274 133.339 8.82435C134.809 7.91596 136.432 7.46177 138.205 7.46177C139.481 7.46177 140.606 7.67804 141.557 8.08898C142.531 8.49992 143.309 8.99738 143.893 9.55972C144.499 10.1221 144.888 10.5762 145.083 10.9223H145.213V0H149.69V28.5061H145.213V25.543H145.083C144.888 25.8891 144.499 26.3433 143.893 26.9056C143.288 27.468 142.509 27.9438 141.557 28.3764C140.584 28.7873 139.46 29.0036 138.205 29.0036ZM139.092 25.0456C140.238 25.0456 141.276 24.7644 142.206 24.2021C143.136 23.6397 143.872 22.8611 144.412 21.823C144.932 20.7848 145.213 19.5953 145.213 18.2327C145.213 16.8485 144.953 15.6373 144.412 14.5991C143.893 13.561 143.158 12.7823 142.206 12.22C141.276 11.6577 140.238 11.3765 139.092 11.3765C137.989 11.3765 136.951 11.6577 136.042 12.22C135.112 12.7823 134.399 13.561 133.858 14.5991C133.339 15.6373 133.058 16.8485 133.058 18.2327C133.058 19.5953 133.317 20.7848 133.858 21.823C134.377 22.8611 135.112 23.6397 136.042 24.2021C136.951 24.7644 137.967 25.0456 139.092 25.0456Z" fill="white" />
  <path d="M158.103 36.249L160.461 28.506H155.854L150.36 7.9375H155.053L159.336 24.548H161.65L166.581 7.9375H171.231L162.796 36.249H158.103Z" fill="white" />
  <path d="M192.406 18.5139C192.384 15.075 191.779 11.7442 190.632 8.49996C190.091 6.98598 189.443 5.51525 188.621 4.13104C187.885 2.8766 188.426 1.60053 189.854 1.2761C190.394 1.14633 191.259 1.47076 191.541 2.01147C192.168 3.1794 192.795 4.34733 193.336 5.53688C194.287 7.6132 194.936 9.79767 195.347 12.047C195.585 13.3663 195.737 14.7289 195.866 16.0699C195.953 16.9566 196.018 17.8434 195.996 18.7302C195.953 20.6983 195.801 22.6449 195.434 24.5914C195.023 26.7326 194.46 28.8522 193.595 30.842C193.033 32.1613 192.384 33.459 191.735 34.7351C191.389 35.4272 190.546 35.8598 189.94 35.7733C189.075 35.6435 188.491 35.0812 188.318 34.216C188.231 33.7402 188.383 33.3076 188.621 32.9183C190.005 30.496 191 27.9222 191.605 25.197C191.887 23.8777 192.06 22.5367 192.233 21.1958C192.341 20.2874 192.341 19.4006 192.406 18.5139Z" fill="#05FF69" />
  <path d="M188.577 18.5139C188.555 21.5202 188.08 24.4401 187.02 27.2301C186.501 28.6359 185.809 29.9769 185.138 31.2962C184.706 32.1397 183.884 32.4425 183.019 32.2046C182.218 31.9667 181.634 31.2097 181.743 30.3446C181.807 29.8255 182.132 29.3497 182.348 28.8739C182.867 27.641 183.451 26.4299 183.905 25.1754C184.424 23.7696 184.641 22.2772 184.835 20.8065C184.879 20.4605 184.9 20.0928 184.9 19.7251C184.9 19.0979 184.9 18.449 184.9 17.8218C184.9 16.0699 184.597 14.3396 184.143 12.6526C183.646 10.8358 182.932 9.12721 181.98 7.50509C181.288 6.2939 181.959 4.93131 183.343 4.71503C183.992 4.62852 184.749 5.03945 185.138 5.75319C186.566 8.2837 187.604 10.944 188.08 13.7989C188.253 14.8371 188.339 15.9185 188.447 16.9567C188.534 17.4757 188.555 17.9948 188.577 18.5139Z" fill="#05FF69" />
  <path d="M181.159 18.5139C181.159 21.6067 180.359 24.4833 178.909 27.2085C178.607 27.7708 178.326 28.3764 177.677 28.7008C176.552 29.2632 175.168 28.4197 175.103 27.1868C175.081 26.538 175.406 26.0622 175.687 25.5647C176.465 24.1805 177.028 22.7314 177.244 21.1525C177.395 20.1793 177.525 19.206 177.504 18.2327C177.46 16.2862 177.071 14.3829 176.228 12.6094C175.925 12.0038 175.579 11.3982 175.276 10.7926C174.692 9.55975 175.492 8.26206 176.725 8.17555C177.547 8.13229 178.109 8.49997 178.52 9.19208C179.731 11.2035 180.51 13.3663 180.899 15.6589C181.072 16.589 181.072 17.5622 181.159 18.5139Z" fill="#05FF69" />
  <path d="M94.0397 43.1701C94.3642 42.9754 94.7318 42.8673 95.1644 42.8673C95.597 42.8673 95.9647 42.9538 96.2891 43.1485C96.6135 43.3431 96.873 43.6243 97.0677 43.9703C97.2624 44.338 97.3489 44.749 97.3489 45.2248C97.3489 45.7006 97.2624 46.1115 97.0677 46.4792C96.873 46.8469 96.6135 47.1281 96.2891 47.3227C95.9647 47.5174 95.5753 47.6255 95.1644 47.6255C94.7318 47.6255 94.3425 47.5174 94.0397 47.3227C93.7153 47.1281 93.499 46.8685 93.3476 46.5441V47.5606H92.7637V41.3101H93.3476V43.9703C93.4774 43.6243 93.7153 43.3647 94.0397 43.1701ZM96.527 44.2299C96.3756 43.9487 96.1809 43.7324 95.9214 43.6027C95.6619 43.4513 95.3807 43.3864 95.0346 43.3864C94.7102 43.3864 94.4291 43.4729 94.1695 43.6243C93.91 43.7757 93.6937 43.992 93.5423 44.2731C93.3909 44.5543 93.3044 44.8787 93.3044 45.2464C93.3044 45.6141 93.3909 45.9385 93.5423 46.2197C93.6937 46.5009 93.91 46.7171 94.1695 46.8685C94.4291 47.0199 94.7102 47.1064 95.0346 47.1064C95.3591 47.1064 95.6619 47.0416 95.9214 46.8902C96.1809 46.7388 96.3756 46.5225 96.527 46.2413C96.6784 45.9601 96.7433 45.6357 96.7433 45.2464C96.7649 44.8571 96.6784 44.511 96.527 44.2299Z" fill="white" />
  <path d="M102.237 42.9321L99.5118 49.7018H98.8845L99.7713 47.5173L97.8896 42.9321H98.5385L100.117 46.8685L101.631 42.9321H102.237Z" fill="white" />
  <path d="M105.957 47.0632H108.076V47.539H105.373V41.6345H105.957V47.0632Z" fill="white" />
  <path d="M108.898 41.9373C108.812 41.8507 108.769 41.7426 108.769 41.6345C108.769 41.5263 108.812 41.4182 108.898 41.3317C108.985 41.2452 109.093 41.2019 109.201 41.2019C109.309 41.2019 109.417 41.2452 109.504 41.3317C109.59 41.4182 109.634 41.5263 109.634 41.6345C109.634 41.7426 109.59 41.8724 109.504 41.9373C109.417 42.0238 109.309 42.067 109.201 42.067C109.093 42.067 108.985 42.0238 108.898 41.9373ZM109.504 42.9322V47.539H108.92V42.9322H109.504Z" fill="white" />
  <path d="M113.332 47.5392L111.429 45.4629V47.5392H110.845V41.2886H111.429V44.987L113.289 42.9323H114.111L111.926 45.2249L114.132 47.5392H113.332Z" fill="white" />
  <path d="M119.042 45.4627H115.214C115.235 45.8087 115.322 46.1115 115.473 46.3494C115.625 46.5874 115.819 46.782 116.079 46.9118C116.317 47.0415 116.598 47.1064 116.879 47.1064C117.268 47.1064 117.593 47.0199 117.852 46.8253C118.112 46.6306 118.285 46.3927 118.371 46.0683H118.999C118.891 46.5225 118.653 46.8902 118.285 47.1713C117.917 47.4525 117.463 47.6039 116.901 47.6039C116.468 47.6039 116.079 47.5174 115.733 47.3227C115.387 47.1281 115.127 46.8469 114.933 46.5008C114.738 46.1548 114.651 45.7222 114.651 45.2464C114.651 44.7706 114.738 44.3596 114.933 43.992C115.127 43.6243 115.387 43.3647 115.733 43.1701C116.079 42.9754 116.468 42.8889 116.901 42.8889C117.333 42.8889 117.723 42.9754 118.047 43.1701C118.371 43.3647 118.631 43.6243 118.804 43.9487C118.977 44.2731 119.064 44.6408 119.064 45.0301C119.064 45.2032 119.064 45.3545 119.042 45.4627ZM118.263 44.1001C118.112 43.8622 117.917 43.6675 117.679 43.5594C117.441 43.4296 117.16 43.3647 116.879 43.3647C116.447 43.3647 116.057 43.5161 115.754 43.7973C115.452 44.0785 115.279 44.4678 115.235 44.9869H118.48C118.48 44.6408 118.393 44.3596 118.263 44.1001Z" fill="white" />
  <path d="M123.649 43.3648C123.995 43.7108 124.168 44.2083 124.168 44.8355V47.5391H123.584V44.9004C123.584 44.4029 123.454 44.0136 123.217 43.7541C122.957 43.4946 122.633 43.3648 122.2 43.3648C121.746 43.3648 121.4 43.5162 121.14 43.7974C120.881 44.0785 120.751 44.4895 120.751 45.0302V47.5391H120.167V42.9322H120.751V43.7108C120.902 43.4297 121.119 43.2134 121.378 43.062C121.638 42.9106 121.962 42.8457 122.308 42.8457C122.849 42.8457 123.303 43.0187 123.649 43.3648Z" fill="white" />
  <path d="M129.64 45.4627H125.812C125.833 45.8087 125.92 46.1115 126.071 46.3494C126.223 46.5874 126.417 46.782 126.677 46.9118C126.915 47.0415 127.196 47.1064 127.477 47.1064C127.867 47.1064 128.191 47.0199 128.45 46.8253C128.71 46.6306 128.883 46.3927 128.97 46.0683H129.597C129.489 46.5225 129.251 46.8902 128.883 47.1713C128.515 47.4525 128.061 47.6039 127.499 47.6039C127.066 47.6039 126.677 47.5174 126.331 47.3227C125.985 47.1281 125.725 46.8469 125.531 46.5008C125.336 46.1548 125.25 45.7222 125.25 45.2464C125.25 44.7706 125.336 44.3596 125.531 43.992C125.725 43.6243 125.985 43.3647 126.331 43.1701C126.677 42.9754 127.066 42.8889 127.499 42.8889C127.931 42.8889 128.321 42.9754 128.645 43.1701C128.97 43.3647 129.229 43.6243 129.402 43.9487C129.575 44.2731 129.662 44.6408 129.662 45.0301C129.662 45.2032 129.662 45.3545 129.64 45.4627ZM128.861 44.1001C128.71 43.8622 128.515 43.6675 128.277 43.5594C128.04 43.4296 127.758 43.3647 127.477 43.3647C127.045 43.3647 126.655 43.5161 126.353 43.7973C126.05 44.0785 125.877 44.4678 125.833 44.9869H129.078C129.056 44.6408 128.991 44.3596 128.861 44.1001Z" fill="white" />
  <path d="M131.024 47.2362C130.7 46.9983 130.505 46.6523 130.462 46.2414H131.068C131.089 46.5009 131.219 46.7172 131.435 46.8686C131.651 47.02 131.933 47.1065 132.3 47.1065C132.625 47.1065 132.863 47.02 133.057 46.8686C133.23 46.7172 133.338 46.5225 133.338 46.3062C133.338 46.1548 133.295 46.0251 133.187 45.9169C133.079 45.8088 132.949 45.7439 132.798 45.679C132.646 45.6141 132.43 45.5492 132.171 45.4844C131.825 45.3978 131.543 45.3113 131.327 45.2248C131.111 45.1383 130.938 45.0085 130.786 44.8139C130.635 44.6409 130.57 44.4029 130.57 44.1001C130.57 43.8839 130.635 43.6676 130.765 43.4729C130.894 43.2783 131.089 43.1269 131.349 43.0187C131.587 42.9106 131.868 42.8457 132.192 42.8457C132.69 42.8457 133.079 42.9755 133.382 43.2134C133.685 43.4729 133.858 43.819 133.879 44.2515H133.295C133.274 43.992 133.165 43.7541 132.971 43.6027C132.776 43.4297 132.517 43.3432 132.171 43.3432C131.868 43.3432 131.63 43.408 131.435 43.5594C131.241 43.7108 131.154 43.8839 131.154 44.0785C131.154 44.2515 131.219 44.4029 131.327 44.5111C131.435 44.6192 131.565 44.7274 131.738 44.7706C131.911 44.8355 132.127 44.9004 132.387 44.9869C132.711 45.0734 132.992 45.1599 133.187 45.2465C133.382 45.333 133.555 45.4627 133.685 45.6141C133.814 45.7655 133.901 46.0034 133.901 46.263C133.901 46.5009 133.836 46.7388 133.706 46.9335C133.576 47.1281 133.382 47.2795 133.144 47.3876C132.906 47.4958 132.625 47.5607 132.3 47.5607C131.803 47.6039 131.37 47.4958 131.024 47.2362Z" fill="white" />
  <path d="M135.328 47.2362C135.004 46.9983 134.809 46.6523 134.766 46.2414H135.371C135.393 46.5009 135.523 46.7172 135.739 46.8686C135.955 47.02 136.237 47.1065 136.604 47.1065C136.929 47.1065 137.167 47.02 137.361 46.8686C137.534 46.7172 137.642 46.5225 137.642 46.3062C137.642 46.1548 137.599 46.0251 137.491 45.9169C137.383 45.8088 137.253 45.7439 137.102 45.679C136.95 45.6141 136.734 45.5492 136.474 45.4844C136.128 45.3978 135.847 45.3113 135.631 45.2248C135.415 45.1383 135.242 45.0085 135.09 44.8139C134.939 44.6409 134.874 44.4029 134.874 44.1001C134.874 43.8839 134.939 43.6676 135.069 43.4729C135.198 43.2783 135.393 43.1269 135.653 43.0187C135.891 42.9106 136.172 42.8457 136.496 42.8457C136.994 42.8457 137.383 42.9755 137.686 43.2134C137.988 43.4729 138.162 43.819 138.183 44.2515H137.599C137.578 43.992 137.469 43.7541 137.275 43.6027C137.08 43.4297 136.821 43.3432 136.474 43.3432C136.172 43.3432 135.934 43.408 135.739 43.5594C135.544 43.7108 135.458 43.8839 135.458 44.0785C135.458 44.2515 135.523 44.4029 135.631 44.5111C135.739 44.6192 135.869 44.7274 136.042 44.7706C136.215 44.8355 136.431 44.9004 136.691 44.9869C137.015 45.0734 137.296 45.1599 137.491 45.2465C137.686 45.333 137.859 45.4627 137.988 45.6141C138.118 45.7655 138.205 46.0034 138.205 46.263C138.205 46.5009 138.14 46.7388 138.01 46.9335C137.88 47.1281 137.686 47.2795 137.448 47.3876C137.21 47.4958 136.929 47.5607 136.604 47.5607C136.107 47.6039 135.674 47.4958 135.328 47.2362Z" fill="white" />
  <path d="M145.104 41.6345V42.132H143.46V47.539H142.876V42.132H141.233V41.6345H145.104Z" fill="white" />
  <path d="M150.208 45.4627H146.38C146.402 45.8087 146.488 46.1115 146.64 46.3494C146.791 46.5874 146.986 46.782 147.245 46.9118C147.483 47.0415 147.764 47.1064 148.046 47.1064C148.435 47.1064 148.759 47.0199 149.019 46.8253C149.278 46.6306 149.451 46.3927 149.538 46.0683H150.165C150.057 46.5225 149.819 46.8902 149.451 47.1713C149.084 47.4525 148.63 47.6039 148.067 47.6039C147.635 47.6039 147.245 47.5174 146.899 47.3227C146.553 47.1281 146.294 46.8469 146.099 46.5008C145.904 46.1548 145.818 45.7222 145.818 45.2464C145.818 44.7706 145.904 44.3596 146.099 43.992C146.294 43.6243 146.553 43.3647 146.899 43.1701C147.245 42.9754 147.635 42.8889 148.067 42.8889C148.5 42.8889 148.889 42.9754 149.214 43.1701C149.538 43.3647 149.797 43.6243 149.971 43.9487C150.144 44.2731 150.23 44.6408 150.23 45.0301C150.208 45.2032 150.208 45.3545 150.208 45.4627ZM149.408 44.1001C149.257 43.8622 149.062 43.6675 148.824 43.5594C148.586 43.4296 148.305 43.3647 148.024 43.3647C147.591 43.3647 147.202 43.5161 146.899 43.7973C146.596 44.0785 146.423 44.4678 146.38 44.9869H149.624C149.624 44.6408 149.56 44.3596 149.408 44.1001Z" fill="white" />
  <path d="M151.311 43.992C151.506 43.6243 151.766 43.3647 152.112 43.1701C152.458 42.9754 152.825 42.8889 153.258 42.8889C153.82 42.8889 154.296 43.0403 154.664 43.3215C155.032 43.6027 155.269 43.992 155.378 44.4678H154.75C154.664 44.1434 154.491 43.8838 154.231 43.6892C153.972 43.4945 153.647 43.408 153.258 43.408C152.955 43.408 152.674 43.4729 152.414 43.6243C152.177 43.7757 151.982 43.9703 151.831 44.2515C151.679 44.5327 151.614 44.8787 151.614 45.268C151.614 45.6573 151.679 46.025 151.831 46.3062C151.982 46.5874 152.177 46.8036 152.414 46.9334C152.652 47.0848 152.934 47.1497 153.258 47.1497C153.647 47.1497 153.972 47.0632 154.231 46.8685C154.491 46.6739 154.664 46.4143 154.75 46.0899H155.378C155.269 46.5657 155.032 46.9334 154.664 47.2362C154.296 47.5174 153.82 47.6688 153.258 47.6688C152.825 47.6688 152.436 47.5823 152.112 47.3876C151.787 47.1929 151.506 46.9118 151.311 46.5657C151.117 46.198 151.03 45.7871 151.03 45.3113C151.03 44.8355 151.117 44.338 151.311 43.992Z" fill="white" />
  <path d="M159.617 43.0621C159.898 43.2135 160.114 43.4298 160.266 43.7326C160.417 44.0354 160.503 44.4031 160.503 44.8356V47.5392H159.919V44.9005C159.919 44.4031 159.79 44.0137 159.552 43.7542C159.292 43.4947 158.968 43.3649 158.535 43.3649C158.081 43.3649 157.735 43.5163 157.475 43.7975C157.216 44.0786 157.086 44.4896 157.086 45.0303V47.5392H156.502V41.2886H157.086V43.7109C157.238 43.4298 157.454 43.2135 157.735 43.0621C158.016 42.9107 158.341 42.8242 158.687 42.8242C159.011 42.8458 159.336 42.9323 159.617 43.0621Z" fill="white" />
  <path d="M165.327 43.3648C165.673 43.7108 165.846 44.2083 165.846 44.8355V47.5391H165.262V44.9004C165.262 44.4029 165.132 44.0136 164.894 43.7541C164.635 43.4946 164.31 43.3648 163.878 43.3648C163.423 43.3648 163.077 43.5162 162.818 43.7974C162.558 44.0785 162.428 44.4895 162.428 45.0302V47.5391H161.844V42.9322H162.428V43.7108C162.58 43.4297 162.796 43.2134 163.056 43.062C163.315 42.9106 163.64 42.8457 163.986 42.8457C164.526 42.8457 164.981 43.0187 165.327 43.3648Z" fill="white" />
  <path d="M168.009 47.3227C167.663 47.1281 167.381 46.8469 167.187 46.5008C166.992 46.1332 166.884 45.7222 166.884 45.2464C166.884 44.7706 166.992 44.3596 167.187 43.992C167.381 43.6243 167.663 43.3647 168.009 43.1701C168.355 42.9754 168.744 42.8889 169.177 42.8889C169.609 42.8889 169.999 42.9754 170.345 43.1701C170.691 43.3647 170.972 43.6459 171.166 43.992C171.361 44.3596 171.469 44.7706 171.469 45.2464C171.469 45.7222 171.361 46.1332 171.166 46.5008C170.972 46.8685 170.691 47.1281 170.323 47.3227C169.955 47.5174 169.566 47.6039 169.133 47.6039C168.744 47.6039 168.355 47.5174 168.009 47.3227ZM170.02 46.8902C170.28 46.7604 170.496 46.5441 170.647 46.2629C170.799 45.9818 170.885 45.6357 170.885 45.2464C170.885 44.8571 170.799 44.4894 170.647 44.2299C170.496 43.9487 170.28 43.754 170.02 43.6026C169.761 43.4729 169.479 43.3864 169.177 43.3864C168.874 43.3864 168.593 43.4512 168.333 43.6026C168.074 43.7324 167.857 43.9487 167.706 44.2299C167.554 44.511 167.468 44.8571 167.468 45.2464C167.468 45.6357 167.554 46.0034 167.706 46.2629C167.857 46.5225 168.074 46.7604 168.311 46.8902C168.571 47.0199 168.852 47.1064 169.155 47.1064C169.479 47.0848 169.761 47.0199 170.02 46.8902Z" fill="white" />
  <path d="M173.156 41.2886V47.5392H172.572V41.2886H173.156Z" fill="white" />
  <path d="M175.362 47.3227C175.016 47.1281 174.735 46.8469 174.54 46.5008C174.345 46.1332 174.237 45.7222 174.237 45.2464C174.237 44.7706 174.345 44.3596 174.54 43.992C174.735 43.6243 175.016 43.3647 175.362 43.1701C175.708 42.9754 176.097 42.8889 176.53 42.8889C176.962 42.8889 177.352 42.9754 177.698 43.1701C178.044 43.3647 178.325 43.6459 178.52 43.992C178.714 44.3596 178.822 44.7706 178.822 45.2464C178.822 45.7222 178.714 46.1332 178.52 46.5008C178.325 46.8685 178.044 47.1281 177.676 47.3227C177.309 47.5174 176.919 47.6039 176.487 47.6039C176.097 47.6039 175.708 47.5174 175.362 47.3227ZM177.373 46.8902C177.633 46.7604 177.849 46.5441 178.001 46.2629C178.152 45.9818 178.239 45.6357 178.239 45.2464C178.239 44.8571 178.152 44.4894 178.001 44.2299C177.849 43.9487 177.633 43.754 177.373 43.6026C177.114 43.4729 176.833 43.3864 176.53 43.3864C176.227 43.3864 175.946 43.4512 175.686 43.6026C175.427 43.7324 175.211 43.9487 175.059 44.2299C174.908 44.511 174.821 44.8571 174.821 45.2464C174.821 45.6357 174.908 46.0034 175.059 46.2629C175.211 46.5225 175.427 46.7604 175.665 46.8902C175.924 47.0199 176.205 47.1064 176.508 47.1064C176.833 47.0848 177.114 47.0199 177.373 46.8902Z" fill="white" />
  <path d="M182.997 43.1701C183.321 43.3648 183.538 43.6243 183.689 43.9488V42.9538H184.273V47.6905C184.273 48.123 184.187 48.4907 183.992 48.8151C183.819 49.1396 183.559 49.3991 183.235 49.5721C182.911 49.7451 182.543 49.8316 182.11 49.8316C181.526 49.8316 181.029 49.6802 180.64 49.3991C180.25 49.1179 180.012 48.7286 179.904 48.2528H180.488C180.596 48.5772 180.791 48.8368 181.072 49.0314C181.353 49.2261 181.699 49.3126 182.11 49.3126C182.413 49.3126 182.673 49.2477 182.911 49.1179C183.148 48.9881 183.343 48.7935 183.473 48.5556C183.603 48.3177 183.667 48.0149 183.667 47.6688V46.5225C183.516 46.8469 183.278 47.1065 182.975 47.3011C182.651 47.5174 182.283 47.6039 181.851 47.6039C181.418 47.6039 181.05 47.4958 180.726 47.3011C180.402 47.1065 180.12 46.8253 179.947 46.4576C179.753 46.09 179.666 45.679 179.666 45.2032C179.666 44.7274 179.753 44.3164 179.947 43.9488C180.142 43.5811 180.402 43.3215 180.726 43.1269C181.05 42.9322 181.44 42.8457 181.851 42.8457C182.283 42.8673 182.673 42.9755 182.997 43.1701ZM183.451 44.2515C183.3 43.9704 183.084 43.7541 182.824 43.6027C182.564 43.4513 182.283 43.3648 181.959 43.3648C181.634 43.3648 181.332 43.4297 181.072 43.5811C180.813 43.7325 180.618 43.9487 180.466 44.2083C180.315 44.4895 180.25 44.8139 180.25 45.2032C180.25 45.5709 180.315 45.9169 180.466 46.1981C180.618 46.4793 180.813 46.6955 181.072 46.8469C181.332 46.9983 181.613 47.0632 181.959 47.0632C182.283 47.0632 182.564 46.9767 182.824 46.8253C183.084 46.6739 183.3 46.4576 183.451 46.1765C183.603 45.8953 183.689 45.5709 183.689 45.2032C183.689 44.8571 183.603 44.5327 183.451 44.2515Z" fill="white" />
  <path d="M185.614 41.9373C185.528 41.8507 185.484 41.7426 185.484 41.6345C185.484 41.5263 185.528 41.4182 185.614 41.3317C185.701 41.2452 185.809 41.2019 185.917 41.2019C186.025 41.2019 186.133 41.2452 186.22 41.3317C186.306 41.4182 186.35 41.5263 186.35 41.6345C186.35 41.7426 186.306 41.8724 186.22 41.9373C186.133 42.0238 186.025 42.067 185.917 42.067C185.809 42.067 185.701 42.0238 185.614 41.9373ZM186.22 42.9322V47.539H185.636V42.9322H186.22Z" fill="white" />
  <path d="M191.713 45.4627H187.885C187.907 45.8087 187.993 46.1115 188.145 46.3494C188.296 46.5874 188.491 46.782 188.75 46.9118C188.988 47.0415 189.269 47.1064 189.55 47.1064C189.94 47.1064 190.264 47.0199 190.524 46.8253C190.783 46.6306 190.956 46.3927 191.043 46.0683H191.67C191.562 46.5225 191.324 46.8902 190.956 47.1713C190.589 47.4525 190.134 47.6039 189.572 47.6039C189.14 47.6039 188.75 47.5174 188.404 47.3227C188.058 47.1281 187.799 46.8469 187.604 46.5008C187.409 46.1548 187.323 45.7222 187.323 45.2464C187.323 44.7706 187.409 44.3596 187.604 43.992C187.799 43.6243 188.058 43.3647 188.404 43.1701C188.75 42.9754 189.14 42.8889 189.572 42.8889C190.005 42.8889 190.394 42.9754 190.718 43.1701C191.043 43.3647 191.302 43.6243 191.475 43.9487C191.648 44.2731 191.735 44.6408 191.735 45.0301C191.735 45.2032 191.713 45.3545 191.713 45.4627ZM190.913 44.1001C190.762 43.8622 190.567 43.6675 190.329 43.5594C190.091 43.4296 189.81 43.3647 189.529 43.3647C189.096 43.3647 188.707 43.5161 188.404 43.7973C188.101 44.0785 187.928 44.4678 187.885 44.9869H191.129C191.129 44.6408 191.064 44.3596 190.913 44.1001Z" fill="white" />
  <path d="M193.097 47.2362C192.773 46.9983 192.578 46.6523 192.535 46.2414H193.141C193.162 46.5009 193.292 46.7172 193.508 46.8686C193.724 47.02 194.006 47.1065 194.373 47.1065C194.698 47.1065 194.936 47.02 195.13 46.8686C195.303 46.7172 195.411 46.5225 195.411 46.3062C195.411 46.1548 195.368 46.0251 195.26 45.9169C195.152 45.8088 195.022 45.7439 194.871 45.679C194.719 45.6141 194.503 45.5492 194.244 45.4844C193.898 45.3978 193.616 45.3113 193.4 45.2248C193.184 45.1383 193.011 45.0085 192.859 44.8139C192.708 44.6409 192.643 44.4029 192.643 44.1001C192.643 43.8839 192.708 43.6676 192.838 43.4729C192.967 43.2783 193.162 43.1269 193.422 43.0187C193.66 42.9106 193.941 42.8457 194.265 42.8457C194.763 42.8457 195.152 42.9755 195.455 43.2134C195.758 43.4729 195.931 43.819 195.952 44.2515H195.368C195.347 43.992 195.238 43.7541 195.044 43.6027C194.849 43.4297 194.59 43.3432 194.244 43.3432C193.941 43.3432 193.703 43.408 193.508 43.5594C193.314 43.7108 193.227 43.8839 193.227 44.0785C193.227 44.2515 193.292 44.4029 193.4 44.5111C193.508 44.6192 193.638 44.7274 193.811 44.7706C193.984 44.8355 194.2 44.9004 194.46 44.9869C194.784 45.0734 195.065 45.1599 195.26 45.2465C195.455 45.333 195.628 45.4627 195.758 45.6141C195.887 45.7655 195.974 46.0034 195.974 46.263C195.974 46.5009 195.909 46.7388 195.779 46.9335C195.649 47.1281 195.455 47.2795 195.217 47.3876C194.979 47.4958 194.698 47.5607 194.373 47.5607C193.854 47.6039 193.422 47.4958 193.097 47.2362Z" fill="white" />
</svg>