<svg width="94" height="63" viewBox="0 0 94 63" fill="none" xmlns="http://www.w3.org/2000/svg">
  <rect x="0.503418" y="0.3974" width="93.3429" height="61.9655" rx="20" fill="#FFF4EE" />
  <path fill-rule="evenodd" clip-rule="evenodd" d="M47.8417 44.6948C44.6639 47.3497 40.5417 48.9524 36.0372 48.9524C25.9864 48.9524 17.8386 40.9729 17.8386 31.1297C17.8386 21.2864 25.9864 13.3069 36.0372 13.3069C40.5417 13.3069 44.6639 14.9096 47.8417 17.5645C51.0196 14.9096 55.1418 13.3069 59.6462 13.3069C69.697 13.3069 77.8448 21.2864 77.8448 31.1297C77.8448 40.9729 69.697 48.9524 59.6462 48.9524C55.1418 48.9524 51.0196 47.3497 47.8417 44.6948Z" fill="#ED0006" />
  <path fill-rule="evenodd" clip-rule="evenodd" d="M47.8418 44.6948C51.7547 41.4258 54.2359 36.5615 54.2359 31.1297C54.2359 25.6978 51.7547 20.8335 47.8418 17.5645C51.0196 14.9096 55.1419 13.3069 59.6463 13.3069C69.6971 13.3069 77.8449 21.2864 77.8449 31.1297C77.8449 40.9729 69.6971 48.9524 59.6463 48.9524C55.1419 48.9524 51.0196 47.3497 47.8418 44.6948Z" fill="#F9A000" />
  <path fill-rule="evenodd" clip-rule="evenodd" d="M47.8418 44.6948C51.7547 41.4257 54.2358 36.5615 54.2358 31.1297C54.2358 25.6979 51.7547 20.8336 47.8418 17.5646C43.9289 20.8336 41.4478 25.6979 41.4478 31.1297C41.4478 36.5615 43.9289 41.4257 47.8418 44.6948Z" fill="#FF5E00" />
</svg>