<svg width="37" height="24" viewBox="0 0 37 24" fill="none" xmlns="http://www.w3.org/2000/svg">
  <g opacity="0.5">
    <path opacity="0.6" d="M13.9209 12.045C13.9209 8.48184 15.603 5.3079 18.2225 3.26248C16.307 1.76677 13.8894 0.874033 11.2621 0.874033C5.04204 0.874033 0 5.87536 0 12.045C0 18.2146 5.04204 23.2159 11.2621 23.2159C13.8894 23.2159 16.307 22.3232 18.2225 20.8275C15.603 18.7821 13.9209 15.6081 13.9209 12.045Z" fill="#FCFCFC" />
    <path d="M36.4352 12.045C36.4352 18.2146 31.3931 23.2159 25.1731 23.2159C22.5457 23.2159 20.1282 22.3232 18.2119 20.8275C20.8321 18.7821 22.5142 15.6081 22.5142 12.045C22.5142 8.48184 20.8321 5.3079 18.2119 3.26248C20.1282 1.76677 22.5457 0.874033 25.1731 0.874033C31.3931 0.874033 36.4352 5.87536 36.4352 12.045Z" fill="#FCFCFC" />
  </g>
</svg>