<svg width="20" height="21" viewBox="0 0 20 21" fill="none" xmlns="http://www.w3.org/2000/svg">
  <path d="M18.3334 7.26831V15.1506C18.3335 15.7878 18.0898 16.401 17.6523 16.8647C17.2149 17.3283 16.6167 17.6074 15.9801 17.6448L15.8334 17.6489H4.16675C3.52907 17.649 2.91549 17.4055 2.45153 16.9683C1.98758 16.5311 1.70833 15.9333 1.67091 15.2972L1.66675 15.1506V7.26831L9.53758 12.5123L9.63425 12.5673C9.74817 12.6229 9.87329 12.6518 10.0001 12.6518C10.1269 12.6518 10.252 12.6229 10.3659 12.5673L10.4626 12.5123L18.3334 7.26831Z" fill="#090921" />
  <path d="M15.8334 4.32446C16.7334 4.32446 17.5226 4.79915 17.9626 5.51284L10.0001 10.8177L2.0376 5.51284C2.24654 5.17371 2.53361 4.88942 2.87485 4.68371C3.2161 4.478 3.60162 4.35682 3.99926 4.33029L4.16676 4.32446H15.8334Z" fill="#090921" />
</svg>