<svg width="42" height="76" viewBox="0 0 42 76" fill="none" xmlns="http://www.w3.org/2000/svg">
  <path d="M34.7811 38.022C34.7289 30.4455 33.5287 23.1071 31.211 15.9925C30.1239 12.659 28.8107 9.42548 27.1713 6.36344C25.6885 3.59665 26.793 0.806055 29.6413 0.0631646C30.7371 -0.222563 32.4503 0.486991 33.0286 1.668C34.2853 4.22525 35.529 6.7968 36.6248 9.43978C38.5251 14.0162 39.847 18.8164 40.6819 23.7547C41.1733 26.6739 41.4515 29.6454 41.7298 32.6027C41.9125 34.5409 42.0255 36.5029 41.9951 38.4458C41.9168 42.7651 41.6037 47.07 40.8645 51.3274C40.0427 56.0561 38.8947 60.6849 37.177 65.1137C36.0465 68.0281 34.7332 70.8616 33.4244 73.6903C32.7112 75.2237 31.0414 76.1809 29.8195 75.9713C28.0845 75.6761 26.8974 74.4237 26.5625 72.5331C26.3756 71.4807 26.6886 70.5473 27.1539 69.6568C29.9369 64.3232 31.9502 58.6563 33.1504 52.6655C33.7331 49.7701 34.0723 46.8081 34.4115 43.8604C34.6332 41.9317 34.6637 39.9697 34.7811 38.022Z" fill="#090921" />
  <path d="M27.0845 37.998C27.054 44.6078 26.067 51.0415 23.9406 57.2084C22.8796 60.2847 21.5011 63.2372 20.14 66.1755C19.279 68.0374 17.6049 68.7042 15.8786 68.1613C14.2566 67.6517 13.0782 65.9945 13.3217 64.0754C13.4652 62.9467 14.1175 61.8991 14.5393 60.8181C15.596 58.1037 16.7396 55.4274 17.6832 52.6701C18.7399 49.5795 19.1529 46.2984 19.5704 43.0411C19.6704 42.2601 19.6965 41.4648 19.7052 40.6743C19.7269 39.279 19.7139 37.8837 19.7095 36.4884C19.7008 32.6168 19.1007 28.8309 18.1876 25.1069C17.2048 21.1163 15.7394 17.3399 13.8522 13.7541C12.4433 11.073 13.8087 8.06332 16.5917 7.61568C17.8963 7.40615 19.4138 8.34905 20.2009 9.87769C23.0622 15.4351 25.1451 21.3163 26.1322 27.6166C26.4931 29.9214 26.6627 32.2644 26.8844 34.5931C26.9931 35.7265 27.0236 36.8646 27.0845 37.998Z" fill="#090921" />
  <path d="M12.1519 38.0027C12.1736 44.8269 10.5517 51.17 7.65126 57.1417C7.03813 58.4037 6.47721 59.7275 5.18138 60.4371C2.92455 61.6752 0.124159 59.8323 0.0111 57.0846C-0.049778 55.6559 0.619858 54.6082 1.18515 53.4987C2.74189 50.4557 3.85947 47.2365 4.3204 43.7887C4.60305 41.6553 4.87263 39.4885 4.83784 37.3456C4.76826 33.0406 3.98555 28.8642 2.28532 24.9498C1.69828 23.5926 0.980801 22.3068 0.393763 20.9496C-0.789008 18.2304 0.841626 15.3779 3.30283 15.2065C4.95958 15.0922 6.0728 15.9113 6.90769 17.4304C9.32977 21.8496 10.9039 26.6213 11.6779 31.6834C11.991 33.7597 12.004 35.8931 12.1519 38.0027Z" fill="#090921" />
</svg>