<svg width="394" height="237" viewBox="0 0 394 237" fill="none" xmlns="http://www.w3.org/2000/svg">
<g filter="url(#filter0_b_726_280)">
<rect y="236.48" width="235.485" height="393.765" rx="35" transform="rotate(-90 0 236.48)" fill="white" fill-opacity="0.2"/>
<rect x="0.5" y="235.98" width="234.485" height="392.765" rx="34.5" transform="rotate(-90 0.5 235.98)" stroke="url(#paint0_radial_726_280)"/>
</g>
<path d="M342.086 118.755C342.053 114.24 341.291 109.867 339.82 105.626C339.13 103.64 338.296 101.713 337.256 99.8879C336.315 98.239 337.016 96.5758 338.824 96.1331C339.519 95.9628 340.607 96.3857 340.974 97.0895C341.772 98.6136 342.561 100.146 343.257 101.721C344.463 104.449 345.302 107.309 345.832 110.253C346.144 111.992 346.321 113.763 346.497 115.526C346.613 116.681 346.685 117.85 346.666 119.008C346.616 121.582 346.417 124.148 345.948 126.685C345.426 129.503 344.698 132.262 343.607 134.901C342.89 136.638 342.056 138.327 341.225 140.013C340.773 140.927 339.713 141.497 338.937 141.372C337.835 141.196 337.082 140.45 336.869 139.323C336.751 138.696 336.949 138.14 337.245 137.609C339.011 134.43 340.289 131.053 341.051 127.483C341.421 125.757 341.637 123.992 341.852 122.235C341.993 121.086 342.012 119.916 342.086 118.755Z" fill="#05FF69"/>
<path d="M337.201 118.741C337.181 122.68 336.555 126.514 335.205 130.19C334.531 132.023 333.656 133.783 332.792 135.534C332.246 136.643 331.183 137.041 330.087 136.717C329.058 136.413 328.31 135.426 328.464 134.282C328.555 133.609 328.969 132.985 329.237 132.341C329.908 130.723 330.634 129.128 331.233 127.485C331.904 125.643 332.166 123.687 332.431 121.746C332.494 121.281 332.511 120.807 332.516 120.336C332.53 119.504 332.522 118.673 332.519 117.841C332.514 115.534 332.133 113.277 331.553 111.058C330.929 108.68 329.999 106.429 328.801 104.292C327.907 102.694 328.773 100.901 330.54 100.634C331.368 100.509 332.331 101.071 332.831 101.982C334.647 105.294 335.969 108.799 336.596 112.554C336.825 113.927 336.933 115.324 337.074 116.711C337.143 117.387 337.162 118.065 337.201 118.741Z" fill="#05FF69"/>
<path d="M327.721 118.744C327.735 122.811 326.705 126.591 324.864 130.15C324.475 130.902 324.119 131.691 323.296 132.114C321.864 132.852 320.086 131.753 320.014 130.116C319.976 129.264 320.401 128.64 320.76 127.979C321.748 126.165 322.457 124.247 322.75 122.192C322.929 120.92 323.1 119.629 323.078 118.352C323.034 115.786 322.537 113.297 321.458 110.964C321.085 110.156 320.63 109.389 320.257 108.58C319.506 106.96 320.542 105.26 322.104 105.158C323.156 105.09 323.862 105.578 324.392 106.483C325.93 109.117 326.929 111.961 327.42 114.977C327.619 116.215 327.627 117.486 327.721 118.744Z" fill="#05FF69"/>
<path d="M64.0449 46.9761L64.0449 43.1292L82.9551 38L82.9551 42.0301L67.7528 46.0602V48.0752L82.9551 52.4717V56.5018L57 48.808L57 44.7779L64.0449 46.9761Z" fill="#D9D9D9" fill-opacity="0.53"/>
<path d="M63.6742 65.6525C63.6742 64.2847 63.9213 63.0024 64.4157 61.8056C64.9348 60.6332 65.627 59.6074 66.4921 58.7281C67.382 57.8732 68.4202 57.1893 69.6067 56.6764C70.818 56.1879 72.1157 55.9437 73.5 55.9437C74.8843 55.9437 76.1697 56.1879 77.3562 56.6764C78.5674 57.1893 79.6056 57.8732 80.4708 58.7281C81.3607 59.6074 82.0528 60.6332 82.5472 61.8056C83.0663 63.0024 83.3258 64.2847 83.3258 65.6525C83.3258 67.0203 83.0663 68.2904 82.5472 69.4628C82.0528 70.6596 81.3607 71.6855 80.4708 72.5403C79.6056 73.4196 78.5674 74.1035 77.3562 74.592C76.1697 75.1049 74.8843 75.3614 73.5 75.3614C72.1157 75.3614 70.818 75.1049 69.6067 74.592C68.4202 74.1035 67.382 73.4196 66.4921 72.5403C65.627 71.6855 64.9348 70.6596 64.4157 69.4628C63.9213 68.2904 63.6742 67.0203 63.6742 65.6525ZM67.1966 65.6525C67.1966 66.483 67.3449 67.2402 67.6416 67.924C67.9382 68.6324 68.3584 69.2308 68.9022 69.7193C69.4461 70.2322 70.1011 70.623 70.8674 70.8917C71.6584 71.1848 72.536 71.3313 73.5 71.3313C74.464 71.3313 75.3292 71.1848 76.0955 70.8917C76.8865 70.623 77.5539 70.2322 78.0978 69.7193C78.6416 69.2308 79.0618 68.6324 79.3584 67.924C79.6551 67.2402 79.8034 66.483 79.8034 65.6525C79.8034 64.8221 79.6551 64.0527 79.3584 63.3444C79.0618 62.6605 78.6416 62.0621 78.0978 61.5492C77.5539 61.0607 76.8865 60.6699 76.0955 60.3768C75.3292 60.1081 74.464 59.9738 73.5 59.9738C72.536 59.9738 71.6584 60.1081 70.8674 60.3768C70.1011 60.6699 69.4461 61.0607 68.9022 61.5492C68.3584 62.0621 67.9382 62.6605 67.6416 63.3444C67.3449 64.0527 67.1966 64.8221 67.1966 65.6525Z" fill="#D9D9D9" fill-opacity="0.53"/>
<path d="M63.6742 84.515C63.6742 82.2191 64.3416 80.4238 65.6764 79.1293C67.036 77.8348 69.0258 77.1875 71.6461 77.1875H82.9551V81.0345H72.0169C70.336 81.0345 69.1124 81.4008 68.3461 82.1336C67.5798 82.8663 67.1966 83.9654 67.1966 85.4309C67.1966 86.1637 67.3326 86.8354 67.6045 87.446C67.8764 88.081 68.2472 88.6306 68.7169 89.0947C69.2112 89.5587 69.7921 89.9129 70.4595 90.1571C71.1517 90.4258 71.918 90.5601 72.7584 90.5601L82.9551 90.5602V94.4071L64.0449 94.4071V90.5601H66.6404V90.377C66.0966 90.035 65.6022 89.5832 65.1573 89.0214C64.7865 88.5329 64.4404 87.9223 64.1191 87.1895C63.8225 86.4568 63.6742 85.5653 63.6742 84.515Z" fill="#D9D9D9" fill-opacity="0.53"/>
<path d="M82.9551 97.3323V101.179H80.1742V101.362C80.718 101.656 81.2124 102.046 81.6573 102.535C82.0281 102.95 82.3618 103.475 82.6584 104.11C82.9798 104.77 83.1404 105.563 83.1404 106.492V108.69H79.4326V106.308C79.4326 105.576 79.309 104.892 79.0618 104.257C78.8146 103.646 78.4685 103.109 78.0236 102.645C77.5787 102.181 77.0348 101.814 76.3921 101.546C75.7494 101.301 75.0326 101.179 74.2416 101.179H64.0449V97.3323L82.9551 97.3323Z" fill="#D9D9D9" fill-opacity="0.53"/>
<path d="M90 119.312V131.952C90 133.197 89.827 134.296 89.4809 135.249C89.1348 136.226 88.6528 137.056 88.0348 137.74C87.4416 138.424 86.7371 138.937 85.9213 139.279C85.1056 139.645 84.2404 139.829 83.3258 139.829C82.2135 139.829 81.2989 139.621 80.582 139.206C79.8899 138.815 79.3461 138.375 78.9506 137.887C78.5056 137.325 78.1719 136.69 77.9494 135.982H77.764C77.591 136.861 77.2573 137.655 76.7629 138.363C76.3427 138.949 75.7124 139.487 74.8719 139.975C74.0315 140.488 72.8944 140.745 71.4607 140.745C70.3977 140.745 69.409 140.549 68.4944 140.158C67.6045 139.768 66.8258 139.194 66.1584 138.436C65.491 137.704 64.9719 136.776 64.6011 135.652C64.2303 134.528 64.0449 133.234 64.0449 131.768L64.0449 119.312H90ZM68.1236 131.585C68.1236 133.246 68.4573 134.455 69.1247 135.212C69.8169 135.97 70.7191 136.348 71.8315 136.348C72.9438 136.348 73.8337 135.97 74.5011 135.212C75.1933 134.455 75.5393 133.246 75.5393 131.585V123.525H68.1236V131.585ZM79.4326 131.768C79.4326 132.965 79.7292 133.869 80.3225 134.48C80.9404 135.115 81.7685 135.432 82.8067 135.432C83.7213 135.432 84.4629 135.115 85.0315 134.48C85.6247 133.869 85.9213 132.965 85.9213 131.768L85.9213 123.525H79.4326V131.768Z" fill="#D9D9D9" fill-opacity="0.53"/>
<path d="M63.6742 151.006C63.6742 149.76 63.909 148.6 64.3786 147.525C64.8483 146.475 65.5034 145.547 66.3438 144.741C67.209 143.959 68.2472 143.336 69.4584 142.872C70.6697 142.433 72.0169 142.213 73.5 142.213C74.9831 142.213 76.3303 142.433 77.5416 142.872C78.7528 143.336 79.7786 143.959 80.6191 144.741C81.4843 145.547 82.1517 146.475 82.6213 147.525C83.091 148.6 83.3258 149.76 83.3258 151.006C83.3258 151.958 83.1775 152.801 82.8809 153.534C82.5843 154.267 82.2629 154.877 81.9169 155.366C81.4966 155.952 81.0393 156.453 80.5449 156.868V157.051H82.9551V160.898H64.0449V157.051H66.6404V156.868C66.0966 156.453 65.6022 155.952 65.1573 155.366C64.7865 154.877 64.4404 154.267 64.1191 153.534C63.8225 152.801 63.6742 151.958 63.6742 151.006ZM67.1966 151.739C67.1966 153.302 67.7281 154.572 68.791 155.549C69.8786 156.55 71.4483 157.051 73.5 157.051C75.5517 157.051 77.109 156.55 78.1719 155.549C79.2595 154.572 79.8034 153.302 79.8034 151.739C79.8034 150.078 79.2595 148.747 78.1719 147.745C77.109 146.744 75.5517 146.243 73.5 146.243C71.4483 146.243 69.8786 146.744 68.791 147.745C67.7281 148.747 67.1966 150.078 67.1966 151.739Z" fill="#D9D9D9" fill-opacity="0.53"/>
<path d="M82.9551 163.815V167.662H80.3595V167.845C80.9034 168.187 81.3977 168.639 81.8427 169.2C82.2135 169.689 82.5472 170.287 82.8438 170.996C83.1652 171.728 83.3258 172.632 83.3258 173.707C83.3258 176.003 82.6461 177.798 81.2865 179.092C79.9517 180.387 77.9742 181.034 75.3539 181.034H64.0449V177.187H74.9831C76.664 177.187 77.8876 176.821 78.6539 176.088C79.4202 175.355 79.8034 174.256 79.8034 172.791C79.8034 172.058 79.6674 171.374 79.3955 170.739C79.1236 170.128 78.7404 169.591 78.2461 169.127C77.7764 168.663 77.1955 168.297 76.5034 168.028C75.836 167.784 75.082 167.662 74.2416 167.662H64.0449L64.0449 163.815H82.9551Z" fill="#D9D9D9" fill-opacity="0.53"/>
<path d="M90 183.78V187.627H75.5393V190.375L82.9551 196.054V200.45L74.2416 193.673L64.0449 201V196.237L72.0168 190.558V187.627H64.0449L64.0449 183.78H90Z" fill="#D9D9D9" fill-opacity="0.53"/>
<defs>
<filter id="filter0_b_726_280" x="-40" y="-39.0044" width="473.765" height="315.485" filterUnits="userSpaceOnUse" color-interpolation-filters="sRGB">
<feFlood flood-opacity="0" result="BackgroundImageFix"/>
<feGaussianBlur in="BackgroundImageFix" stdDeviation="20"/>
<feComposite in2="SourceAlpha" operator="in" result="effect1_backgroundBlur_726_280"/>
<feBlend mode="normal" in="SourceGraphic" in2="effect1_backgroundBlur_726_280" result="shape"/>
</filter>
<radialGradient id="paint0_radial_726_280" cx="0" cy="0" r="1" gradientUnits="userSpaceOnUse" gradientTransform="translate(-29.009 162.869) rotate(74.4219) scale(627.999 364.648)">
<stop stop-color="white" stop-opacity="0.75"/>
<stop offset="1" stop-color="white" stop-opacity="0"/>
</radialGradient>
</defs>
</svg>
