<svg width="394" height="237" viewBox="0 0 394 237" fill="none" xmlns="http://www.w3.org/2000/svg">
  <g filter="url(#filter0_b_601_980)">
    <rect y="236.48" width="235.485" height="393.765" rx="35" transform="rotate(-90 0 236.48)" fill="white" fill-opacity="0.2" />
    <rect x="0.5" y="235.98" width="234.485" height="392.765" rx="34.5" transform="rotate(-90 0.5 235.98)" stroke="url(#paint0_radial_601_980)" />
  </g>
  <path d="M342.086 118.755C342.053 114.24 341.291 109.867 339.82 105.626C339.13 103.64 338.296 101.713 337.256 99.8879C336.315 98.239 337.016 96.5758 338.824 96.1331C339.519 95.9628 340.607 96.3857 340.974 97.0895C341.772 98.6136 342.561 100.146 343.257 101.721C344.463 104.449 345.302 107.309 345.832 110.253C346.144 111.992 346.321 113.763 346.497 115.526C346.613 116.681 346.685 117.85 346.666 119.008C346.616 121.582 346.417 124.148 345.948 126.685C345.426 129.503 344.698 132.262 343.607 134.901C342.89 136.638 342.056 138.327 341.225 140.013C340.773 140.927 339.713 141.497 338.937 141.372C337.835 141.196 337.082 140.45 336.869 139.323C336.751 138.696 336.949 138.14 337.245 137.609C339.011 134.43 340.289 131.053 341.051 127.483C341.421 125.757 341.637 123.992 341.852 122.235C341.993 121.086 342.012 119.916 342.086 118.755Z" fill="#05FF69" />
  <path d="M337.201 118.741C337.181 122.68 336.555 126.514 335.205 130.19C334.531 132.023 333.656 133.783 332.792 135.534C332.246 136.643 331.183 137.041 330.087 136.717C329.058 136.413 328.31 135.426 328.464 134.282C328.555 133.609 328.969 132.985 329.237 132.341C329.908 130.723 330.634 129.128 331.233 127.485C331.904 125.643 332.166 123.687 332.431 121.746C332.494 121.281 332.511 120.807 332.516 120.336C332.53 119.504 332.522 118.673 332.519 117.841C332.514 115.534 332.133 113.277 331.553 111.058C330.929 108.68 329.999 106.429 328.801 104.292C327.907 102.694 328.773 100.901 330.54 100.634C331.368 100.509 332.331 101.071 332.831 101.982C334.647 105.294 335.969 108.799 336.596 112.554C336.825 113.927 336.933 115.324 337.074 116.711C337.143 117.387 337.162 118.065 337.201 118.741Z" fill="#05FF69" />
  <path d="M327.721 118.744C327.735 122.811 326.705 126.591 324.864 130.15C324.475 130.902 324.119 131.691 323.296 132.114C321.864 132.852 320.086 131.753 320.014 130.116C319.976 129.264 320.401 128.64 320.76 127.979C321.748 126.165 322.457 124.247 322.75 122.192C322.929 120.92 323.1 119.629 323.078 118.352C323.034 115.786 322.537 113.297 321.458 110.964C321.085 110.156 320.63 109.389 320.257 108.58C319.506 106.96 320.542 105.26 322.104 105.158C323.156 105.09 323.862 105.578 324.392 106.483C325.93 109.117 326.929 111.961 327.42 114.977C327.619 116.215 327.627 117.486 327.721 118.744Z" fill="#05FF69" />
  <g opacity="0.2">
    <path d="M52.5234 32.7454L67.2087 32.7454L67.2087 30.4126L70.7079 30.4126L70.7079 32.7454L74.666 32.7454L74.666 36.7036L70.7079 36.7036L70.7079 42.1723L67.2087 42.1723L67.2087 36.7036L56.0035 36.7036L56.0035 42.3635L52.5234 42.3635L52.5234 32.7454Z" fill="white" />
    <path d="M52.084 51.0256C52.084 49.4577 52.4855 48.0236 53.2886 46.7233C54.0917 45.4231 55.2199 44.3714 56.6731 43.6065C58.1263 42.8417 59.7708 42.4592 61.5873 42.4592C63.4421 42.4592 65.0865 42.8417 66.5398 43.6065C67.993 44.3714 69.1212 45.4039 69.9243 46.7233C70.7274 48.0236 71.1289 49.4577 71.1289 51.0256C71.1289 52.1538 70.9377 53.1481 70.5744 53.9895C70.2111 54.8499 69.7713 55.5383 69.255 56.0546C68.7578 56.59 68.3563 56.9342 68.0695 57.1063L68.0695 57.221L70.6891 57.221L70.6891 61.1791L52.5237 61.1791L52.5237 57.221L55.1434 57.221L55.1434 57.1063C54.8374 56.9342 54.4359 56.59 53.9387 56.0546C53.4416 55.5192 53.0209 54.8308 52.6385 53.9895C52.2752 53.1481 52.084 52.1538 52.084 51.0256ZM55.5832 51.8287C55.5832 52.8422 55.8318 53.76 56.3289 54.5822C56.8261 55.4045 57.5144 56.0546 58.4323 56.5326C59.3501 56.9915 60.4018 57.2401 61.6064 57.2401C62.8302 57.2401 63.901 57.0106 64.8188 56.5326C65.7367 56.0737 66.425 55.4236 66.9222 54.5822C67.4193 53.76 67.6679 52.8422 67.6679 51.8287C67.6679 50.8535 67.4193 49.9357 66.9222 49.1326C66.425 48.3104 65.7367 47.6794 64.8188 47.2013C63.901 46.7424 62.8302 46.4939 61.6064 46.4939C60.4018 46.4939 59.3501 46.7233 58.4323 47.2013C57.5144 47.6603 56.8261 48.3104 56.3289 49.1326C55.8318 49.9357 55.5832 50.8344 55.5832 51.8287Z" fill="white" />
    <path d="M45.6782 63.5308L70.7081 63.5308L70.7081 67.4507L68.0885 67.4507L68.0885 67.5654C68.3945 67.7566 68.796 68.1199 69.2932 68.6362C69.7903 69.1716 70.211 69.8408 70.5934 70.6822C70.9567 71.5235 71.1479 72.5178 71.1479 73.6651C71.1479 75.2331 70.7464 76.6481 69.9433 77.9483C69.1402 79.2486 68.012 80.2811 66.5588 81.046C65.1056 81.8109 63.4611 82.1933 61.6063 82.1933C59.7898 82.1933 58.1454 81.8109 56.6921 81.046C55.2389 80.2811 54.1107 79.2486 53.3076 77.9483C52.5045 76.6481 52.103 75.2331 52.103 73.6651C52.103 72.5178 52.2942 71.5235 52.6575 70.6822C53.0208 69.8408 53.4606 69.1525 53.9578 68.6362C54.4549 68.1008 54.8565 67.7566 55.1624 67.5654L55.1624 67.4507L45.6973 67.4507L45.6973 63.5308L45.6782 63.5308ZM55.5831 72.8429C55.5831 73.8563 55.8317 74.7551 56.3288 75.5582C56.826 76.3613 57.5144 76.9923 58.4322 77.4703C59.35 77.9292 60.4017 78.1778 61.6063 78.1778C62.8301 78.1778 63.9009 77.9483 64.8187 77.4703C65.7366 77.0114 66.4249 76.3613 66.9221 75.5582C67.4193 74.7551 67.6678 73.8563 67.6678 72.8429C67.6678 71.8295 67.4193 70.9116 66.9221 70.0894C66.4249 69.2672 65.7366 68.6171 64.8187 68.139C63.9009 67.6801 62.8301 67.4315 61.6063 67.4315C60.4017 67.4315 59.35 67.661 58.4322 68.139C57.5144 68.5979 56.826 69.2481 56.3288 70.0894C55.8317 70.9116 55.5831 71.8295 55.5831 72.8429Z" fill="white" />
    <path d="M52.5235 83.9336L77.7256 83.9336L77.7256 95.2344C77.7256 97.1848 77.3623 98.8674 76.6548 100.302C75.9473 101.736 74.9721 102.845 73.7292 103.61C72.4863 104.374 71.0904 104.757 69.5607 104.757C67.6868 104.757 66.0806 104.202 64.7612 103.074C63.4227 101.965 62.4667 100.455 61.893 98.5615L52.5235 104.68L52.5235 99.747L61.3385 94.068L61.3385 88.1977L52.5235 88.1977L52.5235 83.9336ZM65.3731 95.177C65.3731 96.8788 65.7556 98.1791 66.5013 99.0587C67.2662 99.9382 68.2796 100.397 69.5416 100.397C70.7845 100.397 71.7979 99.9574 72.5437 99.0587C73.3085 98.1791 73.6718 96.8788 73.6718 95.177L73.6718 88.2359L65.354 88.2359L65.354 95.177L65.3731 95.177Z" fill="white" />
    <path d="M52.084 114.145C52.084 112.367 52.5046 110.761 53.3268 109.327C54.1491 107.892 55.2963 106.745 56.7496 105.904C58.2028 105.063 59.809 104.642 61.5873 104.642C63.3656 104.642 64.9909 105.063 66.4442 105.904C67.9165 106.745 69.0638 107.892 69.886 109.327C70.7082 110.761 71.1289 112.367 71.1289 114.145C71.1289 115.943 70.7082 117.568 69.886 119.002C69.0638 120.436 67.9165 121.564 66.4633 122.387C65.0101 123.209 63.423 123.61 61.702 123.61L60.6312 123.61L60.6312 108.676C59.6943 108.791 58.8338 109.116 58.069 109.633C57.3041 110.149 56.6922 110.799 56.2524 111.602C55.8126 112.386 55.5832 113.246 55.5832 114.164C55.5832 115.407 55.8318 116.459 56.348 117.338C56.8643 118.199 57.5144 118.83 58.2793 119.251L58.2793 123.362C56.5584 122.769 55.086 121.679 53.8814 120.13C52.6958 118.543 52.084 116.574 52.084 114.145ZM63.4038 119.404C64.1687 119.289 64.8762 118.983 65.5263 118.524C66.1765 118.065 66.6927 117.453 67.0752 116.688C67.4576 115.923 67.6488 115.082 67.6488 114.145C67.6488 113.227 67.4576 112.405 67.0752 111.64C66.6927 110.875 66.1765 110.264 65.5263 109.786C64.8762 109.307 64.1687 108.963 63.4038 108.772L63.4038 119.404Z" fill="white" />
    <path d="M52.084 132.54C52.084 130.972 52.4855 129.538 53.2886 128.238C54.0917 126.937 55.2199 125.886 56.6731 125.121C58.1263 124.356 59.7708 123.974 61.5873 123.974C63.4421 123.974 65.0865 124.356 66.5398 125.121C67.993 125.886 69.1212 126.918 69.9243 128.238C70.7274 129.538 71.1289 130.972 71.1289 132.54C71.1289 133.668 70.9377 134.663 70.5744 135.504C70.2111 136.364 69.7713 137.053 69.255 137.569C68.7578 138.104 68.3563 138.449 68.0695 138.621L68.0695 138.735L70.6891 138.735L70.6891 142.694L52.5237 142.694L52.5237 138.735L55.1434 138.735L55.1434 138.621C54.8374 138.449 54.4359 138.104 53.9387 137.569C53.4416 137.034 53.0209 136.345 52.6385 135.504C52.2752 134.663 52.084 133.668 52.084 132.54ZM55.5832 133.324C55.5832 134.337 55.8318 135.255 56.3289 136.078C56.8261 136.9 57.5144 137.55 58.4323 138.028C59.3501 138.487 60.4018 138.735 61.6064 138.735C62.8302 138.735 63.901 138.506 64.8188 138.028C65.7367 137.569 66.425 136.919 66.9222 136.078C67.4193 135.255 67.6679 134.337 67.6679 133.324C67.6679 132.349 67.4193 131.431 66.9222 130.628C66.425 129.806 65.7367 129.175 64.8188 128.697C63.901 128.238 62.8302 127.989 61.6064 127.989C60.4018 127.989 59.3501 128.219 58.4323 128.697C57.5144 129.156 56.8261 129.806 56.3289 130.628C55.8318 131.45 55.5832 132.349 55.5832 133.324Z" fill="white" />
    <path d="M52.0837 152.599C52.0837 151.031 52.4853 149.597 53.2884 148.297C54.0915 146.996 55.2197 145.945 56.6729 145.18C58.1261 144.415 59.7706 144.032 61.5871 144.032C63.4419 144.032 65.0863 144.415 66.5395 145.18C67.9928 145.945 69.1209 146.977 69.924 148.297C70.7271 149.597 71.1287 151.031 71.1287 152.599C71.1287 153.727 70.9375 154.721 70.5742 155.563C70.2109 156.423 69.7711 157.112 69.2739 157.628C68.7767 158.163 68.3752 158.507 68.0693 158.679L68.0693 158.794L77.7256 158.794L77.7256 162.752L52.5235 162.752L52.5235 158.794L55.1432 158.794L55.1432 158.679C54.8372 158.507 54.4357 158.163 53.9385 157.628C53.4414 157.092 53.0207 156.404 52.6382 155.563C52.2749 154.702 52.0837 153.708 52.0837 152.599ZM55.583 153.383C55.583 154.396 55.8315 155.314 56.3287 156.136C56.8259 156.959 57.5142 157.609 58.4321 158.087C59.3499 158.546 60.4016 158.794 61.6062 158.794C62.83 158.794 63.9008 158.565 64.8186 158.087C65.7364 157.628 66.4248 156.978 66.922 156.136C67.4191 155.314 67.6677 154.396 67.6677 153.383C67.6677 152.408 67.4191 151.49 66.922 150.687C66.4248 149.865 65.7364 149.234 64.8186 148.755C63.9008 148.297 62.83 148.048 61.6062 148.048C60.4016 148.048 59.3499 148.277 58.4321 148.755C57.5142 149.214 56.8259 149.865 56.3287 150.687C55.8315 151.49 55.583 152.389 55.583 153.383Z" fill="white" />
    <path d="M45.678 170.19L52.5235 172.274L52.5235 168.202L70.708 163.345L70.708 167.494L56.0227 171.28L56.0227 173.326L70.708 177.686L70.708 181.797L45.678 174.34L45.678 170.19Z" fill="white" />
    <path d="M61.3575 200.517C64.3978 200.498 67.3425 199.963 70.2108 198.949C71.5493 198.471 72.8495 197.898 74.0733 197.171C75.1823 196.521 76.3105 196.999 76.5973 198.261C76.7121 198.739 76.4252 199.504 75.9472 199.753C74.9146 200.307 73.8821 200.862 72.8304 201.34C70.9947 202.181 69.0635 202.755 67.0748 203.118C65.9084 203.328 64.7038 203.462 63.5183 203.577C62.7343 203.653 61.9503 203.711 61.1663 203.692C59.4263 203.653 57.7053 203.519 55.9844 203.194C54.0914 202.831 52.2175 202.334 50.4583 201.569C49.2919 201.072 48.1446 200.498 47.0164 199.925C46.4046 199.619 46.0221 198.873 46.0986 198.338C46.2133 197.573 46.7105 197.056 47.4754 196.903C47.896 196.827 48.2785 196.961 48.6226 197.171C50.7642 198.395 53.0397 199.275 55.449 199.81C56.6154 200.058 57.8009 200.211 58.9865 200.364C59.7896 200.46 60.5736 200.46 61.3575 200.517Z" fill="white" />
    <path d="M61.3573 197.133C58.6994 197.114 56.118 196.693 53.6514 195.756C52.4085 195.297 51.2229 194.685 50.0565 194.092C49.3108 193.71 49.0431 192.983 49.2534 192.218C49.4638 191.511 50.133 190.995 50.8979 191.09C51.3568 191.148 51.7775 191.434 52.1981 191.626C53.2881 192.085 54.3589 192.601 55.4679 193.002C56.7108 193.461 58.0302 193.653 59.3304 193.825C59.6364 193.863 59.9614 193.882 60.2865 193.882C60.841 193.882 61.4147 193.882 61.9692 193.882C63.518 193.882 65.0478 193.614 66.5392 193.213C68.1454 192.773 69.656 192.142 71.0901 191.301C72.1609 190.689 73.3656 191.281 73.5568 192.505C73.6333 193.079 73.27 193.748 72.639 194.092C70.4018 195.354 68.0498 196.272 65.5258 196.693C64.608 196.846 63.6519 196.922 62.7341 197.018C62.2752 197.094 61.8162 197.114 61.3573 197.133Z" fill="white" />
    <path d="M61.3574 190.574C58.623 190.574 56.0799 189.867 53.6706 188.586C53.1734 188.318 52.638 188.069 52.3512 187.496C51.854 186.501 52.5998 185.278 53.6897 185.22C54.2633 185.201 54.684 185.488 55.1238 185.736C56.3476 186.425 57.6287 186.922 59.0246 187.113C59.8851 187.247 60.7455 187.362 61.606 187.343C63.3269 187.304 65.0096 186.96 66.5776 186.215C67.113 185.947 67.6484 185.641 68.1838 185.373C69.2737 184.857 70.421 185.564 70.4975 186.654C70.5357 187.381 70.2106 187.878 69.5987 188.241C67.8205 189.312 65.9083 190.001 63.8814 190.345C63.0592 190.498 62.1988 190.498 61.3574 190.574Z" fill="white" />
    <path d="M39.5592 113.552C39.7313 113.839 39.8269 114.164 39.8269 114.547C39.8269 114.929 39.7504 115.254 39.5783 115.541C39.4062 115.828 39.1576 116.057 38.8517 116.229C38.5266 116.401 38.1633 116.478 37.7426 116.478C37.322 116.478 36.9587 116.401 36.6336 116.229C36.3085 116.057 36.0599 115.828 35.8879 115.541C35.7158 115.254 35.6201 114.91 35.6201 114.547C35.6201 114.164 35.7158 113.82 35.8879 113.552C36.0599 113.265 36.2894 113.074 36.5762 112.94L35.6775 112.94L35.6775 112.424L41.2036 112.424L41.2036 112.94L38.8517 112.94C39.1576 113.055 39.3871 113.265 39.5592 113.552ZM38.6222 115.751C38.8708 115.617 39.062 115.445 39.1767 115.216C39.3106 114.986 39.368 114.738 39.368 114.432C39.368 114.145 39.2915 113.896 39.1576 113.667C39.0238 113.438 38.8326 113.246 38.584 113.112C38.3354 112.979 38.0486 112.902 37.7235 112.902C37.3984 112.902 37.1116 112.979 36.863 113.112C36.6145 113.246 36.4232 113.438 36.2894 113.667C36.1555 113.896 36.0791 114.145 36.0791 114.432C36.0791 114.719 36.1364 114.986 36.2703 115.216C36.4041 115.445 36.5953 115.617 36.8439 115.751C37.0925 115.885 37.3793 115.942 37.7235 115.942C38.0677 115.962 38.3736 115.885 38.6222 115.751Z" fill="white" />
    <path d="M39.7695 120.799L33.7845 118.39L33.7845 117.836L35.7158 118.62L39.7695 116.956L39.7695 117.53L36.2894 118.926L39.7695 120.264L39.7695 120.799Z" fill="white" />
    <path d="M36.117 124.088L36.117 125.962L35.6964 125.962L35.6964 123.572L40.9165 123.572L40.9165 124.088L36.117 124.088Z" fill="white" />
    <path d="M40.6492 126.689C40.7257 126.612 40.8213 126.574 40.9169 126.574C41.0125 126.574 41.1081 126.612 41.1846 126.689C41.2611 126.765 41.2993 126.861 41.2993 126.956C41.2993 127.052 41.2611 127.148 41.1846 127.224C41.1081 127.301 41.0125 127.339 40.9169 127.339C40.8213 127.339 40.7066 127.301 40.6492 127.224C40.5727 127.148 40.5345 127.052 40.5345 126.956C40.5345 126.861 40.5727 126.765 40.6492 126.689ZM39.7696 127.224L35.6967 127.224L35.6967 126.708L39.7696 126.708L39.7696 127.224Z" fill="white" />
    <path d="M35.6966 130.608L37.5322 128.926L35.6966 128.926L35.6966 128.409L41.2227 128.409L41.2227 128.926L37.9529 128.926L39.7694 130.57L39.7694 131.297L37.7426 129.365L35.6966 131.316L35.6966 130.608Z" fill="white" />
    <path d="M37.5322 135.657L37.5322 132.272C37.2262 132.291 36.9585 132.368 36.7482 132.502C36.5378 132.635 36.3658 132.807 36.251 133.037C36.1363 133.247 36.0789 133.496 36.0789 133.744C36.0789 134.089 36.1554 134.375 36.3275 134.605C36.4996 134.834 36.7099 134.987 36.9968 135.064L36.9968 135.618C36.5952 135.523 36.2702 135.312 36.0216 134.987C35.773 134.662 35.6391 134.261 35.6391 133.764C35.6391 133.381 35.7156 133.037 35.8877 132.731C36.0598 132.425 36.3084 132.196 36.6143 132.023C36.9203 131.851 37.3027 131.775 37.7234 131.775C38.144 131.775 38.5074 131.851 38.8324 132.023C39.1575 132.196 39.3869 132.425 39.559 132.731C39.7311 133.037 39.8076 133.381 39.8076 133.764C39.8076 134.146 39.7311 134.49 39.559 134.777C39.3869 135.064 39.1575 135.293 38.8707 135.446C38.5838 135.599 38.2588 135.676 37.9146 135.676C37.7616 135.676 37.6278 135.676 37.5322 135.657ZM38.7368 134.968C38.9472 134.834 39.1192 134.662 39.2149 134.452C39.3296 134.242 39.3869 133.993 39.3869 133.744C39.3869 133.362 39.2531 133.018 39.0045 132.75C38.7559 132.482 38.4117 132.329 37.9528 132.291L37.9528 135.159C38.2588 135.159 38.5074 135.083 38.7368 134.968Z" fill="white" />
    <path d="M39.3873 139.73C39.0813 140.036 38.6415 140.189 38.087 140.189L35.6968 140.189L35.6968 139.672L38.0297 139.672C38.4694 139.672 38.8136 139.558 39.0431 139.347C39.2725 139.118 39.3873 138.831 39.3873 138.449C39.3873 138.047 39.2534 137.741 39.0048 137.512C38.7563 137.282 38.393 137.167 37.9149 137.167L35.6968 137.167L35.6968 136.651L39.7697 136.651L39.7697 137.167L39.0813 137.167C39.3299 137.301 39.5211 137.492 39.655 137.722C39.7888 137.951 39.8462 138.238 39.8462 138.544C39.8462 139.022 39.6932 139.424 39.3873 139.73Z" fill="white" />
    <path d="M37.5322 145.026L37.5322 141.642C37.2262 141.661 36.9585 141.737 36.7482 141.871C36.5378 142.005 36.3658 142.177 36.251 142.407C36.1363 142.617 36.0789 142.865 36.0789 143.114C36.0789 143.458 36.1554 143.745 36.3275 143.975C36.4996 144.204 36.7099 144.357 36.9968 144.433L36.9968 144.988C36.5952 144.892 36.2702 144.682 36.0216 144.357C35.773 144.032 35.6391 143.63 35.6391 143.133C35.6391 142.751 35.7156 142.407 35.8877 142.101C36.0598 141.795 36.3084 141.565 36.6143 141.393C36.9203 141.221 37.3027 141.145 37.7234 141.145C38.144 141.145 38.5074 141.221 38.8324 141.393C39.1575 141.565 39.3869 141.795 39.559 142.101C39.7311 142.407 39.8076 142.751 39.8076 143.133C39.8076 143.516 39.7311 143.86 39.559 144.147C39.3869 144.433 39.1575 144.663 38.8707 144.816C38.5838 144.969 38.2588 145.045 37.9146 145.045C37.7616 145.045 37.6278 145.045 37.5322 145.026ZM38.7368 144.338C38.9472 144.204 39.1192 144.032 39.2149 143.822C39.3296 143.611 39.3869 143.363 39.3869 143.114C39.3869 142.732 39.2531 142.387 39.0045 142.12C38.7559 141.852 38.4117 141.699 37.9528 141.661L37.9528 144.529C38.2588 144.51 38.5074 144.453 38.7368 144.338Z" fill="white" />
    <path d="M35.9645 146.25C36.1749 145.963 36.4808 145.791 36.8441 145.753L36.8441 146.288C36.6147 146.307 36.4234 146.422 36.2896 146.613C36.1557 146.805 36.0793 147.053 36.0793 147.378C36.0793 147.665 36.1557 147.875 36.2896 148.048C36.4234 148.2 36.5955 148.296 36.7868 148.296C36.9206 148.296 37.0353 148.258 37.1309 148.162C37.2266 148.067 37.2839 147.952 37.3413 147.818C37.3986 147.684 37.456 147.493 37.5134 147.264C37.5899 146.958 37.6663 146.709 37.7428 146.518C37.8193 146.327 37.934 146.174 38.1061 146.04C38.2591 145.906 38.4694 145.849 38.7371 145.849C38.9284 145.849 39.1196 145.906 39.2917 146.021C39.4638 146.135 39.5976 146.307 39.6932 146.537C39.7888 146.747 39.8462 146.996 39.8462 147.283C39.8462 147.722 39.7315 148.067 39.5211 148.334C39.2917 148.602 38.9857 148.755 38.6033 148.774L38.6033 148.258C38.8328 148.239 39.0431 148.143 39.1769 147.971C39.3299 147.799 39.4064 147.569 39.4064 147.264C39.4064 146.996 39.349 146.785 39.2152 146.613C39.0813 146.441 38.9284 146.365 38.7563 146.365C38.6033 146.365 38.4694 146.422 38.3738 146.518C38.2782 146.613 38.1826 146.728 38.1444 146.881C38.087 147.034 38.0296 147.225 37.9532 147.455C37.8767 147.742 37.8002 147.99 37.7237 148.162C37.6472 148.334 37.5325 148.487 37.3986 148.602C37.2648 148.717 37.0545 148.793 36.825 148.793C36.6147 148.793 36.4043 148.736 36.2322 148.621C36.0601 148.506 35.9263 148.334 35.8307 148.124C35.7351 147.914 35.6777 147.665 35.6777 147.378C35.6395 146.938 35.7351 146.556 35.9645 146.25Z" fill="white" />
    <path d="M35.9645 150.055C36.1749 149.768 36.4808 149.596 36.8441 149.558L36.8441 150.093C36.6147 150.112 36.4234 150.227 36.2896 150.418C36.1557 150.61 36.0793 150.858 36.0793 151.183C36.0793 151.47 36.1557 151.68 36.2896 151.852C36.4234 152.005 36.5955 152.101 36.7868 152.101C36.9206 152.101 37.0353 152.063 37.1309 151.967C37.2266 151.872 37.2839 151.757 37.3413 151.623C37.3986 151.489 37.456 151.298 37.5134 151.068C37.5899 150.763 37.6663 150.514 37.7428 150.323C37.8193 150.132 37.934 149.979 38.1061 149.845C38.2591 149.711 38.4694 149.653 38.7371 149.653C38.9284 149.653 39.1196 149.711 39.2917 149.826C39.4638 149.94 39.5976 150.112 39.6932 150.342C39.7888 150.552 39.8462 150.801 39.8462 151.088C39.8462 151.527 39.7315 151.872 39.5211 152.139C39.2917 152.407 38.9857 152.56 38.6033 152.579L38.6033 152.063C38.8328 152.044 39.0431 151.948 39.1769 151.776C39.3299 151.604 39.4064 151.374 39.4064 151.068C39.4064 150.801 39.349 150.59 39.2152 150.418C39.0813 150.246 38.9284 150.17 38.7563 150.17C38.6033 150.17 38.4694 150.227 38.3738 150.323C38.2782 150.418 38.1826 150.533 38.1444 150.686C38.087 150.839 38.0296 151.03 37.9532 151.26C37.8767 151.546 37.8002 151.795 37.7237 151.967C37.6472 152.139 37.5325 152.292 37.3986 152.407C37.2648 152.522 37.0545 152.598 36.825 152.598C36.6147 152.598 36.4043 152.541 36.2322 152.426C36.0601 152.311 35.9263 152.139 35.8307 151.929C35.7351 151.719 35.6777 151.47 35.6777 151.183C35.6395 150.743 35.7351 150.361 35.9645 150.055Z" fill="white" />
    <path d="M40.9165 158.698L40.4767 158.698L40.4767 157.245L35.6964 157.245L35.6964 156.729L40.4767 156.729L40.4767 155.275L40.9165 155.275L40.9165 158.698Z" fill="white" />
    <path d="M37.5322 163.211L37.5322 159.826C37.2262 159.845 36.9585 159.922 36.7482 160.056C36.5378 160.19 36.3658 160.362 36.251 160.591C36.1363 160.801 36.0789 161.05 36.0789 161.299C36.0789 161.643 36.1554 161.93 36.3275 162.159C36.4996 162.389 36.7099 162.542 36.9968 162.618L36.9968 163.173C36.5952 163.077 36.2702 162.867 36.0216 162.542C35.773 162.216 35.6391 161.815 35.6391 161.318C35.6391 160.935 35.7156 160.591 35.8877 160.285C36.0598 159.979 36.3084 159.75 36.6143 159.578C36.9203 159.406 37.3027 159.329 37.7234 159.329C38.144 159.329 38.5074 159.406 38.8324 159.578C39.1575 159.75 39.3869 159.979 39.559 160.285C39.7311 160.591 39.8076 160.935 39.8076 161.318C39.8076 161.7 39.7311 162.044 39.559 162.331C39.3869 162.618 39.1575 162.847 38.8707 163C38.5838 163.153 38.2588 163.23 37.9146 163.23C37.7616 163.211 37.6278 163.211 37.5322 163.211ZM38.7368 162.503C38.9472 162.369 39.1192 162.197 39.2149 161.987C39.3296 161.777 39.3869 161.528 39.3869 161.279C39.3869 160.897 39.2531 160.553 39.0045 160.285C38.7559 160.017 38.4117 159.864 37.9528 159.826L37.9528 162.694C38.2588 162.694 38.5074 162.637 38.7368 162.503Z" fill="white" />
    <path d="M38.8324 164.186C39.1575 164.358 39.3869 164.587 39.559 164.893C39.7311 165.199 39.8076 165.524 39.8076 165.907C39.8076 166.404 39.6738 166.825 39.4252 167.15C39.1766 167.475 38.8324 167.685 38.4118 167.781L38.4118 167.226C38.6986 167.15 38.928 166.997 39.1001 166.767C39.2722 166.538 39.3487 166.251 39.3487 165.907C39.3487 165.639 39.2913 165.39 39.1575 165.161C39.0236 164.951 38.8515 164.779 38.603 164.645C38.3544 164.511 38.0484 164.454 37.7043 164.454C37.3601 164.454 37.035 164.511 36.7864 164.645C36.5379 164.779 36.3466 164.951 36.2319 165.161C36.0981 165.371 36.0407 165.62 36.0407 165.907C36.0407 166.251 36.1172 166.538 36.2893 166.767C36.4614 166.997 36.6908 167.15 36.9776 167.226L36.9776 167.781C36.557 167.685 36.2319 167.475 35.9642 167.15C35.7156 166.825 35.5818 166.404 35.5818 165.907C35.5818 165.524 35.6583 165.18 35.8304 164.893C36.0025 164.607 36.251 164.358 36.557 164.186C36.882 164.014 37.2453 163.937 37.666 163.937C38.0867 163.937 38.5265 164.014 38.8324 164.186Z" fill="white" />
    <path d="M39.6547 171.529C39.5208 171.777 39.3296 171.968 39.0619 172.102C38.7942 172.236 38.4692 172.313 38.0867 172.313L35.6966 172.313L35.6966 171.796L38.0294 171.796C38.4692 171.796 38.8133 171.682 39.0428 171.471C39.2723 171.242 39.387 170.955 39.387 170.573C39.387 170.171 39.2531 169.865 39.0046 169.636C38.756 169.406 38.3927 169.291 37.9146 169.291L35.6966 169.291L35.6966 168.775L41.2227 168.775L41.2227 169.291L39.0811 169.291C39.3296 169.425 39.5208 169.616 39.6547 169.865C39.7885 170.114 39.865 170.4 39.865 170.706C39.8459 170.993 39.7694 171.28 39.6547 171.529Z" fill="white" />
    <path d="M39.3873 176.576C39.0813 176.882 38.6415 177.035 38.087 177.035L35.6968 177.035L35.6968 176.519L38.0297 176.519C38.4694 176.519 38.8136 176.404 39.0431 176.194C39.2725 175.964 39.3873 175.678 39.3873 175.295C39.3873 174.894 39.2534 174.588 39.0048 174.358C38.7563 174.129 38.393 174.014 37.9149 174.014L35.6968 174.014L35.6968 173.498L39.7697 173.498L39.7697 174.014L39.0813 174.014C39.3299 174.148 39.5211 174.339 39.655 174.569C39.7888 174.798 39.8462 175.085 39.8462 175.391C39.8462 175.869 39.6932 176.27 39.3873 176.576Z" fill="white" />
    <path d="M35.8877 178.947C36.0598 178.641 36.3084 178.393 36.6143 178.221C36.9394 178.049 37.3027 177.953 37.7234 177.953C38.144 177.953 38.5074 178.049 38.8324 178.221C39.1575 178.393 39.3869 178.641 39.559 178.947C39.7311 179.253 39.8076 179.598 39.8076 179.98C39.8076 180.362 39.7311 180.707 39.559 181.013C39.3869 181.318 39.1384 181.567 38.8324 181.739C38.5074 181.911 38.144 182.007 37.7234 182.007C37.3027 182.007 36.9394 181.911 36.6143 181.739C36.2893 181.567 36.0598 181.319 35.8877 180.993C35.7156 180.668 35.6391 180.324 35.6391 179.942C35.6391 179.598 35.7156 179.253 35.8877 178.947ZM36.2701 180.726C36.3849 180.955 36.5761 181.146 36.8247 181.28C37.0733 181.414 37.3792 181.491 37.7234 181.491C38.0676 181.491 38.3926 181.414 38.6221 181.28C38.8707 181.146 39.0428 180.955 39.1766 180.726C39.2913 180.496 39.3678 180.248 39.3678 179.98C39.3678 179.712 39.3105 179.464 39.1766 179.234C39.0619 179.005 38.8707 178.814 38.6221 178.68C38.3735 178.546 38.0676 178.469 37.7234 178.469C37.3792 178.469 37.0541 178.546 36.8247 178.68C36.5952 178.814 36.3849 179.005 36.2701 179.215C36.1554 179.445 36.0789 179.693 36.0789 179.961C36.0981 180.248 36.1554 180.496 36.2701 180.726Z" fill="white" />
    <path d="M41.2227 183.499L35.6966 183.499L35.6966 182.982L41.2227 182.982L41.2227 183.499Z" fill="white" />
    <path d="M35.8877 185.449C36.0598 185.143 36.3084 184.894 36.6143 184.722C36.9394 184.55 37.3027 184.454 37.7234 184.454C38.144 184.454 38.5074 184.55 38.8324 184.722C39.1575 184.894 39.3869 185.143 39.559 185.449C39.7311 185.755 39.8076 186.099 39.8076 186.481C39.8076 186.864 39.7311 187.208 39.559 187.514C39.3869 187.82 39.1384 188.068 38.8324 188.24C38.5074 188.412 38.144 188.508 37.7234 188.508C37.3027 188.508 36.9394 188.412 36.6143 188.24C36.2893 188.068 36.0598 187.82 35.8877 187.495C35.7156 187.17 35.6391 186.825 35.6391 186.443C35.6391 186.099 35.7156 185.755 35.8877 185.449ZM36.2701 187.227C36.3849 187.456 36.5761 187.648 36.8247 187.781C37.0733 187.915 37.3792 187.992 37.7234 187.992C38.0676 187.992 38.3926 187.915 38.6221 187.781C38.8707 187.648 39.0428 187.456 39.1766 187.227C39.2913 186.997 39.3678 186.749 39.3678 186.481C39.3678 186.214 39.3105 185.965 39.1766 185.735C39.0619 185.506 38.8707 185.315 38.6221 185.181C38.3735 185.047 38.0676 184.971 37.7234 184.971C37.3792 184.971 37.0541 185.047 36.8247 185.181C36.5952 185.315 36.3849 185.506 36.2701 185.716C36.1554 185.946 36.0789 186.194 36.0789 186.462C36.0981 186.749 36.1554 186.997 36.2701 187.227Z" fill="white" />
    <path d="M39.5594 192.199C39.3873 192.486 39.1578 192.677 38.871 192.811L39.7506 192.811L39.7506 193.327L35.563 193.327C35.1806 193.327 34.8555 193.251 34.5687 193.079C34.2818 192.926 34.0524 192.696 33.8994 192.409C33.7464 192.123 33.67 191.798 33.67 191.415C33.67 190.899 33.8038 190.459 34.0524 190.115C34.301 189.771 34.6452 189.56 35.0658 189.465L35.0658 189.981C34.779 190.077 34.5495 190.249 34.3775 190.497C34.2054 190.746 34.1289 191.052 34.1289 191.415C34.1289 191.683 34.1862 191.912 34.301 192.123C34.4157 192.333 34.5878 192.505 34.7981 192.62C35.0085 192.734 35.2762 192.792 35.5821 192.792L36.5955 192.792C36.3087 192.658 36.0793 192.448 35.9072 192.18C35.716 191.893 35.6395 191.568 35.6395 191.186C35.6395 190.803 35.7351 190.478 35.9072 190.191C36.0793 189.905 36.3278 189.656 36.6529 189.503C36.978 189.331 37.3413 189.254 37.7619 189.254C38.1826 189.254 38.5459 189.331 38.871 189.503C39.1961 189.675 39.4255 189.905 39.5976 190.191C39.7697 190.478 39.8462 190.822 39.8462 191.186C39.8271 191.568 39.7315 191.912 39.5594 192.199ZM38.6033 192.601C38.8519 192.467 39.0431 192.276 39.1769 192.046C39.3108 191.817 39.3873 191.568 39.3873 191.281C39.3873 190.994 39.3299 190.727 39.1961 190.497C39.0622 190.268 38.871 190.096 38.6415 189.962C38.393 189.828 38.1061 189.771 37.7619 189.771C37.4369 189.771 37.1309 189.828 36.8824 189.962C36.6338 190.096 36.4426 190.268 36.3087 190.497C36.1749 190.727 36.1175 190.975 36.1175 191.281C36.1175 191.568 36.194 191.817 36.3278 192.046C36.4617 192.276 36.6529 192.467 36.9015 192.601C37.1501 192.734 37.4369 192.811 37.7619 192.811C38.0679 192.811 38.3547 192.734 38.6033 192.601Z" fill="white" />
    <path d="M40.6492 194.513C40.7257 194.436 40.8213 194.398 40.9169 194.398C41.0125 194.398 41.1081 194.436 41.1846 194.513C41.2611 194.589 41.2993 194.685 41.2993 194.78C41.2993 194.876 41.2611 194.972 41.1846 195.048C41.1081 195.125 41.0125 195.163 40.9169 195.163C40.8213 195.163 40.7066 195.125 40.6492 195.048C40.5727 194.972 40.5345 194.876 40.5345 194.78C40.5345 194.685 40.5727 194.589 40.6492 194.513ZM39.7696 195.048L35.6967 195.048L35.6967 194.532L39.7696 194.532L39.7696 195.048Z" fill="white" />
    <path d="M37.5322 199.905L37.5322 196.52C37.2262 196.539 36.9585 196.616 36.7482 196.75C36.5378 196.884 36.3658 197.056 36.251 197.285C36.1363 197.496 36.0789 197.744 36.0789 197.993C36.0789 198.337 36.1554 198.624 36.3275 198.853C36.4996 199.083 36.7099 199.236 36.9968 199.312L36.9968 199.867C36.5952 199.771 36.2702 199.561 36.0216 199.236C35.773 198.911 35.6391 198.509 35.6391 198.012C35.6391 197.629 35.7156 197.285 35.8877 196.979C36.0598 196.673 36.3084 196.444 36.6143 196.272C36.9203 196.1 37.3027 196.023 37.7234 196.023C38.144 196.023 38.5074 196.1 38.8324 196.272C39.1575 196.444 39.3869 196.673 39.559 196.979C39.7311 197.285 39.8076 197.629 39.8076 198.012C39.8076 198.394 39.7311 198.738 39.559 199.025C39.3869 199.312 39.1575 199.542 38.8707 199.695C38.5838 199.847 38.2588 199.924 37.9146 199.924C37.7616 199.924 37.6278 199.905 37.5322 199.905ZM38.7368 199.197C38.9472 199.063 39.1192 198.891 39.2149 198.681C39.3296 198.471 39.3869 198.222 39.3869 197.974C39.3869 197.591 39.2531 197.247 39.0045 196.979C38.7559 196.712 38.4117 196.559 37.9528 196.52L37.9528 199.389C38.2588 199.389 38.5074 199.331 38.7368 199.197Z" fill="white" />
    <path d="M35.9645 201.129C36.1749 200.842 36.4808 200.67 36.8441 200.631L36.8441 201.167C36.6147 201.186 36.4234 201.301 36.2896 201.492C36.1557 201.683 36.0793 201.932 36.0793 202.257C36.0793 202.543 36.1557 202.754 36.2896 202.926C36.4234 203.079 36.5955 203.175 36.7868 203.175C36.9206 203.175 37.0353 203.136 37.1309 203.041C37.2266 202.945 37.2839 202.83 37.3413 202.696C37.3986 202.563 37.456 202.371 37.5134 202.142C37.5899 201.836 37.6663 201.587 37.7428 201.396C37.8193 201.205 37.934 201.052 38.1061 200.918C38.2591 200.784 38.4694 200.727 38.7371 200.727C38.9284 200.727 39.1196 200.784 39.2917 200.899C39.4638 201.014 39.5976 201.186 39.6932 201.415C39.7888 201.626 39.8462 201.874 39.8462 202.161C39.8462 202.601 39.7315 202.945 39.5211 203.213C39.2917 203.48 38.9857 203.633 38.6033 203.653L38.6033 203.136C38.8328 203.117 39.0431 203.022 39.1769 202.849C39.3299 202.677 39.4064 202.448 39.4064 202.142C39.4064 201.874 39.349 201.664 39.2152 201.492C39.0813 201.32 38.9284 201.243 38.7563 201.243C38.6033 201.243 38.4694 201.301 38.3738 201.396C38.2782 201.492 38.1826 201.607 38.1444 201.76C38.087 201.912 38.0296 202.104 37.9532 202.333C37.8767 202.62 37.8002 202.869 37.7237 203.041C37.6472 203.213 37.5325 203.366 37.3986 203.48C37.2648 203.595 37.0545 203.672 36.825 203.672C36.6147 203.672 36.4043 203.614 36.2322 203.5C36.0601 203.385 35.9263 203.213 35.8307 203.002C35.7351 202.792 35.6777 202.543 35.6777 202.257C35.6395 201.798 35.7351 201.415 35.9645 201.129Z" fill="white" />
  </g>
  <defs>
    <filter id="filter0_b_601_980" x="-40" y="-39.0044" width="473.765" height="315.485" filterUnits="userSpaceOnUse" color-interpolation-filters="sRGB">
      <feFlood flood-opacity="0" result="BackgroundImageFix" />
      <feGaussianBlur in="BackgroundImageFix" stdDeviation="20" />
      <feComposite in2="SourceAlpha" operator="in" result="effect1_backgroundBlur_601_980" />
      <feBlend mode="normal" in="SourceGraphic" in2="effect1_backgroundBlur_601_980" result="shape" />
    </filter>
    <radialGradient id="paint0_radial_601_980" cx="0" cy="0" r="1" gradientUnits="userSpaceOnUse" gradientTransform="translate(-29.009 162.869) rotate(74.4219) scale(627.999 364.648)">
      <stop stop-color="white" stop-opacity="0.75" />
      <stop offset="1" stop-color="white" stop-opacity="0" />
    </radialGradient>
  </defs>
</svg>