<svg width="93" height="62" viewBox="0 0 93 62" fill="none" xmlns="http://www.w3.org/2000/svg">
<rect x="0.0371094" width="92.1906" height="61.9655" rx="20" fill="#F7F7F7"/>
<path fill-rule="evenodd" clip-rule="evenodd" d="M22.0212 23.0639C23.2593 23.1663 24.4974 22.4497 25.2712 21.5411C26.0322 20.607 26.5351 19.3529 26.4062 18.0732C25.3099 18.1244 23.9558 18.7899 23.182 19.724C22.4726 20.5302 21.8665 21.8355 22.0212 23.0639ZM36.7494 39.546V19.596H44.2941C48.1889 19.596 50.9102 22.2577 50.9102 26.1479C50.9102 30.0381 48.1373 32.7254 44.1909 32.7254H39.8705V39.546H36.7494ZM26.3932 23.3071C25.3024 23.2448 24.3072 23.6325 23.5033 23.9458C22.986 24.1473 22.5479 24.318 22.2146 24.318C21.8406 24.318 21.3844 24.1382 20.8722 23.9363C20.2011 23.6718 19.4339 23.3693 18.6293 23.3838C16.785 23.4094 15.0698 24.446 14.1283 26.0967C12.1938 29.3983 13.6253 34.2866 15.4953 36.9739C16.411 38.3047 17.5073 39.7635 18.9517 39.7124C19.5872 39.6886 20.0443 39.4961 20.5174 39.2969C21.062 39.0676 21.6278 38.8294 22.5112 38.8294C23.364 38.8294 23.9051 39.0614 24.4244 39.2841C24.9183 39.4959 25.3925 39.6992 26.0965 39.6868C27.5926 39.6612 28.534 38.3559 29.4497 37.0251C30.4379 35.5967 30.8721 34.2027 30.938 33.9911L30.9457 33.9667C30.9442 33.9651 30.932 33.9595 30.9104 33.9498C30.5801 33.7997 28.0553 32.6528 28.0311 29.5774C28.0068 26.996 30.0337 25.6882 30.3528 25.4823C30.3722 25.4697 30.3853 25.4613 30.3912 25.4569C29.1015 23.563 27.0896 23.3582 26.3932 23.3071ZM56.6107 39.6996C58.571 39.6996 60.3895 38.7142 61.2148 37.153H61.2793V39.546H64.1682V29.6158C64.1682 26.7366 61.8468 24.8811 58.2744 24.8811C54.9599 24.8811 52.5095 26.7622 52.4192 29.3471H55.2307C55.4629 28.1186 56.6107 27.3124 58.1841 27.3124C60.0928 27.3124 61.1633 28.1954 61.1633 29.8206V30.9211L57.2684 31.1514C53.6444 31.3689 51.6841 32.8406 51.6841 35.3999C51.6841 37.9848 53.7089 39.6996 56.6107 39.6996ZM57.4488 37.3322C55.7851 37.3322 54.7275 36.5388 54.7275 35.3231C54.7275 34.069 55.7464 33.3396 57.6938 33.2245L61.1631 33.0069V34.133C61.1631 36.0013 59.5639 37.3322 57.4488 37.3322ZM73.7504 40.3266C72.4995 43.8201 71.0679 44.9718 68.0243 44.9718C67.7921 44.9718 67.0183 44.9462 66.8377 44.895V42.502C67.0312 42.5276 67.5084 42.5532 67.7534 42.5532C69.1334 42.5532 69.9072 41.9774 70.3844 40.4802L70.6681 39.5972L65.3804 25.073H68.6433L72.3189 36.8587H72.3834L76.059 25.073H79.2316L73.7504 40.3266ZM39.8702 22.2066H43.4684C46.1767 22.2066 47.7244 23.6398 47.7244 26.1607C47.7244 28.6817 46.1767 30.1277 43.4555 30.1277H39.8702V22.2066Z" fill="black"/>
</svg>
