<svg xmlns="http://www.w3.org/2000/svg" width="1600" height="1081" viewBox="0 0 1600 1081" fill="none">
  <path d="M79.9825 0V83.0769M79.9825 0H0V83.0769M79.9825 0H159.965M79.9825 83.0769L79.9825 166.154M79.9825 83.0769H0M79.9825 83.0769L159.965 83.0769M79.9825 166.154V249.231M79.9825 166.154H0M79.9825 166.154L159.965 166.154M79.9825 249.231L79.9825 332.308M79.9825 249.231H0M79.9825 249.231H159.965M79.9825 332.308V415.385M79.9825 332.308H0M79.9825 332.308H159.965M79.9825 415.385V498.461M79.9825 415.385H0M79.9825 415.385H159.965M79.9825 498.461L79.9825 581.538M79.9825 498.461H0M79.9825 498.461H159.965M79.9825 581.538V664.615M79.9825 581.538H0M79.9825 581.538H159.965M79.9825 664.615V747.692M79.9825 664.615H0M79.9825 664.615H159.965M79.9825 747.692L79.9825 830.769M79.9825 747.692H0M79.9825 747.692H159.965M79.9825 830.769V913.846M79.9825 830.769H0M79.9825 830.769H159.965M79.9825 913.846L79.9825 996.923M79.9825 913.846H0M79.9825 913.846H159.965M79.9825 996.923V1080M79.9825 996.923H0M79.9825 996.923H159.965M79.9825 1080L0 1080V996.923M79.9825 1080H159.965M0 83.0769V166.154M0 166.154V249.231M0 249.231V332.308M0 332.308V415.385M0 415.385V498.461M0 498.461V581.538M0 581.538V664.615M0 664.615V747.692M0 747.692V830.769M0 830.769V913.846M0 913.846V996.923M159.965 0V83.0769M159.965 0H239.948M159.965 83.0769V166.154M159.965 83.0769H239.948M159.965 166.154L159.965 249.231M159.965 166.154H239.948M159.965 249.231V332.308M159.965 249.231L239.947 249.231M159.965 332.308V415.385M159.965 332.308H239.947M159.965 415.385V498.461M159.965 415.385H239.947M159.965 498.461L159.965 581.538M159.965 498.461H239.947M159.965 581.538V664.615M159.965 581.538H239.947M159.965 664.615V747.692M159.965 664.615H239.947M159.965 747.692V830.769M159.965 747.692H239.947M159.965 830.769L159.965 913.846M159.965 830.769H239.947M159.965 913.846V996.923M159.965 913.846H239.947M159.965 996.923V1080M159.965 996.923H239.947M159.965 1080H239.947M239.948 0V83.0769M239.948 0H319.93M239.948 83.0769V166.154M239.948 83.0769L319.93 83.0769M239.948 166.154L239.947 249.231M239.948 166.154H319.93M239.947 249.231V332.308M239.947 249.231H319.93M239.947 332.308V415.385M239.947 332.308L319.93 332.308M239.947 415.385V498.461M239.947 415.385L319.93 415.385M239.947 498.461L239.947 581.538M239.947 498.461H319.93M239.947 581.538V664.615M239.947 581.538H319.93M239.947 664.615V747.692M239.947 664.615H319.93M239.947 747.692V830.769M239.947 747.692H319.93M239.947 830.769L239.947 913.846M239.947 830.769H319.93M239.947 913.846V996.923M239.947 913.846H319.93M239.947 996.923V1080M239.947 996.923H319.93M239.947 1080H319.93M319.93 0V83.0769M319.93 0H399.912M319.93 83.0769V166.154M319.93 83.0769H399.912M319.93 166.154V249.231M319.93 166.154L399.912 166.154M319.93 249.231V332.308M319.93 249.231H399.912M319.93 332.308V415.385M319.93 332.308H399.912M319.93 415.385V498.461M319.93 415.385H399.912M319.93 498.461L319.93 581.538M319.93 498.461H399.912M319.93 581.538V664.615M319.93 581.538H399.912M319.93 664.615V747.692M319.93 664.615H399.912M319.93 747.692V830.769M319.93 747.692H399.912M319.93 830.769V913.846M319.93 830.769H399.912M319.93 913.846V996.923M319.93 913.846H399.912M319.93 996.923V1080M319.93 996.923H399.912M319.93 1080H399.912M559.877 0V83.0769M559.877 0H479.895M559.877 0H639.86M559.877 83.0769V166.154M559.877 83.0769H479.895M559.877 83.0769L639.86 83.077M559.877 166.154V249.231M559.877 166.154H479.895M559.877 166.154H639.86M559.877 249.231V332.308M559.877 249.231L479.895 249.231M559.877 249.231H639.86M559.877 332.308V415.385M559.877 332.308H479.895M559.877 332.308H639.86M559.877 415.385V498.462M559.877 415.385H479.895M559.877 415.385H639.86M559.877 498.462L559.877 581.538M559.877 498.462L479.895 498.461M559.877 498.462H639.86M559.877 581.538V664.615M559.877 581.538L479.895 581.538M559.877 581.538H639.86M559.877 664.615V747.692M559.877 664.615L479.895 664.615M559.877 664.615H639.86M559.877 747.692V830.769M559.877 747.692H479.895M559.877 747.692H639.86M559.877 830.769V913.846M559.877 830.769L479.895 830.769M559.877 830.769H639.86M559.877 913.846V996.923M559.877 913.846L479.895 913.846M559.877 913.846H639.86M559.877 996.923V1080M559.877 996.923L479.895 996.923M559.877 996.923H639.86M559.877 1080H479.895M559.877 1080H639.86M799.825 0V83.077M799.825 0H719.842M799.825 0H879.807M799.825 83.077V166.154M799.825 83.077L719.842 83.077M799.825 83.077H879.807M799.825 166.154V249.231M799.825 166.154H719.842M799.825 166.154H879.807M799.825 249.231V332.308M799.825 249.231H719.842M799.825 249.231L879.807 249.231M799.825 332.308V415.385M799.825 332.308L719.842 332.308M799.825 332.308H879.807M799.825 415.385V498.462M799.825 415.385L719.842 415.385M799.825 415.385H879.807M799.825 498.462L799.825 581.538M799.825 498.462H719.842M799.825 498.462H879.807M799.825 581.538V664.615M799.825 581.538H719.842M799.825 581.538H879.807M799.825 664.615V747.692M799.825 664.615H719.842M799.825 664.615H879.807M799.825 747.692V830.769M799.825 747.692H719.842M799.825 747.692H879.807M799.825 830.769V913.846M799.825 830.769H719.842M799.825 830.769H879.807M799.825 913.846V996.923M799.825 913.846H719.842M799.825 913.846H879.807M799.825 996.923V1080M799.825 996.923H719.842M799.825 996.923H879.807M799.825 1080H719.842M799.825 1080H879.807M399.912 0V83.0769M399.912 0H479.895M399.912 83.0769V166.154M399.912 83.0769L479.895 83.0769M399.912 166.154V249.231M399.912 166.154H479.895M399.912 249.231V332.308M399.912 249.231H479.895M399.912 332.308V415.385M399.912 332.308H479.895M399.912 415.385V498.461M399.912 415.385H479.895M399.912 498.461L399.912 581.538M399.912 498.461H479.895M399.912 581.538V664.615M399.912 581.538H479.895M399.912 664.615V747.692M399.912 664.615H479.895M399.912 747.692V830.769M399.912 747.692H479.895M399.912 830.769V913.846M399.912 830.769H479.895M399.912 913.846V996.923M399.912 913.846H479.895M399.912 996.923V1080M399.912 996.923H479.895M399.912 1080H479.895M639.86 0V83.077M639.86 0H719.842M639.86 83.077V166.154M639.86 83.077H719.842M639.86 166.154V249.231M639.86 166.154L719.842 166.154M639.86 249.231V332.308M639.86 249.231H719.842M639.86 332.308V415.385M639.86 332.308H719.842M639.86 415.385V498.462M639.86 415.385H719.842M639.86 498.462L639.86 581.538M639.86 498.462H719.842M639.86 581.538V664.615M639.86 581.538H719.842M639.86 664.615V747.692M639.86 664.615H719.842M639.86 747.692V830.769M639.86 747.692H719.842M639.86 830.769V913.846M639.86 830.769H719.842M639.86 913.846V996.923M639.86 913.846H719.842M639.86 996.923V1080M639.86 996.923H719.842M639.86 1080H719.842M879.807 0V83.077M879.807 0H959.79M879.807 83.077V166.154M879.807 83.077L959.79 83.077M879.807 166.154V249.231M879.807 166.154L959.79 166.154M879.807 249.231V332.308M879.807 249.231H959.79M879.807 332.308V415.385M879.807 332.308H959.79M879.807 415.385V498.462M879.807 415.385H959.79M879.807 498.462V581.538M879.807 498.462H959.79M879.807 581.538V664.615M879.807 581.538H959.79M879.807 664.615V747.692M879.807 664.615H959.79M879.807 747.692V830.769M879.807 747.692H959.79M879.807 830.769V913.846M879.807 830.769H959.79M879.807 913.846V996.923M879.807 913.846H959.79M879.807 996.923V1080M879.807 996.923H959.79M879.807 1080H959.79M479.895 0V83.0769M479.895 83.0769V166.154M479.895 166.154V249.231M479.895 249.231L479.895 332.308M479.895 332.308V415.385M479.895 415.385V498.461M479.895 498.461V581.538M479.895 581.538V664.615M479.895 664.615V747.692M479.895 747.692L479.895 830.769M479.895 830.769V913.846M479.895 913.846V996.923M479.895 996.923V1080M719.842 0V83.077M719.842 83.077V166.154M719.842 166.154V249.231M719.842 249.231V332.308M719.842 332.308V415.385M719.842 415.385V498.462M719.842 498.462V581.538M719.842 581.538V664.615M719.842 664.615V747.692M719.842 747.692V830.769M719.842 830.769V913.846M719.842 913.846V996.923M719.842 996.923V1080M959.79 0V83.077M959.79 0H1039.77V1080H959.79M959.79 83.077V166.154M959.79 83.077H1039.77M959.79 166.154V249.231M959.79 166.154H1039.77M959.79 249.231V332.308M959.79 249.231H1039.77M959.79 332.308V415.385M959.79 332.308H1039.77M959.79 415.385V498.462M959.79 415.385H1039.77M959.79 498.462V581.538M959.79 498.462H1039.77M959.79 581.538V664.615M959.79 581.538H1039.77M959.79 664.615V747.692M959.79 664.615H1039.77M959.79 747.692V830.769M959.79 747.692H1039.77M959.79 830.769V913.846M959.79 830.769H1039.77M959.79 913.846V996.923M959.79 913.846H1039.77M959.79 996.923V1080M959.79 996.923H1039.77M640.21 0V83.0769M640.21 0H560.228V83.0769M640.21 0H720.193M640.21 83.0769V166.154M640.21 83.0769H560.228M640.21 83.0769L720.193 83.0769M640.21 166.154V249.231M640.21 166.154H560.228M640.21 166.154L720.193 166.154M640.21 249.231V332.308M640.21 249.231H560.228M640.21 249.231H720.193M640.21 332.308V415.385M640.21 332.308H560.228M640.21 332.308H720.193M640.21 415.385V498.461M640.21 415.385H560.228M640.21 415.385H720.193M640.21 498.461V581.538M640.21 498.461H560.228M640.21 498.461H720.193M640.21 581.538V664.615M640.21 581.538H560.228M640.21 581.538H720.193M640.21 664.615V747.692M640.21 664.615H560.228M640.21 664.615H720.193M640.21 747.692V830.769M640.21 747.692H560.228M640.21 747.692H720.193M640.21 830.769V913.846M640.21 830.769H560.228M640.21 830.769H720.193M640.21 913.846L640.21 996.923M640.21 913.846H560.228M640.21 913.846H720.193M640.21 996.923V1080M640.21 996.923H560.228M640.21 996.923H720.193M640.21 1080L560.228 1080V996.923M640.21 1080H720.193M560.228 83.0769V166.154M560.228 166.154V249.231M560.228 249.231V332.308M560.228 332.308V415.385M560.228 415.385V498.461M560.228 498.461V581.538M560.228 581.538V664.615M560.228 664.615V747.692M560.228 747.692V830.769M560.228 830.769V913.846M560.228 913.846V996.923M720.193 0V83.0769M720.193 0H800.175M720.193 83.0769V166.154M720.193 83.0769H800.175M720.193 166.154V249.231M720.193 166.154H800.175M720.193 249.231V332.308M720.193 249.231L800.175 249.231M720.193 332.308V415.385M720.193 332.308H800.175M720.193 415.385V498.461M720.193 415.385H800.175M720.193 498.461V581.538M720.193 498.461H800.175M720.193 581.538V664.615M720.193 581.538H800.175M720.193 664.615V747.692M720.193 664.615H800.175M720.193 747.692V830.769M720.193 747.692H800.175M720.193 830.769V913.846M720.193 830.769H800.175M720.193 913.846V996.923M720.193 913.846H800.175M720.193 996.923V1080M720.193 996.923H800.175M720.193 1080H800.175M800.175 0V83.0769M800.175 0H880.158M800.175 83.0769V166.154M800.175 83.0769L880.158 83.0769M800.175 166.154L800.175 249.231M800.175 166.154H880.158M800.175 249.231V332.308M800.175 249.231H880.158M800.175 332.308V415.385M800.175 332.308L880.158 332.308M800.175 415.385V498.461M800.175 415.385L880.158 415.385M800.175 498.461V581.538M800.175 498.461H880.158M800.175 581.538V664.615M800.175 581.538H880.158M800.175 664.615V747.692M800.175 664.615H880.158M800.175 747.692V830.769M800.175 747.692H880.158M800.175 830.769V913.846M800.175 830.769H880.158M800.175 913.846V996.923M800.175 913.846H880.158M800.175 996.923V1080M800.175 996.923H880.158M800.175 1080H880.158M880.158 0V83.0769M880.158 0H960.14M880.158 83.0769V166.154M880.158 83.0769H960.14M880.158 166.154V249.231M880.158 166.154L960.14 166.154M880.158 249.231V332.308M880.158 249.231H960.14M880.158 332.308V415.385M880.158 332.308H960.14M880.158 415.385V498.461M880.158 415.385H960.14M880.158 498.461L880.158 581.538M880.158 498.461H960.14M880.158 581.538V664.615M880.158 581.538H960.14M880.158 664.615V747.692M880.158 664.615H960.14M880.158 747.692V830.769M880.158 747.692H960.14M880.158 830.769V913.846M880.158 830.769H960.14M880.158 913.846V996.923M880.158 913.846H960.14M880.158 996.923V1080M880.158 996.923H960.14M880.158 1080H960.14M1120.1 0V83.0769M1120.1 0H1040.12M1120.1 0H1200.09M1120.1 83.0769V166.154M1120.1 83.0769H1040.12M1120.1 83.0769L1200.09 83.077M1120.1 166.154V249.231M1120.1 166.154H1040.12M1120.1 166.154H1200.09M1120.1 249.231V332.308M1120.1 249.231L1040.12 249.231M1120.1 249.231H1200.09M1120.1 332.308V415.385M1120.1 332.308H1040.12M1120.1 332.308H1200.09M1120.1 415.385V498.462M1120.1 415.385H1040.12M1120.1 415.385H1200.09M1120.1 498.462V581.538M1120.1 498.462L1040.12 498.461M1120.1 498.462H1200.09M1120.1 581.538V664.615M1120.1 581.538L1040.12 581.538M1120.1 581.538H1200.09M1120.1 664.615V747.692M1120.1 664.615L1040.12 664.615M1120.1 664.615H1200.09M1120.1 747.692V830.769M1120.1 747.692H1040.12M1120.1 747.692H1200.09M1120.1 830.769V913.846M1120.1 830.769L1040.12 830.769M1120.1 830.769H1200.09M1120.1 913.846V996.923M1120.1 913.846L1040.12 913.846M1120.1 913.846H1200.09M1120.1 996.923V1080M1120.1 996.923L1040.12 996.923M1120.1 996.923H1200.09M1120.1 1080H1040.12M1120.1 1080H1200.09M1360.05 0V83.077M1360.05 0H1280.07M1360.05 0H1440.04M1360.05 83.077V166.154M1360.05 83.077L1280.07 83.077M1360.05 83.077H1440.04M1360.05 166.154V249.231M1360.05 166.154H1280.07M1360.05 166.154H1440.04M1360.05 249.231V332.308M1360.05 249.231H1280.07M1360.05 249.231L1440.04 249.231M1360.05 332.308V415.385M1360.05 332.308L1280.07 332.308M1360.05 332.308H1440.04M1360.05 415.385V498.462M1360.05 415.385L1280.07 415.385M1360.05 415.385H1440.04M1360.05 498.462L1360.05 581.538M1360.05 498.462H1280.07M1360.05 498.462H1440.04M1360.05 581.538V664.615M1360.05 581.538H1280.07M1360.05 581.538H1440.04M1360.05 664.615V747.692M1360.05 664.615H1280.07M1360.05 664.615H1440.04M1360.05 747.692V830.769M1360.05 747.692H1280.07M1360.05 747.692H1440.04M1360.05 830.769V913.846M1360.05 830.769H1280.07M1360.05 830.769H1440.04M1360.05 913.846V996.923M1360.05 913.846H1280.07M1360.05 913.846H1440.04M1360.05 996.923V1080M1360.05 996.923H1280.07M1360.05 996.923H1440.04M1360.05 1080H1280.07M1360.05 1080H1440.04M960.14 0V83.0769M960.14 0H1040.12M960.14 83.0769V166.154M960.14 83.0769L1040.12 83.0769M960.14 166.154V249.231M960.14 166.154H1040.12M960.14 249.231V332.308M960.14 249.231H1040.12M960.14 332.308V415.385M960.14 332.308H1040.12M960.14 415.385V498.461M960.14 415.385H1040.12M960.14 498.461V581.538M960.14 498.461H1040.12M960.14 581.538V664.615M960.14 581.538H1040.12M960.14 664.615V747.692M960.14 664.615H1040.12M960.14 747.692V830.769M960.14 747.692H1040.12M960.14 830.769V913.846M960.14 830.769H1040.12M960.14 913.846V996.923M960.14 913.846H1040.12M960.14 996.923V1080M960.14 996.923H1040.12M960.14 1080H1040.12M1200.09 0V83.077M1200.09 0H1280.07M1200.09 83.077V166.154M1200.09 83.077H1280.07M1200.09 166.154V249.231M1200.09 166.154L1280.07 166.154M1200.09 249.231V332.308M1200.09 249.231H1280.07M1200.09 332.308V415.385M1200.09 332.308H1280.07M1200.09 415.385V498.462M1200.09 415.385H1280.07M1200.09 498.462V581.538M1200.09 498.462H1280.07M1200.09 581.538V664.615M1200.09 581.538H1280.07M1200.09 664.615V747.692M1200.09 664.615H1280.07M1200.09 747.692V830.769M1200.09 747.692H1280.07M1200.09 830.769V913.846M1200.09 830.769H1280.07M1200.09 913.846V996.923M1200.09 913.846H1280.07M1200.09 996.923V1080M1200.09 996.923H1280.07M1200.09 1080H1280.07M1440.04 0V83.077M1440.04 0H1520.02M1440.04 83.077V166.154M1440.04 83.077L1520.02 83.077M1440.04 166.154V249.231M1440.04 166.154L1520.02 166.154M1440.04 249.231V332.308M1440.04 249.231H1520.02M1440.04 332.308V415.385M1440.04 332.308H1520.02M1440.04 415.385V498.462M1440.04 415.385H1520.02M1440.04 498.462V581.538M1440.04 498.462H1520.02M1440.04 581.538V664.615M1440.04 581.538H1520.02M1440.04 664.615V747.692M1440.04 664.615H1520.02M1440.04 747.692V830.769M1440.04 747.692H1520.02M1440.04 830.769V913.846M1440.04 830.769H1520.02M1440.04 913.846V996.923M1440.04 913.846H1520.02M1440.04 996.923V1080M1440.04 996.923H1520.02M1440.04 1080H1520.02M1040.12 0V83.0769M1040.12 83.0769V166.154M1040.12 166.154V249.231M1040.12 249.231V332.308M1040.12 332.308V415.385M1040.12 415.385V498.461M1040.12 498.461V581.538M1040.12 581.538V664.615M1040.12 664.615V747.692M1040.12 747.692L1040.12 830.769M1040.12 830.769V913.846M1040.12 913.846V996.923M1040.12 996.923V1080M1280.07 0V83.077M1280.07 83.077V166.154M1280.07 166.154V249.231M1280.07 249.231V332.308M1280.07 332.308V415.385M1280.07 415.385V498.462M1280.07 498.462V581.538M1280.07 581.538V664.615M1280.07 664.615V747.692M1280.07 747.692V830.769M1280.07 830.769V913.846M1280.07 913.846V996.923M1280.07 996.923V1080M1520.02 0V83.077M1520.02 0H1600V1080H1520.02M1520.02 83.077V166.154M1520.02 83.077H1600M1520.02 166.154V249.231M1520.02 166.154H1600M1520.02 249.231V332.308M1520.02 249.231H1600M1520.02 332.308V415.385M1520.02 332.308H1600M1520.02 415.385V498.462M1520.02 415.385H1600M1520.02 498.462V581.538M1520.02 498.462H1600M1520.02 581.538V664.615M1520.02 581.538H1600M1520.02 664.615V747.692M1520.02 664.615H1600M1520.02 747.692V830.769M1520.02 747.692H1600M1520.02 830.769V913.846M1520.02 830.769H1600M1520.02 913.846V996.923M1520.02 913.846H1600M1520.02 996.923V1080M1520.02 996.923H1600" stroke="url(#paint0_linear_266_205)" />
  <defs>
    <linearGradient id="paint0_linear_266_205" x1="0" y1="0" x2="1622.01" y2="986.817" gradientUnits="userSpaceOnUse">
      <stop stop-color="white" stop-opacity="0.1" />
      <stop offset="1" stop-color="white" stop-opacity="0" />
    </linearGradient>
  </defs>
</svg>