<svg width="94" height="63" viewBox="0 0 94 63" fill="none" xmlns="http://www.w3.org/2000/svg">
  <rect x="0.846436" y="0.3974" width="92.1906" height="61.9655" rx="20" fill="#EBF3FA" />
  <path d="M40.2883 41.9215H35.0757L38.3361 22.1607H43.5484L40.2883 41.9215Z" fill="#00579F" />
  <path d="M59.183 22.644C58.1548 22.2441 56.524 21.8027 54.5076 21.8027C49.3599 21.8027 45.735 24.4934 45.7127 28.3402C45.67 31.1785 48.3081 32.7549 50.2812 33.7012C52.2979 34.6683 52.9835 35.2994 52.9835 36.1614C52.9629 37.4852 51.3538 38.0955 49.8531 38.0955C47.7719 38.0955 46.6568 37.7808 44.9622 37.0443L44.2758 36.7286L43.5464 41.1645C44.769 41.7104 47.0214 42.1949 49.3599 42.2162C54.8294 42.2162 58.3902 39.5671 58.4324 35.4676C58.4532 33.2181 57.0602 31.4945 54.0569 30.086C52.2338 29.1818 51.1173 28.5721 51.1173 27.647C51.1386 26.806 52.0616 25.9446 54.1197 25.9446C55.8143 25.9024 57.0594 26.3017 58.0026 26.7012L58.474 26.9111L59.183 22.644Z" fill="#00579F" />
  <path d="M66.1137 34.9209C66.543 33.7857 68.1948 29.392 68.1948 29.392C68.1731 29.4342 68.6232 28.2359 68.8806 27.5002L69.2449 29.2029C69.2449 29.2029 70.232 33.933 70.4464 34.9209C69.6317 34.9209 67.1433 34.9209 66.1137 34.9209ZM72.5481 22.1607H68.5161C67.2727 22.1607 66.328 22.5178 65.7916 23.8003L58.0488 41.9212H63.5183C63.5183 41.9212 64.4188 39.4823 64.6123 38.957C65.2124 38.957 70.5331 38.957 71.305 38.957C71.4546 39.6507 71.9269 41.9212 71.9269 41.9212H76.7534L72.5481 22.1607Z" fill="#00579F" />
  <path d="M30.7214 22.1607L25.6165 35.6357L25.0587 32.9028C24.1149 29.7494 21.1549 26.3233 17.8518 24.6198L22.5277 41.9005H28.04L36.2334 22.1607H30.7214Z" fill="#00579F" />
  <path d="M20.8763 22.1607H12.4896L12.4038 22.56C18.9459 24.1998 23.2787 28.1526 25.0588 32.9036L23.2356 23.8218C22.9355 22.5597 22.013 22.2023 20.8763 22.1607Z" fill="#FAA61A" />
</svg>