<svg width="46" height="14" viewBox="0 0 46 14" fill="none" xmlns="http://www.w3.org/2000/svg">
  <g opacity="0.5">
    <path d="M20.2559 13.7258H16.5796L18.879 0.406982H22.5551L20.2559 13.7258Z" fill="#FCFCFC" />
    <path d="M33.5828 0.732562C32.8576 0.463075 31.7075 0.165527 30.2854 0.165527C26.655 0.165527 24.0985 1.97906 24.0828 4.57187C24.0526 6.48483 25.9132 7.54734 27.3047 8.18518C28.727 8.83696 29.2105 9.26238 29.2105 9.84335C29.196 10.7356 28.0612 11.1469 27.0028 11.1469C25.535 11.1469 24.7486 10.9349 23.5535 10.4384L23.0694 10.2256L22.5549 13.2154C23.4172 13.5834 25.0057 13.91 26.655 13.9243C30.5124 13.9243 33.0237 12.1388 33.0534 9.37575C33.0681 7.85958 32.0857 6.69782 29.9676 5.7485C28.6818 5.13909 27.8943 4.72817 27.8943 4.10464C27.9094 3.53779 28.5604 2.9572 30.0118 2.9572C31.207 2.92876 32.0851 3.19787 32.7503 3.46717L33.0828 3.6086L33.5828 0.732562Z" fill="#FCFCFC" />
    <path fill-rule="evenodd" clip-rule="evenodd" d="M40.1631 0.406982H43.0067L45.9725 13.7256H42.5687C42.5687 13.7256 42.2355 12.1953 42.13 11.7277H37.41C37.2735 12.0818 36.6384 13.7256 36.6384 13.7256H32.781L38.2416 1.51205C38.62 0.647657 39.2862 0.406982 40.1631 0.406982ZM39.9364 5.28116C39.9364 5.28116 38.7715 8.24251 38.4687 9.00766H41.5244C41.3732 8.34176 40.677 5.15367 40.677 5.15367L40.4201 4.00604C40.3119 4.30156 40.1555 4.70785 40.0499 4.98189C39.9784 5.16766 39.9303 5.29265 39.9364 5.28116Z" fill="#FCFCFC" />
    <path fill-rule="evenodd" clip-rule="evenodd" d="M9.9088 9.48915L13.5091 0.406982H17.3964L11.618 13.7117H7.73042L4.45378 2.13888C3.32322 1.51971 2.03294 1.02173 0.590332 0.67615L0.650843 0.407039H6.56561C7.36733 0.435099 8.01787 0.675962 8.22955 1.52661L9.51491 7.64568C9.51507 7.64618 9.51522 7.64668 9.51538 7.64718L9.9088 9.48915Z" fill="#FCFCFC" />
  </g>
</svg>